<?xml version="1.0" standalone="no"?>
<!DOCTYPE svg PUBLIC "-//W3C//DTD SVG 20010904//EN"
 "http://www.w3.org/TR/2001/REC-SVG-20010904/DTD/svg10.dtd">
<svg version="1.0" xmlns="http://www.w3.org/2000/svg"
 width="624.000000pt" height="351.000000pt" viewBox="0 0 624.000000 351.000000"
 preserveAspectRatio="xMidYMid meet">
<metadata>
Created by potrace 1.16, written by Peter Selinger 2001-2019
</metadata>
<g transform="translate(0.000000,351.000000) scale(0.100000,-0.100000)"
fill="#000000" stroke="none">
<path d="M0 2685 c0 -774 1 -825 17 -835 17 -11 17 -11 1 -6 -14 4 -18 -1 -18
-23 0 -29 31 -54 38 -32 2 6 16 12 30 12 20 1 17 4 -13 9 l-40 7 40 1 c22 0
48 -3 58 -7 14 -5 8 -9 -25 -18 -24 -6 -54 -23 -67 -37 -29 -31 -12 -34 27 -6
32 24 120 42 142 29 11 -6 8 -8 -13 -9 -32 0 -68 -17 -80 -36 -4 -8 -21 -14
-37 -14 -17 0 -30 -5 -30 -12 0 -9 -3 -8 -10 2 -17 27 -22 1 -8 -41 18 -54 43
-66 36 -18 -3 21 0 38 8 47 16 15 17 11 14 -49 -1 -21 3 -40 9 -43 17 -11 29
25 20 57 -10 34 -4 50 6 18 3 -12 11 -21 16 -21 6 0 7 5 4 10 -3 6 -1 10 4 10
6 0 11 -20 11 -44 0 -25 5 -48 11 -52 8 -4 9 9 6 45 -5 46 -3 51 14 51 11 0
18 -4 15 -8 -2 -4 -1 -14 3 -21 6 -10 12 -9 25 4 15 15 16 15 16 -7 1 -21 2
-20 15 7 7 17 14 24 14 17 1 -7 5 -10 11 -7 5 3 10 2 10 -4 0 -5 -6 -12 -12
-14 -8 -4 -7 -6 4 -6 9 -1 19 -7 22 -13 3 -7 5 -4 5 7 -1 11 -1 27 0 35 1 13
3 13 10 0 6 -8 7 -18 4 -24 -4 -5 -1 -6 8 0 8 4 20 9 27 10 29 5 42 14 42 31
0 10 9 -1 21 -24 23 -47 48 -49 50 -4 0 14 3 20 6 13 2 -6 9 -10 13 -7 5 3 14
-4 20 -15 6 -11 17 -20 25 -20 9 0 15 -10 15 -25 0 -14 5 -25 11 -25 6 0 8 9
3 23 -6 21 -6 21 12 6 11 -9 24 -15 30 -12 13 4 84 -61 84 -78 0 -8 4 -8 13
-1 16 14 35 2 32 -20 -2 -11 2 -15 11 -11 8 3 11 9 8 14 -3 5 -3 9 1 9 3 0 10
-11 15 -25 5 -14 17 -25 25 -25 9 0 13 -4 10 -10 -3 -5 3 -10 14 -10 12 0 21
-4 21 -10 0 -5 7 -10 15 -10 8 0 15 -9 15 -21 0 -11 4 -18 9 -14 5 3 12 1 16
-5 4 -6 11 -8 16 -5 5 4 9 1 9 -4 0 -6 6 -11 13 -11 6 0 27 -14 46 -30 18 -17
28 -30 22 -30 -8 0 -9 -5 -3 -17 6 -9 6 -24 2 -32 -5 -9 -11 -25 -15 -36 -5
-15 -8 -16 -14 -6 -6 9 -18 11 -34 7 -14 -3 -28 -2 -32 4 -3 5 -12 7 -19 4 -8
-3 -17 0 -21 6 -6 9 -9 9 -15 0 -5 -9 -9 -9 -15 -1 -4 7 6 16 25 23 18 6 28
13 22 17 -5 3 -14 15 -20 27 -8 16 -18 20 -41 16 -20 -3 -31 0 -31 8 0 9 -4 9
-12 2 -14 -10 -59 -6 -68 6 -3 5 -45 39 -95 77 -49 38 -107 82 -127 98 -44 35
-74 32 -57 -6 8 -18 17 -23 33 -20 18 4 19 3 4 -7 -21 -13 -13 -41 9 -33 11 4
14 2 9 -5 -4 -7 -15 -12 -25 -12 -14 0 -16 -7 -13 -35 4 -30 1 -35 -17 -35
-12 0 -19 5 -16 10 3 6 2 10 -4 10 -5 0 -11 -5 -13 -10 -2 -6 -23 -12 -47 -15
-53 -5 -60 -11 -35 -31 10 -8 1 -6 -22 6 -23 12 -53 20 -70 18 -29 -3 -29 -3
18 -30 40 -24 98 -35 98 -18 0 3 34 5 74 6 41 0 73 -3 71 -6 -3 -4 -39 -13
-80 -20 -42 -7 -71 -16 -65 -20 8 -5 4 -9 -9 -13 -14 -3 -21 0 -21 9 0 8 -7
14 -15 14 -8 0 -14 -3 -14 -7 4 -24 -4 -33 -27 -33 -15 0 -24 5 -22 12 3 7
-26 26 -66 46 -39 18 -81 42 -92 53 -19 18 -25 19 -43 7 -19 -12 -21 -21 -19
-83 l3 -70 80 0 c44 -1 112 5 150 13 39 7 126 22 195 32 69 10 132 20 140 22
8 2 14 -3 12 -10 -1 -8 6 -16 17 -19 17 -4 18 -8 9 -29 -15 -33 -62 -49 -87
-30 -10 8 -15 8 -19 -2 -2 -7 -10 -19 -18 -26 -8 -8 -14 -19 -14 -24 0 -11
-150 -87 -237 -121 -55 -21 -62 -18 -54 23 1 5 -6 3 -15 -5 -9 -8 -19 -13 -21
-11 -1 1 -24 1 -50 1 -42 -1 -44 -2 -18 -9 25 -6 27 -8 12 -15 -10 -4 -33 -5
-52 -2 -34 6 -35 5 -35 -29 0 -19 5 -34 10 -34 6 0 10 5 10 11 0 7 11 8 30 4
17 -4 30 -2 30 3 0 15 30 23 48 12 14 -8 12 -9 -12 -10 -16 0 -27 -2 -24 -6 3
-3 44 -5 91 -6 68 0 89 3 103 16 11 12 25 15 44 11 16 -3 31 -2 34 3 3 5 0 10
-7 9 -33 -1 -48 4 -41 14 3 6 17 8 31 5 31 -8 54 5 27 15 -16 6 -14 8 11 10
17 1 37 3 45 4 8 1 26 3 39 4 13 0 22 4 18 7 -10 10 20 34 42 34 31 0 34 -18
4 -23 -16 -3 4 -4 42 -3 39 1 79 6 89 11 14 6 17 5 12 -3 -9 -15 46 -16 60 -2
6 6 35 13 65 17 30 3 66 12 81 20 25 12 27 12 21 -3 -5 -14 -1 -16 25 -12 21
3 32 0 32 -8 0 -22 -26 -33 -67 -30 -30 2 -40 0 -36 -9 2 -7 -1 -16 -7 -20 -6
-3 -10 -3 -9 2 5 27 -3 34 -33 29 -17 -2 -34 -10 -39 -17 -4 -7 -15 -9 -25 -5
-18 6 -17 5 0 -9 25 -19 50 -19 69 0 13 13 16 13 21 0 9 -24 80 -20 97 5 12
17 28 21 99 24 89 4 130 -8 106 -30 -7 -6 -22 -9 -34 -7 -12 1 -22 -2 -22 -8
0 -8 -4 -8 -14 0 -10 9 -17 6 -30 -13 -9 -14 -16 -28 -16 -30 0 -3 29 -4 65
-2 49 2 65 -1 65 -11 0 -7 4 -13 9 -13 5 0 12 -8 14 -17 3 -11 5 -7 6 10 0 15
-3 27 -9 27 -5 0 -10 7 -10 15 0 9 9 15 23 15 12 0 17 -4 12 -8 -6 -4 -7 -24
-4 -47 3 -22 7 -34 8 -26 0 7 7 11 16 7 8 -3 15 -1 15 4 0 18 20 10 21 -7 1
-10 5 -4 9 12 4 17 8 22 9 13 2 -28 21 -21 21 7 0 14 -4 25 -8 25 -4 0 -8 19
-9 43 -4 201 -7 246 -20 279 -14 34 -18 37 -44 31 l-30 -6 2 112 c1 61 5 113
9 116 10 6 80 -23 80 -33 0 -4 16 -16 36 -27 34 -18 36 -18 46 -2 19 34 28 4
28 -92 0 -64 4 -102 13 -111 6 -7 -7 1 -29 18 -27 21 -53 32 -74 32 -18 0 -29
-4 -25 -10 4 -6 10 -8 15 -5 5 3 24 -2 42 -12 l33 -18 -40 -5 c-37 -6 -37 -10
5 -23 9 -3 4 -6 -10 -6 -15 -1 -20 -4 -14 -9 7 -4 14 -16 17 -27 5 -19 5 -19
12 2 9 27 13 28 41 5 31 -25 38 -52 14 -52 -11 0 -20 5 -20 10 0 6 -9 10 -20
10 -11 0 -20 -4 -20 -10 0 -5 7 -10 15 -10 8 0 15 -7 15 -15 0 -17 18 -19 39
-6 9 6 23 5 38 -2 30 -13 30 -29 1 -19 -28 10 -61 4 -53 -9 4 -5 26 -9 50 -9
24 0 47 -4 50 -10 3 -5 15 -10 27 -10 14 0 18 -5 14 -15 -4 -11 2 -15 22 -15
15 0 48 -11 75 -24 40 -21 44 -25 27 -31 -25 -8 -26 -21 -2 -34 12 -8 0 -9
-45 -6 -37 3 -63 1 -63 -5 0 -5 7 -7 15 -4 8 4 15 2 15 -3 0 -5 53 -10 117
-12 117 -2 168 -12 124 -24 -11 -3 -21 -2 -21 2 0 4 -9 7 -20 7 -11 0 -20 -3
-20 -6 0 -3 -15 -6 -34 -6 -19 0 -33 3 -31 7 3 3 -9 5 -26 3 -17 -2 -36 -1
-42 3 -6 4 -33 7 -59 6 -26 0 -45 4 -42 8 3 5 -10 15 -28 23 -18 8 -27 15 -19
15 11 1 11 4 1 16 -7 8 -18 15 -24 15 -6 0 -4 -5 4 -10 8 -5 10 -10 3 -10 -21
0 -2 -38 23 -44 30 -8 30 -17 3 -34 -12 -8 -18 -9 -14 -3 3 6 -5 16 -19 22
-14 7 -23 16 -20 20 3 5 0 9 -5 9 -6 0 -11 -6 -12 -12 0 -13 -30 49 -44 91 -5
18 -4 22 6 16 8 -4 5 1 -7 12 -11 11 -26 35 -34 52 -21 52 -28 35 -15 -38 8
-38 17 -102 20 -142 4 -41 12 -90 18 -109 13 -45 16 -90 5 -90 -5 0 -6 -11 -3
-25 16 -80 19 -74 -27 -78 l-43 -4 43 -1 c26 -1 42 -7 42 -14 0 -7 3 -23 6
-35 5 -20 2 -23 -20 -23 -16 0 -25 4 -21 10 3 6 1 10 -4 10 -6 0 -11 -3 -11
-7 0 -5 -25 -9 -56 -10 -94 -2 -137 -22 -66 -30 21 -3 24 -1 12 7 -11 7 -4 10
28 10 41 0 54 -11 30 -27 -9 -5 -3 -10 17 -14 l30 -7 -32 -1 c-18 0 -33 -6
-33 -12 0 -7 10 -9 24 -7 14 3 31 1 38 -3 8 -5 -6 -9 -35 -9 -27 0 -46 4 -43
9 9 14 -16 19 -47 8 -15 -5 -43 -7 -62 -5 -19 2 -35 0 -35 -4 0 -4 24 -8 54
-8 30 0 58 -4 61 -10 4 -6 -7 -10 -24 -10 -33 0 -42 -16 -15 -27 15 -6 16 -21
9 -142 -4 -75 -7 -148 -6 -162 1 -22 -3 -26 -28 -27 -23 0 -28 3 -24 15 4 9 8
11 12 4 12 -19 27 4 26 39 -1 19 -3 58 -4 85 -2 38 -4 45 -11 30 -12 -27 -13
77 -1 126 9 41 -6 73 -29 59 -8 -5 -18 -6 -24 -3 -5 3 -6 1 -2 -5 4 -8 -3 -16
-20 -22 -20 -8 -29 -8 -34 1 -4 6 -9 0 -12 -15 -4 -18 -1 -26 9 -26 8 0 12 4
9 9 -3 4 5 7 17 7 12 -1 32 1 44 6 20 7 23 4 23 -21 0 -70 -14 -181 -23 -181
-5 0 -7 6 -4 13 3 8 -1 14 -9 14 -8 0 -14 -5 -15 -11 -1 -6 -2 -26 -4 -44 -1
-19 -8 -39 -14 -45 -8 -8 -10 -4 -6 18 2 17 9 64 15 105 7 46 17 78 25 83 13
7 13 11 -1 32 -9 14 -21 25 -28 24 -7 0 -6 -2 2 -6 40 -16 -23 -23 -208 -23
-203 0 -231 -4 -214 -31 5 -8 10 -6 16 5 7 12 24 16 73 16 63 0 89 -14 43 -23
-13 -2 48 -5 135 -6 103 -1 156 -5 152 -11 -3 -6 -50 -11 -103 -11 -53 -1 -86
-4 -72 -6 14 -3 28 -10 33 -17 5 -8 9 -8 15 1 4 7 32 12 65 12 48 0 58 -3 53
-16 -3 -8 -6 -21 -6 -29 0 -11 -16 -14 -67 -14 -72 0 -80 5 -20 13 21 3 41 8
44 11 7 7 -21 8 -119 6 -43 -1 -68 3 -68 9 0 6 9 11 20 11 11 0 20 3 20 8 0 4
-19 5 -42 3 -24 -3 -35 -6 -25 -9 36 -8 15 -22 -33 -22 -27 0 -50 5 -50 10 0
6 5 10 11 10 5 0 7 4 4 10 -8 13 -145 13 -145 1 0 -5 6 -12 13 -14 6 -3 -6 -6
-28 -7 -79 -3 -84 -19 -5 -18 47 1 75 -3 78 -11 2 -6 8 -11 13 -11 6 0 7 5 4
10 -4 6 25 10 82 9 77 -1 83 -2 49 -10 -54 -13 -57 -19 -8 -19 23 0 47 7 56
15 17 17 61 21 51 4 -4 -6 -12 -8 -19 -6 -6 2 -20 -5 -31 -16 l-20 -19 20 6
c11 3 26 2 34 -3 9 -6 -16 -9 -70 -9 -58 0 -78 2 -64 9 14 6 2 7 -35 4 -141
-14 -175 -15 -155 -5 14 7 1 8 -45 4 -65 -5 -74 -7 -120 -19 -23 -6 -22 -5 7
17 18 14 30 28 26 31 -10 11 -51 8 -59 -4 -3 -6 -15 -9 -25 -6 -12 3 -27 -5
-43 -24 -14 -16 -29 -29 -34 -29 -6 0 -13 -7 -16 -16 -3 -8 -10 -12 -16 -9 -5
3 -10 3 -11 -2 -5 -51 -17 -66 -52 -61 -24 3 -16 14 104 148 72 80 135 154
141 164 11 21 -59 -54 -189 -199 -99 -112 -106 -117 -137 -113 -24 3 -12 17
124 160 83 87 150 159 150 162 0 2 -53 -51 -119 -117 -65 -67 -138 -142 -162
-167 -57 -58 -62 -98 -9 -70 13 7 21 7 25 0 3 -5 11 -10 16 -10 6 0 8 4 5 9
-6 9 49 5 66 -5 7 -5 8 -2 3 6 -6 10 -4 12 8 7 10 -4 16 -2 14 6 -1 7 12 13
31 15 27 3 35 -1 39 -17 3 -12 13 -21 22 -21 14 0 14 2 1 10 -26 16 -6 20 114
21 90 1 120 -2 127 -12 6 -10 9 -11 9 -2 0 7 11 12 25 11 14 -1 25 -6 25 -11
0 -4 9 -3 19 3 25 13 41 13 21 -1 -11 -7 11 -8 75 -4 50 3 162 5 250 6 262 1
282 0 265 -11 -13 -8 -13 -10 2 -10 9 0 19 6 21 13 4 10 6 10 6 0 1 -15 111
-18 111 -4 0 6 9 9 19 8 11 0 17 -5 15 -9 -9 -14 550 -10 564 4 9 9 12 9 12 0
0 -8 19 -12 58 -12 l57 0 -35 22 c-19 11 -46 27 -58 35 -13 8 -21 17 -18 20 3
3 32 -13 65 -35 59 -42 78 -51 66 -32 -3 6 1 10 9 10 8 0 18 -4 21 -10 4 -6
78 -10 193 -9 103 1 178 3 167 6 -25 6 -44 23 -26 23 7 0 10 4 7 9 -4 5 4 7
16 3 14 -3 17 -7 9 -10 -8 -3 -1 -10 19 -18 45 -19 1022 -20 997 -1 -17 12
-19 56 -18 302 l1 101 39 -4 c34 -3 40 -8 45 -35 3 -17 3 -52 0 -79 -6 -46 -6
-48 18 -48 54 0 137 -23 141 -39 4 -13 5 -13 6 2 0 10 6 15 11 12 6 -3 10 -1
10 4 0 20 20 11 30 -11 7 -18 9 -19 9 -5 1 11 9 17 25 17 20 0 23 -4 18 -22
-6 -28 -24 -41 -33 -26 -4 6 -12 7 -18 4 -19 -12 -12 -26 15 -26 14 0 23 -4
20 -9 -4 -5 0 -11 6 -14 7 -2 9 -8 5 -13 -5 -5 -14 -1 -21 9 -17 22 -26 22
-26 -3 0 -11 -4 -20 -10 -20 -5 0 -10 -9 -10 -20 0 -11 -7 -20 -15 -20 -8 0
-15 -9 -15 -20 0 -11 7 -20 15 -20 8 0 15 5 15 10 0 6 4 10 10 10 6 0 6 -9 0
-25 -9 -24 -8 -25 35 -25 l45 0 0 115 c0 108 1 115 20 115 11 0 20 -7 20 -15
0 -18 49 -13 61 7 6 9 13 7 30 -7 20 -18 22 -18 16 -2 -7 20 3 23 21 5 9 -9
16 -7 32 7 19 18 20 18 20 -1 1 -16 2 -17 13 -4 15 18 34 18 66 1 21 -12 23
-11 18 3 -4 10 0 30 8 46 8 16 15 42 15 59 0 16 5 33 12 37 8 5 9 -4 5 -32 -5
-34 -4 -37 7 -21 12 16 14 15 20 -15 4 -18 9 -46 10 -62 3 -26 10 -31 67 -52
184 -68 228 -90 180 -90 -11 0 -17 4 -14 10 4 5 -4 6 -18 3 -13 -3 -31 -2 -39
4 -12 8 -10 9 7 4 34 -9 28 1 -7 14 -17 5 -28 6 -25 1 3 -5 -8 -4 -25 1 -16 6
-33 15 -36 20 -3 5 -10 7 -15 4 -5 -4 -9 -1 -9 5 0 7 -6 10 -13 7 -6 -2 -19 2
-28 10 -15 12 -17 8 -23 -44 -3 -32 -4 -67 -2 -78 3 -11 5 -27 5 -36 1 -20
100 -27 112 -7 7 10 9 10 9 1 0 -17 27 -17 34 0 5 9 7 9 12 0 4 -9 32 -13 90
-13 69 0 84 3 84 16 0 8 5 12 10 9 6 -3 10 -2 10 3 0 5 10 9 23 8 15 -1 21 -7
19 -18 -2 -16 25 -17 335 -17 l338 0 -65 21 c-36 11 -69 23 -75 28 -5 4 -27
10 -47 14 -56 10 -53 21 5 18 47 -3 50 -2 33 11 -13 10 -15 16 -8 21 17 10 15
26 -3 26 -8 0 -15 -4 -15 -10 0 -5 -15 -10 -32 -9 l-33 1 27 11 c40 16 34 30
-10 23 -32 -5 -34 -4 -14 6 25 13 30 46 7 55 -9 3 -24 -2 -34 -11 -18 -16 -19
-15 -25 9 -4 14 -4 30 -1 35 3 5 1 11 -5 15 -5 3 -10 1 -10 -4 0 -6 -4 -11
-10 -11 -5 0 -9 6 -7 12 2 12 -12 14 -153 21 -25 1 -48 6 -51 11 -14 19 -26 1
-16 -24 11 -24 16 -90 8 -90 -3 0 -13 7 -23 17 -10 9 -18 11 -18 6 0 -6 -91
21 -202 59 -112 38 -224 76 -250 84 -42 13 -47 18 -50 46 -3 30 -6 32 -43 36
-52 4 -68 10 -60 22 4 6 -7 10 -26 10 l-32 0 28 26 c15 14 30 22 33 19 4 -3 0
-10 -7 -14 -9 -6 -6 -10 12 -15 14 -3 33 -9 44 -12 15 -5 15 -4 3 5 -8 6 -10
11 -4 11 6 0 17 -7 24 -15 7 -8 20 -15 29 -15 12 0 13 2 3 9 -11 7 -11 9 1 14
19 7 43 -8 28 -17 -8 -5 -8 -13 -1 -26 13 -23 13 -43 1 -35 -16 9 -22 -12 -6
-25 11 -9 15 -5 20 24 4 19 4 39 0 45 -3 6 -1 11 4 11 6 0 11 -7 11 -15 0 -18
27 -25 108 -28 58 -2 62 -4 58 -23 -4 -14 -1 -21 9 -21 8 0 15 3 16 6 0 3 2
19 4 35 3 24 1 27 -16 23 -10 -3 -19 -1 -19 4 0 5 -12 9 -27 9 -26 0 -26 -1
-7 -16 18 -15 18 -15 -6 -10 -14 3 -29 6 -34 6 -22 0 20 30 43 30 18 0 30 8
38 25 13 30 3 33 -17 5 -16 -23 -52 -26 -68 -7 -8 10 -4 16 19 26 36 16 38 29
4 29 -13 0 -22 -4 -19 -9 9 -16 -20 -9 -41 9 -12 9 -24 25 -28 34 -3 10 -14
18 -24 17 -16 0 -15 -1 2 -8 l20 -8 -20 -5 c-12 -4 -14 -6 -5 -7 8 0 21 -11
29 -23 10 -18 11 -20 0 -10 -7 6 -23 12 -36 12 -14 0 -23 6 -23 15 0 9 -9 15
-22 16 -13 0 -32 5 -43 10 -15 7 -8 8 23 4 28 -4 41 -2 37 5 -3 5 -17 10 -31
10 -14 0 -24 6 -24 14 0 18 -43 33 -48 17 -2 -6 -8 -11 -13 -11 -6 0 -8 4 -5
9 4 5 -3 7 -14 4 -16 -4 -19 -2 -14 11 4 10 13 15 20 12 8 -3 14 0 14 8 0 13
-27 15 -46 3 -16 -10 -26 4 -13 19 13 16 -11 30 -35 21 -8 -3 -16 -1 -19 6 -2
7 -25 12 -57 12 -31 0 -55 5 -57 11 -3 8 -13 9 -33 3 -17 -5 -43 -13 -60 -18
-16 -5 -32 -6 -35 -2 -6 11 -68 12 -85 1 -12 -8 -12 -10 5 -11 11 0 14 -3 8
-6 -7 -2 -13 -9 -13 -15 0 -6 7 -8 15 -4 8 3 15 1 15 -4 0 -6 -6 -10 -12 -10
-7 0 -4 -8 7 -16 20 -16 19 -16 -4 -9 -16 5 -21 4 -17 -4 4 -6 16 -11 27 -11
11 0 18 -4 15 -9 -3 -5 2 -8 12 -7 11 1 16 -5 14 -16 -2 -16 30 -34 45 -25 5
3 14 -2 22 -10 12 -13 11 -15 -5 -10 -10 3 -111 34 -224 68 -113 33 -212 62
-220 64 -11 1 -16 17 -18 53 -3 51 -4 52 -35 52 -38 0 -57 24 -50 63 5 24 10
27 49 27 37 0 44 -3 44 -20 0 -11 5 -20 11 -20 6 0 8 9 4 20 -6 18 -2 20 54
20 l61 0 0 31 c0 22 -5 32 -20 36 -11 3 -20 12 -20 19 0 25 32 12 42 -17 4 -9
23 -20 45 -23 21 -4 56 -16 78 -26 48 -23 127 -43 255 -65 52 -9 199 -38 325
-66 127 -27 275 -58 330 -70 111 -23 155 -37 155 -50 0 -5 6 -9 14 -9 7 0 19
-6 25 -14 6 -7 29 -16 51 -20 22 -3 40 -11 40 -17 0 -6 6 -9 14 -6 8 3 17 1
20 -6 3 -9 5 -8 5 1 1 7 5 11 10 8 4 -3 66 -8 137 -11 132 -5 226 -18 394 -55
52 -12 104 -23 115 -25 11 -2 20 -4 20 -5 0 -2 9 -3 80 -15 22 -3 63 -13 90
-20 42 -12 188 -42 298 -60 15 -3 39 -7 55 -11 15 -3 45 -9 67 -13 22 -5 52
-12 68 -16 l27 -7 0 241 c0 208 -2 241 -15 241 -8 0 -15 8 -14 18 0 10 3 12 6
5 11 -29 23 -10 23 36 l0 49 -47 7 c-80 10 -104 13 -210 20 -92 6 -103 9 -103
26 0 22 1 22 32 10 13 -4 61 -11 108 -15 47 -3 115 -9 153 -12 l67 -7 0 282 0
281 -25 0 c-30 0 -31 6 -7 35 9 11 4 7 -13 -10 l-29 -30 -171 -3 c-93 -2 -258
-5 -365 -7 -107 -2 -316 -9 -463 -16 -147 -6 -271 -9 -274 -5 -3 3 0 13 8 22
11 13 11 15 -2 14 -31 -5 -60 1 -54 10 17 27 -118 23 -227 -7 -44 -12 -58 -20
-58 -34 0 -18 -10 -19 -177 -17 -116 1 -166 5 -145 10 52 14 36 20 -33 13 -61
-5 -65 -4 -65 15 0 24 20 27 21 3 1 -31 17 17 18 54 1 33 -13 53 -22 31 -4
-10 -7 -10 -14 0 -6 7 -27 12 -49 11 -21 -1 -72 -1 -111 -1 l-73 1 0 -49 c0
-48 -1 -50 -27 -50 -22 0 -25 -2 -13 -10 11 -8 8 -9 -12 -4 l-28 6 0 -154 0
-154 128 -12 c70 -6 179 -15 242 -18 63 -4 129 -8 145 -9 17 -1 94 -6 173 -10
107 -6 142 -11 142 -21 0 -13 15 -19 75 -28 31 -5 -87 1 -185 9 -30 3 -109 9
-175 15 -280 23 -292 23 -268 6 12 -9 28 -14 35 -11 8 3 39 -1 69 -9 42 -11
47 -15 24 -15 -55 -2 -290 22 -295 29 -3 4 -14 10 -25 13 -11 4 21 5 70 3 50
-2 78 -2 63 1 -16 2 -28 7 -28 11 0 4 -27 7 -60 7 -49 0 -61 -3 -66 -17 -3
-10 -14 -18 -25 -18 -14 0 -18 4 -13 13 5 8 2 7 -10 -2 -20 -17 -19 -88 1 -84
7 2 43 -4 80 -11 116 -24 311 -45 483 -52 91 -3 179 -9 195 -13 17 -4 57 -2
90 5 33 6 54 12 48 13 -7 1 -13 8 -13 17 0 13 8 15 38 10 20 -3 65 -8 100 -12
70 -7 85 -21 20 -17 -24 1 -35 0 -25 -3 21 -7 23 -24 3 -24 -8 0 -24 -12 -35
-26 l-20 -26 -7 26 c-7 29 -21 33 -50 12 -13 -10 -23 -11 -31 -4 -10 8 -13 5
-13 -10 0 -11 -8 -23 -19 -27 -22 -7 -71 10 -71 25 0 5 -9 10 -21 10 -11 0
-18 -4 -15 -9 3 -4 -6 -6 -19 -3 -15 2 -25 0 -25 -7 0 -9 -18 -10 -62 -6 -35
3 -69 7 -75 7 -7 1 -13 8 -13 17 0 13 -2 13 -9 2 -5 -7 -10 -9 -12 -3 -2 5
-15 12 -29 16 -18 5 -21 5 -10 -3 22 -15 9 -20 -30 -11 -28 6 -30 8 -10 9 19
1 21 4 11 10 -19 12 -41 3 -41 -16 0 -12 -3 -13 -15 -3 -9 8 -28 10 -55 5 -29
-5 -58 -1 -106 15 -43 15 -79 21 -105 17 -22 -3 -37 -1 -33 4 5 9 -22 13 -68
10 -14 -1 -29 3 -33 8 -3 7 3 11 14 11 14 0 21 6 20 18 0 9 -2 13 -5 7 -5 -12
-299 -8 -382 4 -29 4 -55 4 -58 -1 -3 -4 -10 -6 -16 -2 -5 3 -94 7 -196 9
-103 1 -192 3 -197 3 -13 2 -12 -22 -21 328 -7 274 -6 291 11 312 18 21 24 21
269 20 198 -1 236 -3 181 -10 -136 -17 -130 -24 21 -25 153 -1 194 -9 194 -39
0 -13 -19 -14 -130 -12 -72 2 -130 -1 -130 -5 0 -4 -9 -3 -19 3 -25 13 -71 13
-71 0 0 -5 -7 -10 -15 -10 -8 0 -15 4 -15 10 0 5 -6 7 -14 4 -8 -3 -67 -7
-133 -8 -151 -4 -143 -3 -143 -26 0 -18 7 -20 60 -20 33 0 60 -4 60 -9 0 -10
62 -7 99 5 15 4 22 4 18 -3 -4 -6 5 -15 18 -21 14 -7 25 -17 26 -24 0 -7 5 -2
11 12 l11 25 4 -23 c3 -12 9 -19 15 -16 6 4 8 -1 3 -15 -5 -16 -2 -21 11 -21
10 0 14 -3 10 -7 -4 -5 -11 -8 -15 -8 -4 0 -15 -8 -25 -17 -11 -12 -13 -18 -5
-18 7 0 9 -3 6 -6 -4 -4 -14 -1 -23 7 -14 11 -15 10 -12 -16 1 -16 9 -30 16
-33 7 -2 10 2 6 12 -8 21 6 20 21 -1 10 -13 9 -20 -3 -34 -9 -10 -19 -16 -24
-13 -4 3 -8 -7 -8 -21 0 -15 4 -24 10 -20 6 3 14 -4 19 -17 8 -18 10 -19 12
-5 3 32 4 35 12 43 10 10 9 -10 -3 -41 -8 -20 -15 -25 -30 -20 -18 6 -20 2
-20 -39 0 -25 -4 -46 -10 -46 -5 0 -7 -8 -3 -18 4 -12 0 -10 -11 5 -10 13 -23
20 -31 17 -8 -4 -15 -1 -15 5 0 6 9 11 20 11 11 0 20 5 20 10 0 6 -9 10 -20
10 -26 0 -25 8 2 29 l22 18 -32 5 c-18 2 -32 1 -32 -4 0 -5 -4 -7 -9 -4 -5 4
-7 -3 -4 -14 3 -11 0 -26 -6 -34 -9 -11 -9 -15 0 -18 9 -3 10 -14 2 -46 -10
-37 -9 -42 6 -42 9 0 22 5 28 11 8 8 13 8 17 0 14 -22 26 -11 16 14 -6 16 -6
25 0 25 6 0 10 -4 10 -10 0 -5 7 -10 15 -10 8 0 15 -9 15 -20 0 -16 -7 -20
-35 -20 -19 0 -35 -4 -35 -10 0 -5 12 -9 28 -10 91 -1 122 -4 122 -11 0 -5 10
-5 23 0 24 9 31 11 47 11 6 0 10 5 10 10 0 6 -7 10 -15 10 -8 0 -18 12 -21 28
-4 15 -12 30 -18 34 -7 5 -5 8 6 8 9 0 19 -6 21 -12 3 -7 6 -3 6 9 1 13 -2 22
-7 20 -4 -1 -7 3 -8 8 0 6 7 9 18 7 27 -5 22 17 -7 28 -14 5 -25 13 -24 17 1
5 1 10 -1 13 -7 20 -7 59 1 55 12 -8 4 112 -10 149 -9 23 -9 32 4 46 8 9 15
21 15 27 0 6 8 10 18 8 10 -1 16 -10 14 -21 -2 -16 0 -15 11 4 10 17 16 19 25
10 9 -9 16 -7 32 7 11 10 23 15 27 12 3 -4 12 -2 19 4 7 6 19 7 25 3 22 -13
123 -12 146 2 12 7 39 12 61 10 l38 -3 3 88 2 89 -318 1 c-175 1 -389 3 -475
5 -99 2 -158 0 -158 -6 0 -6 12 -11 28 -11 67 -3 -60 -18 -155 -18 l-103 -1 0
40 0 40 109 0 c96 0 110 -2 115 -17 2 -10 4 -3 3 16 -1 19 -8 36 -16 39 -8 3
-11 0 -7 -7 10 -16 -86 -15 -103 2 -11 9 -14 9 -18 0 -6 -15 -79 -17 -88 -3
-3 6 -13 10 -21 10 -8 0 -12 -5 -9 -10 5 -7 -10 -9 -42 -6 -26 2 -50 5 -53 6
-3 1 -57 3 -120 4 -112 1 -115 2 -116 24 -1 15 4 22 17 22 12 0 16 5 13 14 -4
11 -11 12 -35 3 -16 -6 -29 -16 -29 -22 0 -6 -3 -5 -8 2 -4 6 -23 13 -42 15
-31 4 -36 8 -42 39 -6 32 0 -196 7 -251 2 -14 4 -45 4 -69 l1 -43 45 5 c36 5
45 3 45 -9 0 -8 6 -14 13 -13 6 1 20 -1 31 -6 10 -4 21 -4 25 2 9 14 60 10 70
-5 6 -10 14 -9 37 3 26 14 30 13 42 -2 10 -14 16 -15 31 -6 15 9 25 9 45 0 14
-7 26 -15 26 -19 0 -5 9 -8 20 -8 11 0 20 6 20 13 0 16 35 38 52 33 7 -3 25
-7 40 -10 31 -7 71 -66 62 -90 -3 -9 -10 -16 -14 -16 -9 0 -31 -81 -24 -91 3
-5 -2 -23 -9 -41 -8 -20 -11 -42 -7 -54 4 -11 2 -36 -5 -57 -7 -20 -9 -35 -5
-32 4 3 10 -2 14 -10 3 -10 -1 -15 -12 -15 -14 -1 -13 -4 6 -19 12 -11 22 -29
22 -40 0 -19 -6 -21 -55 -21 -34 0 -55 4 -55 11 0 8 -5 8 -15 -1 -21 -18 -50
5 -32 25 7 7 16 10 21 5 10 -10 38 -2 48 14 4 6 8 80 8 164 l0 152 -27 2 c-16
0 -74 0 -130 -1 -99 -2 -102 -1 -105 21 -4 22 -5 22 -13 4 -6 -13 -5 -21 3
-24 8 -2 12 -30 12 -77 0 -41 3 -76 8 -78 4 -3 54 -8 111 -11 57 -4 106 -8
110 -10 3 -2 4 -27 3 -55 l-4 -51 -114 0 c-116 0 -127 -4 -105 -38 7 -11 11
-11 24 2 8 9 24 16 34 15 17 0 17 -1 -1 -8 -18 -7 -18 -8 -2 -14 21 -8 39 0
31 14 -4 5 6 8 22 8 17 -1 21 -3 11 -6 -10 -2 -18 -9 -18 -15 0 -5 7 -8 15 -4
8 3 14 2 14 -2 -4 -23 3 -42 14 -39 16 3 22 -50 6 -69 -8 -10 -8 -14 0 -14 6
0 9 -8 7 -17 -14 -67 -20 -83 -32 -83 -11 0 -14 19 -14 81 0 54 3 78 11 74 6
-4 5 3 -3 14 -9 15 -20 20 -33 17 -11 -3 -107 -6 -212 -6 l-193 0 0 -154 0
-154 53 -38 c28 -21 58 -44 65 -51 7 -7 19 -13 25 -13 8 0 7 -3 -2 -9 -7 -5
-22 -6 -34 -3 -15 4 -18 2 -12 -8 5 -7 -4 -5 -18 6 -15 10 -25 24 -22 31 2 7
-2 10 -9 7 -12 -5 -44 17 -106 73 -14 13 -20 23 -13 23 6 0 13 -6 16 -12 3
-10 7 -10 17 -1 9 8 7 13 -11 18 -13 4 -32 18 -42 31 -10 13 -25 24 -33 24
-14 0 -14 -2 0 -15 8 -8 20 -15 26 -15 6 0 9 -4 5 -9 -7 -13 -85 39 -85 56 0
8 5 11 10 8 6 -4 8 -11 5 -16 -4 -5 -1 -9 4 -9 6 0 11 6 11 14 0 16 -54 41
-69 31 -6 -3 -19 -1 -28 4 -15 8 -15 11 -3 12 8 1 21 1 29 0 7 -2 10 2 7 7 -8
14 -98 65 -113 65 -7 0 -10 4 -7 8 2 4 -17 22 -43 40 -27 18 -50 35 -53 38 -3
4 -58 41 -122 84 -65 43 -121 83 -124 89 -4 7 7 2 24 -11 l32 -22 0 94 c0 122
9 134 100 133 36 -1 75 -7 88 -14 22 -13 23 -17 21 -140 l-1 -127 126 -3 126
-3 0 151 0 150 -24 0 c-53 0 -30 15 26 18 33 2 83 12 112 22 64 25 70 25 63 0
-6 -24 15 -27 33 -5 7 8 9 15 5 15 -4 0 -2 7 5 15 11 13 4 15 -54 15 -37 0
-66 4 -66 10 0 5 -11 9 -25 8 -14 -1 -25 -6 -25 -10 0 -4 -25 -8 -55 -8 -51 0
-55 2 -55 24 0 13 6 27 13 29 6 3 0 6 -15 6 -24 1 -28 -3 -28 -27 0 -26 -3
-28 -40 -28 -22 0 -40 4 -40 9 0 5 -5 5 -12 -1 -8 -6 -88 -9 -208 -8 l-195 1
-1 100 c-2 134 -4 142 -19 60 l-12 -70 -2 140 c-1 111 3 156 20 220 11 44 20
85 21 91 1 7 8 10 17 9 9 -2 21 -4 28 -4 6 -1 18 -7 25 -13 19 -18 38 -21 54
-7 12 10 13 9 8 -5 -3 -9 -2 -16 4 -16 5 0 13 8 16 17 6 15 9 15 16 3 5 -8 6
-18 4 -22 -11 -17 17 -7 33 12 23 26 50 25 58 -1 4 -12 10 -17 14 -12 3 6 17
9 31 7 14 -1 28 -3 33 -3 4 -1 7 -7 7 -14 0 -8 13 -12 35 -11 19 1 37 -1 40
-6 6 -10 -39 -51 -61 -54 -14 -3 -19 -11 -18 -35 1 -17 -2 -28 -7 -25 -5 3 -9
15 -9 27 0 28 -19 61 -21 37 -1 -8 -1 -21 0 -29 2 -7 -2 -10 -8 -7 -9 6 -8
-19 3 -64 0 -3 -3 -5 -9 -5 -6 0 -11 29 -11 65 -3 104 -4 109 -15 81 -6 -16
-6 -28 1 -35 14 -14 13 -29 -2 -20 -8 5 -9 2 -5 -11 4 -9 2 -24 -4 -32 -9 -10
-9 -17 -1 -25 13 -13 16 -32 4 -24 -4 2 -7 -7 -6 -22 1 -15 2 -62 3 -104 1
-72 3 -78 22 -78 15 0 19 5 15 15 -3 9 0 15 9 15 8 0 15 -7 15 -15 0 -8 4 -15
9 -15 5 0 7 9 4 20 -3 11 0 20 6 20 6 0 11 14 11 32 0 41 15 25 24 -24 5 -28
3 -38 -6 -38 -8 0 -6 -4 4 -11 10 -5 15 -16 11 -25 -3 -9 0 -14 8 -12 9 2 14
-6 14 -19 0 -28 14 -41 25 -23 8 13 10 12 10 -2 0 -24 16 -23 23 1 3 15 -1 21
-17 24 -11 2 24 5 78 6 55 0 97 -1 94 -4 -2 -3 -17 -6 -31 -7 -38 -3 -19 -15
31 -20 37 -3 43 -1 39 13 -4 14 0 16 24 9 17 -5 29 -5 29 1 0 5 11 9 25 9 l25
0 -2 168 -3 167 -28 -2 c-15 -1 -25 2 -22 6 4 8 -33 48 -41 44 -2 -1 -11 0
-19 3 -16 6 -47 2 -77 -11 -14 -5 -18 -2 -18 15 0 11 -4 18 -10 15 -5 -3 -10
0 -10 8 0 18 71 17 93 -2 12 -9 17 -10 17 -2 0 7 5 9 10 6 9 -6 14 14 11 42
-1 7 20 11 64 12 36 0 65 -4 65 -9 0 -6 5 -10 10 -10 6 0 10 12 10 26 0 14 -4
23 -9 20 -18 -11 -53 11 -66 40 -11 27 -11 31 4 31 9 0 19 -5 24 -11 5 -8 10
-6 17 4 8 13 11 11 16 -8 5 -17 9 -20 20 -11 15 12 113 9 132 -4 8 -6 13 -42
14 -106 2 -80 2 -85 5 -29 3 54 7 66 18 61 8 -3 15 -15 16 -27 0 -11 4 -29 8
-39 7 -18 8 -18 21 -1 8 10 10 15 3 11 -6 -4 -14 -3 -17 2 -3 5 0 11 7 14 8 3
13 16 12 29 -1 12 2 28 7 35 7 8 5 18 -6 28 -9 9 -16 28 -16 43 l0 27 -16 -30
c-24 -47 -36 -54 -31 -20 2 17 9 29 15 28 6 -2 9 4 5 13 -5 12 -7 13 -14 3 -5
-9 -35 -15 -84 -16 l-75 -3 -1 27 c-3 61 0 58 -63 54 -43 -2 -57 0 -51 9 9 14
147 11 157 -4 4 -6 41 -12 83 -14 60 -3 75 -7 71 -18 -9 -24 8 -15 20 11 10
20 9 25 -5 28 -9 3 3 5 26 6 23 0 44 -3 48 -9 7 -12 116 -11 131 1 7 5 28 8
47 6 25 -3 38 0 42 11 4 11 -1 13 -25 10 -28 -4 -30 -3 -30 28 l0 33 44 -15
c34 -12 44 -20 40 -32 -2 -9 1 -6 8 8 6 14 13 27 14 28 6 9 74 -24 74 -35 0
-16 9 -16 40 2 14 8 39 14 56 15 18 0 39 8 49 20 10 11 13 20 7 20 -7 0 -12 6
-12 14 0 8 11 13 25 13 14 0 34 8 44 17 22 20 31 20 31 0 0 -14 3 -14 15 -4
12 10 13 15 4 21 -10 6 -10 11 0 23 7 9 17 14 21 11 4 -3 13 2 20 10 7 8 23
15 36 15 12 0 26 5 29 10 3 6 1 10 -5 10 -7 0 6 17 28 38 22 20 43 47 46 60 5
13 15 22 27 22 10 0 19 7 19 15 0 9 7 18 15 21 8 4 15 11 15 18 0 6 13 26 29
43 15 17 31 39 35 48 4 11 12 14 26 10 15 -5 23 0 32 19 6 14 16 26 22 26 6 0
17 9 24 20 7 11 19 20 27 20 8 0 15 6 15 13 0 6 18 28 40 47 22 19 40 41 40
48 0 6 9 12 19 12 11 0 22 9 26 19 3 11 15 23 26 26 10 4 26 21 35 38 25 50
46 70 56 55 5 -9 8 -7 8 7 0 22 32 55 53 55 7 0 19 10 27 22 21 31 47 55 100
91 31 21 41 22 33 0 -6 -14 -3 -14 19 3 14 10 24 26 23 36 -4 19 20 43 55 53
35 11 50 24 50 47 0 15 5 19 19 15 21 -5 31 9 31 46 1 21 1 21 15 3 11 -14 18
-16 27 -8 7 6 18 10 23 9 6 -1 11 8 13 21 2 12 -1 22 -7 22 -6 0 -11 -8 -11
-17 -1 -17 -1 -17 -11 0 -9 16 -121 17 -2119 17 l-2110 0 0 -825z m870 -133
c0 -47 -1 -49 -30 -49 -29 0 -30 2 -30 42 0 48 5 55 37 55 21 0 23 -4 23 -48z
m120 44 c0 -2 -7 -6 -15 -10 -8 -3 -15 -1 -15 4 0 6 7 10 15 10 8 0 15 -2 15
-4z m77 -2 c-3 -3 -12 -4 -19 -1 -8 3 -5 6 6 6 11 1 17 -2 13 -5z m201 -31
c-1 -20 4 -39 10 -41 7 -2 13 -16 13 -30 1 -24 3 -22 12 11 10 34 27 51 27 27
0 -20 26 -9 42 18 l17 27 7 -32 c3 -18 10 -31 14 -28 10 6 20 -46 20 -108 0
-34 6 -57 18 -70 16 -19 16 -20 0 -14 -16 6 -18 -1 -18 -49 l0 -56 -45 4 c-37
4 -46 2 -51 -14 -5 -18 -18 -19 -269 -16 -257 2 -264 3 -245 21 11 10 24 16
29 13 5 -3 11 1 15 9 3 8 2 14 -2 14 -39 -6 -40 -2 -37 112 2 60 5 112 7 114
2 2 36 5 76 6 40 1 75 6 78 10 3 5 -6 9 -20 9 -19 0 -24 5 -23 23 2 31 17 44
45 39 26 -5 45 -41 31 -58 -7 -8 -1 -13 19 -16 25 -4 28 -1 24 16 -3 12 -9 26
-14 33 -13 17 2 22 63 22 33 -1 60 -6 70 -15 15 -13 17 -12 23 11 4 14 12 25
19 25 8 0 7 4 -3 10 -11 7 -7 10 17 10 31 0 32 -2 31 -37z m156 -22 c-6 -6
-24 19 -24 34 1 6 7 1 15 -9 8 -11 12 -22 9 -25z m-497 -23 c-3 -8 -6 -5 -6 6
-1 11 2 17 5 13 3 -3 4 -12 1 -19z m1513 -200 c59 0 98 -5 102 -12 4 -6 13
-11 20 -11 7 0 14 -7 16 -16 3 -15 -21 -17 -255 -15 -252 1 -258 1 -255 21 2
11 6 22 9 25 7 8 163 17 218 12 28 -2 93 -4 145 -4z m260 -8 c8 -5 11 -10 5
-10 -5 0 -17 5 -25 10 -8 5 -10 10 -5 10 6 0 17 -5 25 -10z m-1024 -56 c20 2
51 0 70 -4 20 -5 34 -4 36 2 2 6 10 3 17 -6 12 -15 1 -16 -128 -16 -129 0
-141 1 -127 16 9 8 20 12 26 9 5 -3 10 -2 10 4 0 6 11 6 30 1 16 -5 46 -7 66
-6z m-518 -79 c-11 -11 -134 -16 -158 -6 -19 8 -4 10 69 10 52 1 92 -1 89 -4z
m172 -5 c0 -5 -6 -10 -14 -10 -8 0 -18 5 -21 10 -3 6 3 10 14 10 12 0 21 -4
21 -10z m592 -11 c5 -16 79 -29 100 -18 13 7 18 6 18 -3 0 -7 3 -22 6 -33 5
-21 2 -21 -293 -20 l-298 0 -1 43 -1 42 233 0 c154 0 234 -4 236 -11z m56 4
c-10 -2 -26 -2 -35 0 -10 3 -2 5 17 5 19 0 27 -2 18 -5z m-568 -48 c14 -17 13
-20 -15 -29 -27 -8 -47 7 -39 27 8 21 37 22 54 2z m-675 -5 c3 -5 -1 -10 -10
-10 -9 0 -13 5 -10 10 3 6 8 10 10 10 2 0 7 -4 10 -10z m273 -12 c6 -1 12 -5
12 -10 0 -11 158 -10 162 2 2 5 34 12 72 16 l69 7 -7 -39 c-16 -92 -15 -90
-69 -115 -58 -27 -67 -35 -67 -66 0 -19 -7 -22 -64 -28 -35 -4 -87 -5 -115 -4
-28 2 -51 1 -51 -3 0 -7 139 -13 176 -9 7 1 14 -8 17 -19 5 -20 1 -20 -203
-20 -193 0 -208 1 -206 18 2 10 15 20 32 23 l29 7 -32 1 -33 1 0 105 c0 96 2
105 21 116 12 6 35 9 52 6 20 -2 37 1 46 11 14 14 24 14 159 0z m419 -24 c-3
-3 -12 -4 -19 -1 -8 3 -5 6 6 6 11 1 17 -2 13 -5z m923 -4 c0 -5 -7 -10 -15
-10 -8 0 -15 5 -15 10 0 6 7 10 15 10 8 0 15 -4 15 -10z m-550 -30 c0 -5 -2
-10 -4 -10 -3 0 -8 5 -11 10 -3 6 -1 10 4 10 6 0 11 -4 11 -10z m38 -63 c5
-24 -15 -21 -21 4 -3 13 -1 19 6 16 7 -2 13 -11 15 -20z m247 -232 l0 -140
-72 -1 c-40 -1 -73 2 -73 7 0 5 5 9 10 9 6 0 10 4 10 9 0 4 -17 7 -37 5 -20
-1 -45 2 -54 7 -11 6 -20 5 -24 -1 -10 -16 -65 -12 -65 5 0 12 16 15 78 17
l77 2 -77 3 -78 4 0 110 0 110 153 -3 152 -3 0 -140z m180 85 c-3 -5 -24 -10
-45 -10 -21 0 -42 5 -45 10 -4 6 13 10 45 10 32 0 49 -4 45 -10z m15 -70 l0
-40 -50 0 -50 0 0 40 0 40 50 0 50 0 0 -40z m120 0 l0 -40 -55 0 -55 0 0 40 0
40 55 0 55 0 0 -40z m120 0 l0 -40 -55 0 -55 0 0 40 0 40 55 0 55 0 0 -40z
m120 0 l0 -40 -55 0 -55 0 0 40 0 40 55 0 55 0 0 -40z m-2100 -10 c4 0 10 6
13 13 3 9 17 12 40 9 l35 -4 -21 -21 c-12 -12 -25 -21 -28 -20 -3 1 -4 -8 -2
-21 6 -31 -13 -42 -36 -22 -10 9 -25 16 -33 16 -9 0 -21 7 -28 15 -9 11 -6 19
16 42 25 24 29 26 32 11 2 -10 7 -18 12 -18z m-306 -1 c-7 -12 27 -19 64 -14
22 3 30 0 26 -7 -9 -14 -94 -4 -104 12 -6 9 -9 9 -13 -1 -4 -10 -6 -9 -6 3 -1
11 6 16 18 15 11 0 18 -4 15 -8z m488 5 l38 -7 -25 -29 c-14 -16 -25 -36 -25
-45 0 -13 -9 -14 -57 -8 -32 4 -60 8 -61 10 -8 7 11 47 31 65 22 21 39 24 99
14z m-548 -16 c-3 -4 0 -8 5 -8 6 0 11 -9 11 -20 0 -12 -7 -20 -16 -20 -14 0
-14 3 -4 15 13 16 2 20 -45 17 -19 -2 -19 -1 -2 12 20 15 59 18 51 4z m196 -8
c0 -5 -8 -10 -17 -10 -15 0 -16 2 -3 10 19 12 20 12 20 0z m85 0 c3 -5 -1 -10
-9 -10 -8 0 -18 5 -21 10 -3 6 1 10 9 10 8 0 18 -4 21 -10z m345 -5 c7 -8 23
-15 36 -15 23 0 23 0 6 -30 -16 -28 -21 -30 -67 -28 -44 3 -50 6 -47 23 4 20
40 65 53 65 3 0 12 -7 19 -15z m157 -51 c-20 -30 -27 -34 -69 -34 -53 0 -59
10 -25 43 16 16 35 23 69 23 l47 2 -22 -34z m270 30 c-3 -3 -12 -4 -19 -1 -8
3 -5 6 6 6 11 1 17 -2 13 -5z m-890 -26 c-3 -8 -6 -5 -6 6 -1 11 2 17 5 13 3
-3 4 -12 1 -19z m43 1 c0 -6 -4 -7 -10 -4 -5 3 -10 11 -10 16 0 6 5 7 10 4 6
-3 10 -11 10 -16z m683 -8 c-18 -16 -29 -32 -26 -35 4 -3 -15 -6 -40 -6 -53 0
-56 6 -26 44 17 22 28 26 72 26 l51 0 -31 -29z m101 10 c19 -7 19 -8 0 -15
-10 -5 -36 -10 -57 -11 -38 -3 -38 -3 -21 16 18 20 45 23 78 10z m1177 -30 c6
10 9 4 9 -17 0 -28 -2 -30 -30 -26 -25 4 -30 9 -30 31 0 15 6 33 12 39 10 10
15 7 22 -14 6 -20 11 -23 17 -13z m117 25 c22 -8 42 -13 44 -10 13 12 55 9 65
-5 9 -11 12 -12 13 -3 0 7 5 10 10 7 6 -3 10 -1 10 6 0 7 3 9 7 6 3 -4 12 -2
19 4 14 12 38 3 29 -11 -3 -5 4 -11 15 -15 18 -6 18 -8 5 -21 -8 -9 -19 -12
-25 -9 -5 3 -10 1 -10 -5 0 -7 -7 -10 -15 -6 -8 3 -15 1 -15 -3 0 -5 6 -12 13
-14 6 -3 -30 -6 -80 -6 l-93 -1 -1 28 -2 27 -4 -27 c-2 -16 -8 -28 -12 -28 -4
0 -12 12 -19 28 l-12 27 4 -27 c2 -16 -1 -28 -5 -28 -13 0 -11 58 3 80 7 11
13 20 14 20 1 0 20 -6 42 -14z m1322 4 c0 -5 -5 -10 -11 -10 -5 0 -7 5 -4 10
3 6 8 10 11 10 2 0 4 -4 4 -10z m-24 -23 c-1 -7 -1 -9 1 -4 3 4 14 7 26 7 17
0 19 -2 8 -9 -7 -5 -11 -14 -7 -20 5 -7 1 -9 -9 -5 -12 5 -16 2 -13 -11 2 -10
-3 -20 -9 -22 -7 -3 -13 0 -13 7 0 6 -4 8 -10 5 -5 -3 -10 1 -10 10 0 9 5 13
10 10 6 -4 10 7 10 25 0 17 4 29 10 25 5 -3 8 -11 6 -18z m-2499 7 c-3 -3 -12
-4 -19 -1 -8 3 -5 6 6 6 11 1 17 -2 13 -5z m1123 -36 c-1 -30 -3 -38 -9 -28
-8 14 -4 70 5 70 2 0 4 -19 4 -42z m-123 -20 c-3 -7 -5 -2 -5 12 0 14 2 19 5
13 2 -7 2 -19 0 -25z m-1474 -18 c-3 -11 -9 -20 -15 -20 -5 0 -3 -6 4 -14 7
-8 16 -12 19 -10 3 2 6 -3 6 -9 0 -7 -10 -13 -22 -12 -38 0 -76 45 -39 45 8 0
13 4 9 9 -3 6 3 14 12 20 26 15 32 13 26 -9z m22 -21 c-10 -15 -25 -10 -19 6
4 8 10 12 15 9 5 -3 7 -10 4 -15z m2920 11 c-3 -5 -26 -10 -51 -10 -28 0 -43
4 -39 10 3 6 26 10 51 10 28 0 43 -4 39 -10z m401 -17 c-7 -7 -26 7 -26 19 0
6 6 6 15 -2 9 -7 13 -15 11 -17z m-2 -49 c5 -14 4 -15 -9 -4 -17 14 -19 20 -6
20 5 0 12 -7 15 -16z m566 6 c0 -5 -4 -10 -9 -10 -6 0 -13 5 -16 10 -3 6 1 10
9 10 9 0 16 -4 16 -10z m-700 -31 c0 -11 -56 -10 -75 0 -11 6 55 19 68 13 4
-2 7 -8 7 -13z m103 14 c-7 -2 -19 -2 -25 0 -7 3 -2 5 12 5 14 0 19 -2 13 -5z
m757 -3 c0 -5 -4 -10 -10 -10 -5 0 -10 5 -10 10 0 6 5 10 10 10 6 0 10 -4 10
-10z m-650 -31 c0 -5 -4 -9 -10 -9 -5 0 -10 7 -10 16 0 8 5 12 10 9 6 -3 10
-10 10 -16z m1577 15 c-3 -3 -12 -4 -19 -1 -8 3 -5 6 6 6 11 1 17 -2 13 -5z
m-1629 -33 c3 -20 0 -23 -17 -18 -28 7 -27 -9 2 -18 l22 -8 -22 -4 c-13 -2
-23 -9 -23 -14 0 -5 10 -10 23 -10 l22 -2 -23 -4 c-14 -3 -22 -10 -19 -17 3
-7 1 -19 -4 -27 -5 -9 -9 17 -9 69 0 81 1 83 23 80 14 -2 23 -11 25 -27z
m-223 9 c4 -6 4 -18 1 -27 -5 -11 -10 -13 -20 -4 -7 6 -15 9 -17 6 -3 -2 -5 5
-5 15 0 21 30 28 41 10z m93 -11 c-16 -11 -48 -12 -48 -1 0 4 14 7 31 8 20 1
26 -2 17 -7z m1784 -21 c-7 -7 -12 -43 -12 -92 0 -101 -7 -95 -13 11 -4 84 -5
82 33 92 2 0 -1 -4 -8 -11z m330 -23 c-2 -19 -8 -35 -13 -35 -14 0 -11 58 4
63 6 3 12 6 12 6 1 1 -1 -15 -3 -34z m89 -15 c-5 -37 -8 -41 -13 -21 -6 21 7
79 16 70 2 -2 1 -24 -3 -49z m-349 10 c-2 -16 -5 -30 -7 -30 -2 0 -5 14 -7 30
-3 19 0 30 7 30 7 0 10 -11 7 -30z m80 -17 c-5 -83 -9 -90 -11 -20 0 37 2 67
7 67 4 0 6 -21 4 -47z m88 -55 c0 -56 -2 -99 -4 -97 -9 9 -13 199 -5 199 5 0
9 -46 9 -102z m-1415 82 c3 -5 1 -10 -4 -10 -6 0 -11 5 -11 10 0 6 2 10 4 10
3 0 8 -4 11 -10z m45 0 c0 -5 -4 -10 -10 -10 -5 0 -10 5 -10 10 0 6 5 10 10
10 6 0 10 -4 10 -10z m43 -10 c-3 -11 -7 -20 -8 -20 -1 0 -5 9 -8 20 -3 12 0
20 8 20 8 0 11 -8 8 -20z m52 11 c3 -5 1 -12 -5 -16 -5 -3 -10 1 -10 9 0 18 6
21 15 7z m44 2 c0 -5 -4 -17 -9 -28 -8 -18 -9 -17 -9 8 -1 15 4 27 9 27 6 0
10 -3 9 -7z m50 0 c0 -5 -4 -17 -9 -28 -8 -18 -9 -17 -9 8 -1 15 4 27 9 27 6
0 10 -3 9 -7z m43 -15 c-7 -7 -12 -8 -12 -2 0 14 12 26 19 19 2 -3 -1 -11 -7
-17z m55 0 c2 -18 0 -20 -7 -8 -12 18 -13 30 -2 30 4 0 9 -10 9 -22z m71 2 c3
-7 0 -10 -6 -6 -6 3 -13 0 -15 -6 -3 -7 -6 -2 -6 10 -1 25 19 26 27 2z m32
-20 c-5 -22 -8 -27 -9 -13 -1 21 9 56 14 51 2 -2 0 -19 -5 -38z m243 25 c-3
-9 -8 -14 -10 -11 -3 3 -2 9 2 15 9 16 15 13 8 -4z m57 -25 c0 -22 -2 -40 -4
-40 -2 0 -6 18 -8 40 -2 22 0 40 4 40 5 0 8 -18 8 -40z m67 -42 c-2 -18 -4 -6
-4 27 0 33 2 48 4 33 2 -15 2 -42 0 -60z m66 62 c-3 -11 -7 -20 -9 -20 -2 0
-4 9 -4 20 0 11 4 20 9 20 5 0 7 -9 4 -20z m76 13 c0 -5 -4 -17 -9 -28 -8 -18
-9 -17 -9 8 -1 15 4 27 9 27 6 0 10 -3 9 -7z m-2189 -18 c0 -8 -4 -15 -10 -15
-5 0 -10 7 -10 15 0 8 5 15 10 15 6 0 10 -7 10 -15z m640 5 c13 -9 12 -12 -5
-25 -18 -14 -20 -14 -27 2 -3 10 -7 14 -7 9 -1 -5 -7 -4 -13 1 -7 5 -26 10
-42 11 -54 4 -40 12 20 12 32 0 66 -5 74 -10z m557 -27 c-3 -10 -5 -4 -5 12 0
17 2 24 5 18 2 -7 2 -21 0 -30z m1063 27 c0 -5 -2 -10 -4 -10 -3 0 -8 5 -11
10 -3 6 -1 10 4 10 6 0 11 -4 11 -10z m67 -22 c-3 -7 -5 -2 -5 12 0 14 2 19 5
13 2 -7 2 -19 0 -25z m-40 -15 c-3 -10 -5 -4 -5 12 0 17 2 24 5 18 2 -7 2 -21
0 -30z m-3107 7 c0 -5 -4 -10 -10 -10 -5 0 -10 5 -10 10 0 6 5 10 10 10 6 0
10 -4 10 -10z m3077 -12 c-3 -8 -6 -5 -6 6 -1 11 2 17 5 13 3 -3 4 -12 1 -19z
m-1370 -10 c-3 -8 -6 -5 -6 6 -1 11 2 17 5 13 3 -3 4 -12 1 -19z m270 -10 c-3
-7 -5 -2 -5 12 0 14 2 19 5 13 2 -7 2 -19 0 -25z m470 -5 c-3 -10 -5 -4 -5 12
0 17 2 24 5 18 2 -7 2 -21 0 -30z m230 0 c-3 -10 -5 -4 -5 12 0 17 2 24 5 18
2 -7 2 -21 0 -30z m893 -8 c0 -19 -2 -35 -4 -35 -2 0 -6 16 -8 35 -2 19 0 35
4 35 4 0 8 -16 8 -35z m-3540 9 c0 -2 -9 -4 -20 -4 -11 0 -20 4 -20 9 0 5 9 7
20 4 11 -3 20 -7 20 -9z m1425 6 c3 -5 -1 -10 -10 -10 -9 0 -13 5 -10 10 3 6
8 10 10 10 2 0 7 -4 10 -10z m1012 -12 c-3 -8 -6 -5 -6 6 -1 11 2 17 5 13 3
-3 4 -12 1 -19z m38 2 c3 -5 1 -10 -4 -10 -6 0 -11 5 -11 10 0 6 2 10 4 10 3
0 8 -4 11 -10z m112 -12 c-3 -8 -6 -5 -6 6 -1 11 2 17 5 13 3 -3 4 -12 1 -19z
m420 -40 c-2 -13 -4 -3 -4 22 0 25 2 35 4 23 2 -13 2 -33 0 -45z m620 25 c-3
-10 -5 -4 -5 12 0 17 2 24 5 18 2 -7 2 -21 0 -30z m-860 -20 c-3 -10 -5 -2 -5
17 0 19 2 27 5 18 2 -10 2 -26 0 -35z m510 -20 c-2 -16 -4 -5 -4 22 0 28 2 40
4 28 2 -13 2 -35 0 -50z m-1812 35 c6 -4 2 -8 -7 -8 -10 0 -18 7 -18 17 0 9 3
12 8 7 4 -5 12 -12 17 -16z m952 -25 c-3 -10 -5 -4 -5 12 0 17 2 24 5 18 2 -7
2 -21 0 -30z m-1617 17 c0 -5 -5 -10 -11 -10 -5 0 -7 -6 -3 -12 5 -10 4 -10
-6 -1 -7 6 -9 16 -6 22 9 14 26 14 26 1z m830 -4 c0 -7 -6 -19 -14 -26 -8 -6
-12 -19 -9 -28 5 -14 4 -14 -8 1 -17 21 -51 13 -47 -11 2 -8 -3 -17 -10 -19
-8 -3 -10 1 -5 13 4 12 3 15 -5 10 -7 -4 -12 -2 -12 3 0 6 5 11 10 11 6 0 10
5 10 11 0 5 -5 7 -12 3 -7 -4 -8 -3 -4 5 4 6 12 9 17 6 5 -3 19 3 31 14 25 24
58 28 58 7z m837 -8 c-3 -8 -6 -5 -6 6 -1 11 2 17 5 13 3 -3 4 -12 1 -19z
m-4227 -3 c-7 -9 -15 -13 -17 -11 -7 7 7 26 19 26 6 0 6 -6 -2 -15z m3093 -35
c-4 -15 -8 -16 -18 -7 -8 8 -9 14 -3 18 6 4 7 13 2 20 -6 12 -5 12 8 1 9 -7
14 -21 11 -32z m124 23 c-4 -3 0 -15 10 -25 20 -22 11 -24 -11 -2 -15 14 -14
34 1 34 4 0 3 -3 0 -7z m293 -3 c0 -5 -7 -10 -15 -10 -8 0 -15 5 -15 10 0 6 7
10 15 10 8 0 15 -4 15 -10z m87 -4 c0 -8 -8 -11 -19 -8 -10 2 -18 8 -18 13 0
5 8 9 18 9 10 0 19 -6 19 -14z m63 -11 c0 -3 -11 -5 -25 -5 -17 0 -23 4 -19
15 5 11 11 12 25 4 10 -5 19 -12 19 -14z m50 5 c0 -5 -9 -10 -20 -10 -11 0
-20 5 -20 10 0 6 9 10 20 10 11 0 20 -4 20 -10z m60 0 c0 -5 -9 -10 -20 -10
-11 0 -20 5 -20 10 0 6 9 10 20 10 11 0 20 -4 20 -10z m102 -2 c3 -7 9 -8 19
-2 17 11 59 13 53 2 -3 -4 9 -5 27 -1 21 4 34 2 40 -8 6 -11 11 -11 21 -1 16
16 36 15 52 -1 10 -10 -11 -12 -108 -9 -129 3 -146 6 -146 22 0 14 37 13 42
-2z m745 6 c-3 -3 -12 -4 -19 -1 -8 3 -5 6 6 6 11 1 17 -2 13 -5z m510 -9 c0
-8 -4 -15 -9 -15 -4 0 -8 7 -8 15 0 8 4 15 8 15 5 0 9 -7 9 -15z m-5220 -31
c-9 -9 -27 6 -27 22 0 13 2 13 16 -1 9 -9 14 -18 11 -21z m2603 26 c0 -5 -7
-10 -15 -10 -8 0 -15 5 -15 10 0 6 7 10 15 10 8 0 15 -4 15 -10z m50 -16 c0
-17 -26 -19 -36 -2 -4 7 -3 8 4 4 7 -4 12 -1 12 9 0 9 5 13 10 10 6 -3 10 -13
10 -21z m1576 6 c8 0 14 5 14 10 0 6 15 10 33 10 24 0 28 -3 17 -10 -12 -8
-11 -10 6 -10 11 0 24 3 28 7 12 12 46 10 46 -4 0 -10 -21 -13 -85 -13 -75 0
-85 2 -84 18 0 10 3 12 6 5 2 -7 11 -13 19 -13z m224 0 c0 -15 30 -12 31 3 0
10 2 10 6 0 5 -15 43 -18 43 -4 0 5 13 9 30 9 16 -1 27 -5 24 -10 -3 -4 4 -8
16 -8 12 0 19 4 16 8 -2 4 11 9 30 10 23 2 33 -1 29 -8 -9 -15 24 -25 38 -11
14 14 57 15 57 1 0 -14 37 -12 44 3 5 10 7 10 12 0 3 -7 15 -13 25 -13 11 0
17 5 14 10 -4 6 14 10 47 9 29 0 46 -3 38 -6 -8 -3 -18 -10 -21 -15 -6 -9
-153 -11 -229 -4 -19 2 -88 5 -153 6 -127 2 -160 7 -151 21 7 12 54 11 54 -1z
m588 -20 c2 -6 15 -10 28 -10 14 0 22 4 19 10 -4 6 37 9 117 8 68 0 108 -3 90
-5 -20 -3 -30 -8 -26 -15 5 -7 2 -8 -6 -3 -7 5 -36 10 -64 12 -50 3 -50 3 -26
-13 14 -8 17 -13 8 -10 -10 3 -69 6 -130 7 -62 2 -105 4 -95 6 9 3 17 10 17
17 0 16 63 12 68 -4z m-4958 0 c0 -6 -9 -20 -19 -32 l-20 -21 4 29 c2 16 4 30
4 32 3 8 31 0 31 -8z m2513 -1 c7 -7 11 -30 8 -55 -3 -40 11 -62 21 -32 3 8 6
7 10 -3 4 -11 -3 -16 -31 -18 -29 -1 -33 1 -23 11 16 16 15 33 -2 51 -9 8 -12
24 -9 36 6 24 9 25 26 10z m2773 -19 c13 0 24 5 24 10 0 6 20 10 45 10 38 0
45 -3 45 -20 0 -22 -15 -27 -24 -7 -5 9 -7 9 -12 0 -4 -10 -26 -11 -82 -7 -77
6 -109 14 -59 14 15 0 27 6 28 13 0 10 2 10 6 0 2 -7 16 -13 29 -13z m-5464
-22 c-6 -6 -15 -9 -18 -5 -4 3 -4 14 0 23 5 13 9 15 18 6 9 -9 9 -15 0 -24z
m2748 20 c0 -4 -7 -8 -15 -8 -8 0 -15 4 -15 8 0 5 7 9 15 9 8 0 15 -4 15 -9z
m-2516 -7 c7 -10 -18 -34 -27 -25 -7 8 3 34 13 34 5 0 11 -4 14 -9z m-154 -5
c0 -11 -19 -15 -25 -6 -3 5 1 10 9 10 9 0 16 -2 16 -4z m40 -6 c0 -5 -5 -10
-11 -10 -5 0 -7 5 -4 10 3 6 8 10 11 10 2 0 4 -4 4 -10z m155 0 c3 -5 1 -10
-4 -10 -6 0 -11 5 -11 10 0 6 2 10 4 10 3 0 8 -4 11 -10z m2310 -20 c3 -5 1
-10 -4 -10 -6 0 -11 5 -11 10 0 6 2 10 4 10 3 0 8 -4 11 -10z m3000 0 c3 -5 1
-10 -4 -10 -6 0 -11 5 -11 10 0 6 2 10 4 10 3 0 8 -4 11 -10z m-5400 -29 c-3
-6 -11 -11 -16 -11 -5 0 -4 6 3 14 14 16 24 13 13 -3z m3755 -35 c107 -8 251
-17 320 -20 143 -6 210 -15 210 -28 0 -5 -15 -7 -32 -4 -18 3 -105 10 -193 17
-88 6 -199 14 -247 18 -52 4 -88 3 -88 -2 0 -5 -6 -5 -12 1 -7 5 -64 13 -125
17 -63 4 -113 12 -113 17 0 6 17 8 43 4 23 -3 130 -12 237 -20z m-3435 -16 c3
-5 -7 -12 -22 -16 -15 -4 -34 -12 -42 -18 -11 -8 -13 -8 -7 2 8 13 3 14 -64
13 -42 -1 -44 0 -26 14 22 17 151 21 161 5z m1919 -64 c3 -12 6 -44 6 -72 0
-63 2 -64 125 -64 l93 0 -6 -45 c-3 -34 -1 -46 10 -50 12 -5 14 -15 7 -53 -14
-73 -29 -76 -29 -5 0 67 -5 73 -60 62 l-35 -6 38 -2 37 -1 -1 -57 -2 -58 -6
47 c-9 64 -21 72 -21 14 0 -64 -14 -90 -46 -82 -14 4 -24 2 -24 -4 0 -5 -7
-10 -15 -10 -8 0 -15 7 -15 15 0 12 -15 15 -77 15 -54 0 -73 -3 -63 -10 8 -5
23 -10 33 -10 9 0 17 -4 17 -10 0 -17 -20 -12 -74 19 -28 16 -63 31 -78 35
-25 6 -28 11 -28 45 0 36 3 40 36 51 66 22 16 30 -197 30 l-205 0 2 71 c2 68
12 107 16 58 1 -13 3 -33 4 -44 1 -11 2 -25 3 -31 1 -6 18 -10 39 -9 20 1 47
-2 60 -7 13 -4 21 -4 18 1 -3 5 1 11 9 15 8 3 14 13 13 23 0 10 0 31 0 46 3
41 22 23 23 -21 1 -20 3 -29 6 -19 2 9 8 15 13 12 14 -9 43 43 37 66 -3 13 -1
19 6 16 7 -2 14 -17 16 -33 3 -25 4 -26 11 -9 4 11 16 20 26 20 12 0 20 8 22
22 2 14 8 20 17 17 8 -3 20 4 27 15 7 12 19 21 26 21 7 0 11 3 9 8 -3 4 35 3
83 -2 77 -8 89 -12 94 -30z m2269 28 c47 -6 66 -24 25 -24 -56 0 -228 25 -228
33 0 8 85 4 203 -9z m214 -14 c172 -14 193 -18 193 -35 0 -8 -7 -15 -16 -15
-8 0 -12 5 -9 10 5 8 -16 9 -64 5 -46 -3 -71 -2 -71 5 0 7 -22 8 -64 4 -42 -4
-66 -3 -70 5 -4 6 -16 11 -27 11 -10 0 -19 5 -19 10 0 12 -8 12 147 0z m-1722
-28 c-3 -3 -11 0 -18 7 -9 10 -8 11 6 5 10 -3 15 -9 12 -12z m1258 12 c6 -6
-16 -34 -27 -34 -3 0 -10 9 -16 20 -9 17 -8 20 13 20 13 0 26 -3 30 -6z m752
-3 c19 -4 25 -8 15 -12 -8 -3 -33 0 -55 7 -29 9 -33 12 -15 12 14 0 39 -3 55
-7z m-715 -22 c0 -11 -4 -18 -10 -14 -5 3 -7 12 -3 20 7 21 13 19 13 -6z m70
4 c0 -15 2 -16 10 -3 6 10 10 11 10 3 0 -7 9 -13 19 -13 11 0 23 -5 27 -12 5
-8 -3 -9 -32 -4 -21 4 -45 8 -51 8 -18 2 -16 38 2 38 8 0 15 -8 15 -17z m-250
-25 c3 -4 29 -8 57 -9 29 -1 52 -5 51 -8 -2 -19 5 -20 30 -7 32 17 51 9 49
-19 -1 -14 5 -20 21 -21 27 -2 38 12 22 30 -9 12 -4 12 30 4 35 -9 40 -14 40
-39 0 -26 -4 -29 -32 -30 -18 -1 -39 -1 -45 0 -7 1 -13 -5 -13 -13 0 -21 -19
-31 -33 -17 -9 9 -8 14 3 22 11 8 2 9 -32 6 -26 -2 -50 -2 -53 1 -3 3 -18 6
-33 7 -24 0 -27 3 -27 38 0 41 -4 43 -44 23 -25 -13 -29 -13 -44 5 -15 17 -15
19 -1 19 8 0 12 5 8 11 -7 12 37 9 46 -3z m-4776 -14 c3 -8 2 -12 -4 -9 -6 3
-10 10 -10 16 0 14 7 11 14 -7z m5215 0 c2 -2 -10 -4 -27 -4 -18 0 -32 5 -32
10 0 9 47 4 59 -6z m-2082 -26 c-3 -7 -5 -2 -5 12 0 14 2 19 5 13 2 -7 2 -19
0 -25z m-3074 15 c-7 -2 -21 -2 -30 0 -10 3 -4 5 12 5 17 0 24 -2 18 -5z
m5584 1 c-3 -3 -12 -4 -19 -1 -8 3 -5 6 6 6 11 1 17 -2 13 -5z m262 -12 l104
-7 2 -33 c2 -24 -2 -35 -14 -40 -9 -3 -19 -10 -23 -15 -4 -6 -13 -4 -23 6 -19
20 -51 22 -59 5 -5 -10 -7 -10 -12 0 -3 6 -13 12 -22 12 -15 0 -15 2 -2 11 12
8 12 9 -5 7 -11 -1 -26 2 -34 6 -11 7 -13 5 -7 -10 5 -15 4 -16 -5 -7 -6 6
-19 9 -28 6 -12 -4 -11 -1 4 11 17 15 17 17 3 12 -21 -6 -23 5 -6 22 9 9 7 12
-10 12 -18 0 -22 -6 -22 -29 0 -35 -8 -42 -38 -34 -16 4 -22 13 -22 32 0 15
-5 32 -11 38 -9 9 6 10 57 7 38 -3 116 -8 173 -12z m-2622 -14 c-3 -8 -6 -5
-6 6 -1 11 2 17 5 13 3 -3 4 -12 1 -19z m1841 5 c2 -8 -5 -13 -17 -13 -12 0
-21 6 -21 16 0 18 31 15 38 -3z m102 0 c-8 -3 -18 -10 -21 -16 -4 -6 -16 -3
-30 7 -23 16 -23 16 21 15 25 0 38 -3 30 -6z m55 -4 c11 -17 2 -18 -19 -3 -17
12 -17 14 -4 14 9 0 20 -5 23 -11z m90 -9 c3 -5 -1 -10 -9 -10 -9 0 -16 5 -16
10 0 6 4 10 9 10 6 0 13 -4 16 -10z m-4100 -37 c3 -9 0 -20 -7 -25 -13 -7 -11
-9 15 -12 6 -1 11 -7 10 -13 -1 -6 7 -19 18 -29 19 -17 20 -17 13 2 -4 10 -14
27 -22 37 -8 9 -12 20 -9 24 9 8 35 -25 43 -54 7 -26 24 -31 24 -7 0 12 5 10
20 -9 19 -24 26 -25 94 -24 41 1 72 -1 70 -5 -3 -4 6 -12 18 -19 12 -7 31 -23
42 -37 11 -13 60 -44 110 -68 50 -24 85 -43 79 -44 -18 0 -16 -20 2 -20 8 0
22 -9 32 -19 10 -10 27 -21 38 -24 14 -3 11 -5 -10 -6 l-29 -1 24 -17 c14 -9
31 -23 38 -30 7 -7 27 -13 43 -13 19 0 29 -5 29 -15 0 -8 9 -15 20 -15 14 0
18 -5 13 -17 -5 -13 -3 -15 12 -9 11 4 16 4 12 0 -4 -4 5 -20 20 -36 27 -28
18 -37 -18 -17 -11 5 -17 14 -14 20 4 5 -1 9 -9 9 -9 0 -16 5 -16 10 0 6 -7
10 -15 10 -9 0 -18 6 -21 14 -3 8 -28 24 -56 36 -32 14 -48 26 -45 35 4 9 -9
17 -39 24 -25 6 -42 16 -39 21 4 6 -7 10 -25 10 -23 0 -33 5 -37 19 -3 10 -14
23 -26 29 -12 6 -16 11 -9 11 7 1 10 6 6 12 -3 6 5 3 20 -6 15 -10 30 -15 33
-11 11 11 -30 34 -81 47 -33 8 -44 14 -35 20 11 7 11 9 1 9 -7 0 -25 9 -40 20
-31 23 -62 18 -62 -10 0 -9 10 -22 23 -29 14 -7 15 -10 3 -6 -13 4 -17 1 -12
-10 7 -20 -18 -20 -34 0 -7 8 -20 15 -29 15 -13 -1 -13 -3 4 -16 11 -9 35 -23
54 -31 18 -8 31 -17 28 -20 -4 -3 -14 -2 -24 3 -10 4 -27 8 -38 10 -11 1 -24
9 -30 19 -5 10 -20 33 -32 52 -13 18 -23 40 -23 48 0 8 -4 15 -10 15 -15 0
-12 -22 9 -62 11 -19 17 -39 14 -42 -4 -3 0 -6 8 -6 10 -1 8 -5 -6 -16 -20
-16 -20 -16 3 -9 21 6 22 5 10 -14 -8 -13 -16 -17 -22 -11 -13 13 -26 13 -26
1 0 -5 14 -12 31 -16 17 -4 33 -14 36 -22 4 -10 8 -11 13 -4 4 7 11 1 19 -15
11 -24 10 -26 -3 -14 -11 8 -16 9 -16 1 0 -6 -5 -11 -11 -11 -5 0 -7 5 -4 10
3 6 2 10 -4 10 -5 0 -12 -4 -16 -9 -7 -12 32 -34 45 -26 6 3 10 1 10 -5 0 -8
-9 -10 -27 -5 -23 5 -26 4 -16 -6 10 -10 10 -16 -3 -30 -10 -11 -12 -19 -5
-24 6 -3 11 -14 11 -23 -1 -11 -6 -7 -16 12 -9 15 -13 37 -11 48 3 11 3 17 0
14 -8 -8 -32 25 -33 44 0 8 -9 32 -20 53 -11 20 -20 42 -20 48 0 6 8 8 20 4
11 -4 20 -2 20 4 0 6 -9 11 -21 11 -11 0 -17 5 -14 10 3 6 2 10 -3 10 -9 0
-35 54 -47 98 -5 17 -2 22 12 22 13 1 11 5 -10 16 -16 8 -26 21 -24 27 2 7 -2
17 -9 22 -7 6 -15 25 -19 42 -5 27 -4 32 8 27 9 -3 18 -13 22 -21z m702 -30
c-3 -10 -5 -4 -5 12 0 17 2 24 5 18 2 -7 2 -21 0 -30z m3280 31 c-3 -3 -12 -4
-19 -1 -8 3 -5 6 6 6 11 1 17 -2 13 -5z m-3085 -18 c8 5 9 -3 5 -25 -4 -18 -3
-30 2 -27 17 11 102 -23 122 -48 11 -15 25 -23 31 -20 6 4 5 10 -3 16 -10 7
-8 8 6 3 11 -4 42 -9 69 -11 31 -3 54 -11 62 -22 7 -9 14 -14 15 -9 1 4 3 12
4 17 1 6 3 21 4 35 1 24 4 26 41 23 l40 -2 0 -63 c0 -60 -1 -63 -27 -69 -47
-10 -49 -12 -14 -13 26 -1 32 -4 27 -17 -3 -9 -6 -20 -6 -25 0 -5 -16 -9 -36
-9 -19 0 -33 4 -29 9 3 5 1 12 -5 16 -5 3 -10 -3 -10 -14 0 -14 -6 -20 -17
-19 -34 3 -53 -2 -53 -13 0 -7 10 -9 25 -5 14 4 25 2 25 -4 0 -6 -39 -10 -101
-10 -89 0 -100 -2 -89 -15 9 -11 9 -15 1 -15 -7 0 -9 -4 -6 -10 9 -14 -6 -12
-35 6 l-25 15 28 -6 c26 -5 27 -4 15 15 -7 11 -19 18 -25 15 -7 -2 -13 0 -13
6 0 6 -8 8 -18 5 -12 -4 -25 1 -36 13 -17 19 -17 19 6 14 17 -3 19 -2 9 5 -7
5 -10 15 -6 22 5 8 1 8 -13 -1 -17 -10 -23 -10 -36 0 -9 8 -16 18 -16 23 0 5
7 2 16 -6 28 -28 34 -17 34 57 0 81 11 188 18 169 2 -6 9 -9 14 -6z m3177 0
c7 -6 19 -11 25 -11 6 -1 30 -6 54 -13 23 -7 47 -10 52 -7 6 4 9 1 8 -6 -2 -8
12 -15 35 -19 21 -4 43 -12 50 -19 14 -14 30 -15 22 -1 -3 6 1 10 9 10 9 0 16
-5 16 -11 0 -7 9 -9 23 -5 17 4 24 1 24 -10 0 -13 -8 -15 -45 -10 -25 3 -68 7
-96 7 -43 1 -46 2 -21 9 25 6 27 8 12 15 -10 4 -29 3 -43 -4 -28 -12 -103 -15
-120 -3 -17 11 -24 40 -11 45 18 6 4 17 -25 19 -14 1 -24 7 -21 13 5 15 34 15
52 1z m-153 -12 c-9 -8 -26 -10 -56 -4 -32 6 -50 4 -65 -6 -19 -12 -21 -12
-22 6 -2 17 5 19 77 18 61 -1 75 -4 66 -14z m574 6 c0 -5 -4 -10 -10 -10 -5 0
-10 5 -10 10 0 6 5 10 10 10 6 0 10 -4 10 -10z m-200 -20 c0 -5 -5 -10 -11
-10 -5 0 -7 5 -4 10 3 6 8 10 11 10 2 0 4 -4 4 -10z m-417 -10 c15 0 27 -4 27
-9 0 -4 -19 -5 -42 -1 -23 5 -48 5 -56 2 -11 -4 -13 -1 -8 7 5 7 17 10 30 7
11 -3 33 -6 49 -6z m127 -12 c0 -13 -23 -5 -28 10 -2 7 2 10 12 6 9 -3 16 -11
16 -16z m-3303 -20 c-3 -7 -5 -2 -5 12 0 14 2 19 5 13 2 -7 2 -19 0 -25z m693
-98 c0 -55 -4 -100 -8 -100 -4 0 -6 16 -4 35 5 40 -9 45 -46 19 l-22 -15 0 71
c0 44 4 69 10 65 5 -3 22 1 37 9 16 8 29 15 31 16 1 0 2 -45 2 -100z m3082 66
c13 -19 9 -24 -12 -19 -11 3 -20 9 -20 14 0 5 -7 9 -15 9 -8 0 -15 4 -15 9 0
11 53 1 62 -13z m116 -3 c2 -7 -3 -13 -12 -13 -30 0 -16 -19 17 -23 18 -3 10
-4 -18 -3 -39 1 -51 5 -53 19 -2 10 3 17 12 17 9 0 16 5 16 11 0 14 32 7 38
-8z m-4178 -7 c0 -3 -4 -8 -10 -11 -5 -3 -10 -1 -10 4 0 6 5 11 10 11 6 0 10
-2 10 -4z m4293 -3 c11 -19 -10 -38 -43 -40 -19 0 -27 1 -17 4 9 2 17 11 17
18 0 7 -8 16 -17 18 -10 3 -1 5 19 6 20 0 39 -2 41 -6z m-4233 -59 c0 -2 -9 0
-20 6 -11 6 -20 13 -20 16 0 2 9 0 20 -6 11 -6 20 -13 20 -16z m4267 20 c-3
-3 -12 -4 -19 -1 -8 3 -5 6 6 6 11 1 17 -2 13 -5z m46 -1 c-7 -2 -19 -2 -25 0
-7 3 -2 5 12 5 14 0 19 -2 13 -5z m-4834 -65 c-1 -31 -1 -31 -8 -8 -5 14 -6
28 -4 33 9 15 13 6 12 -25z m848 -12 c-3 -8 -2 -17 4 -20 5 -2 4 -3 -3 -2 -17
3 -23 36 -8 36 7 0 10 -6 7 -14z m-456 -55 c46 -44 48 -48 23 -43 -19 3 -25 1
-20 -7 5 -8 -1 -7 -20 1 -21 10 -24 14 -11 16 18 4 24 32 6 32 -5 0 -7 -4 -4
-10 3 -6 -1 -7 -10 -3 -13 4 -14 8 -4 14 15 9 15 8 -21 32 -19 13 -21 17 -7
17 9 0 40 -22 68 -49z m1279 39 c0 -5 -2 -10 -4 -10 -3 0 -8 5 -11 10 -3 6 -1
10 4 10 6 0 11 -4 11 -10z m-1350 -151 c0 -8 5 -20 12 -27 9 -9 9 -12 0 -12
-16 0 -48 66 -56 115 l-6 40 25 -50 c13 -27 24 -57 25 -66z m630 69 c0 -5 -4
-8 -10 -8 -5 0 -10 5 -10 10 0 6 -6 10 -14 10 -8 0 -16 6 -19 14 -5 11 0 11
24 -2 16 -9 29 -20 29 -24z m1560 38 c0 -2 -7 -9 -15 -16 -13 -11 -14 -10 -9
4 5 14 24 23 24 12z m60 0 c0 -3 -4 -8 -10 -11 -5 -3 -10 -1 -10 4 0 6 5 11
10 11 6 0 10 -2 10 -4z m-735 -26 c3 -5 1 -10 -4 -10 -6 0 -11 5 -11 10 0 6 2
10 4 10 3 0 8 -4 11 -10z m56 -27 c13 -16 12 -17 -3 -4 -17 13 -22 21 -14 21
2 0 10 -8 17 -17z m-1981 -3 c0 -5 -2 -10 -4 -10 -3 0 -8 5 -11 10 -3 6 -1 10
4 10 6 0 11 -4 11 -10z m67 4 c-3 -3 -12 -4 -19 -1 -8 3 -5 6 6 6 11 1 17 -2
13 -5z m1013 -14 c0 -5 -4 -10 -10 -10 -5 0 -10 5 -10 10 0 6 5 10 10 10 6 0
10 -4 10 -10z m105 -21 c-3 -4 5 -11 17 -15 13 -3 42 -19 66 -35 45 -31 57
-35 47 -19 -3 6 1 7 9 4 14 -5 21 -23 17 -46 0 -4 6 -5 15 -1 14 5 15 3 5 -16
-11 -19 -14 -20 -27 -7 -9 9 -29 14 -49 12 -27 -2 -35 1 -35 15 0 19 -30 35
-31 16 0 -9 -2 -9 -6 1 -2 6 -8 10 -13 7 -4 -3 -12 1 -18 8 -8 9 -3 12 23 11
18 -1 39 -5 45 -9 7 -4 7 1 -2 14 -14 22 -28 28 -28 11 0 -5 -6 -10 -14 -10
-16 0 -78 74 -70 83 8 8 54 -14 49 -24z m1868 24 c-7 -2 -19 -2 -25 0 -7 3 -2
5 12 5 14 0 19 -2 13 -5z m-2973 -18 c0 -10 -9 -15 -27 -14 l-28 1 25 8 25 7
-30 5 -30 5 33 2 c22 1 32 -3 32 -14z m401 5 c10 -6 19 -15 19 -20 0 -17 -26
-11 -45 10 -20 22 -7 27 26 10z m142 -15 c18 -8 50 -21 72 -30 l40 -15 -35 6
c-39 7 -143 52 -122 53 8 1 28 -6 45 -14z m60 8 c-7 -2 -21 -2 -30 0 -10 3 -4
5 12 5 17 0 24 -2 18 -5z m464 -36 c2 -21 2 -21 -9 -2 -14 25 -29 35 -42 28
-5 -3 -6 -1 -2 5 11 18 52 -6 53 -31z m-786 -5 c-6 -10 -7 -23 -3 -27 4 -5 1
-5 -5 -1 -8 4 -13 1 -13 -8 0 -8 -5 -18 -12 -22 -7 -4 -8 -3 -4 4 4 7 1 12 -6
13 -10 0 -10 2 1 6 11 5 11 7 0 14 -10 6 -8 9 9 9 13 0 20 4 17 10 -3 6 -2 10
4 10 6 0 8 8 4 18 -5 13 -3 14 6 6 10 -9 10 -17 2 -32z m2699 28 c-12 -8 -10
-10 10 -10 20 0 22 -2 10 -10 -20 -13 -53 -13 -45 0 3 6 0 10 -7 11 -7 0 -4 4
7 9 27 12 43 12 25 0z m-3077 -47 c-7 -2 -21 -2 -30 0 -10 3 -4 5 12 5 17 0
24 -2 18 -5z m94 1 c-3 -3 -12 -4 -19 -1 -8 3 -5 6 6 6 11 1 17 -2 13 -5z
m330 -42 c26 -57 26 -59 7 -32 -10 14 -24 29 -31 33 -7 4 -13 17 -13 28 0 28
17 15 37 -29z m48 18 c-4 -6 -2 -17 4 -24 6 -7 12 -22 14 -34 2 -12 21 -41 43
-64 33 -35 36 -40 16 -35 -19 4 -21 3 -11 -9 6 -8 19 -14 28 -14 13 -1 13 -3
-3 -12 -16 -9 -23 -7 -37 11 -10 12 -23 20 -30 19 -6 -2 -14 3 -16 10 -3 6 0
12 6 12 16 0 13 20 -11 70 -26 55 -29 80 -11 80 8 0 11 -5 8 -10z m2140 -11
c148 1 207 -11 213 -41 3 -16 -6 -18 -80 -20 -119 -3 -144 -4 -162 -11 -9 -4
-16 -2 -16 4 0 10 -144 7 -227 -5 -27 -4 -32 -1 -37 20 -4 14 -4 35 -1 46 6
18 13 19 88 12 45 -3 145 -6 222 -5z m-2674 -11 c8 -96 7 -218 -2 -218 -7 0
-9 -10 -5 -24 3 -14 2 -28 -4 -31 -5 -3 -10 3 -10 14 0 12 -4 21 -10 21 -11 0
-14 232 -3 243 11 12 33 8 34 -5z m59 -18 c0 -16 -4 -30 -9 -30 -5 0 -5 -15
-1 -35 4 -20 4 -35 -1 -35 -5 0 -9 8 -9 18 0 10 -3 22 -7 26 -5 4 -9 25 -9 47
-2 32 2 39 17 39 14 0 19 -7 19 -30z m1615 0 c3 -5 12 -7 19 -4 8 3 17 0 22
-7 4 -8 3 -10 -4 -5 -7 4 -12 1 -12 -7 0 -10 17 -18 48 -25 26 -5 37 -10 24
-11 -13 0 -20 -5 -17 -11 3 -5 20 -7 38 -4 24 4 28 3 17 -5 -16 -11 -10 -14
30 -12 l25 1 -25 -14 c-32 -20 -50 -20 -50 -1 0 8 -3 14 -7 14 -29 -5 -73 3
-68 11 4 6 -7 10 -27 10 -28 1 -31 2 -17 13 12 9 13 15 5 23 -6 6 -17 9 -23 7
-7 -3 -22 1 -35 8 l-23 13 25 7 c36 10 48 10 55 -1z m-1272 -17 c-3 -7 -9 -13
-14 -13 -5 0 -9 6 -9 13 0 8 6 14 14 14 8 0 12 -6 9 -14z m-246 -15 c-3 -8 -6
-5 -6 6 -1 11 2 17 5 13 3 -3 4 -12 1 -19z m323 12 c8 -5 11 -10 5 -10 -5 0
-17 5 -25 10 -8 5 -10 10 -5 10 6 0 17 -5 25 -10z m1006 -7 c19 -12 22 -18 12
-25 -9 -7 -8 -8 5 -4 12 4 30 -3 47 -16 16 -13 39 -30 52 -39 27 -19 33 -83 8
-85 -9 0 -10 1 -2 3 6 3 12 8 12 11 0 12 -50 30 -75 28 -13 -2 -22 1 -19 5 5
9 -17 13 -43 10 -7 -1 -13 3 -13 9 0 13 57 4 78 -12 8 -7 12 -7 12 1 0 6 -7
14 -15 17 -8 4 -15 10 -15 16 0 5 6 6 13 3 6 -4 4 0 -5 8 -10 8 -16 16 -13 19
3 2 -9 3 -25 0 -17 -2 -30 -10 -30 -18 0 -8 -5 -14 -11 -14 -5 0 -7 5 -4 10 3
6 0 10 -7 11 -10 0 -10 2 0 6 6 2 12 9 12 15 0 6 -6 8 -13 5 -8 -3 -14 1 -14
9 0 18 6 18 28 -2 15 -13 17 -14 15 -1 -1 8 -8 22 -15 31 -17 21 -7 20 25 -1z
m-666 -3 c23 -14 5 -23 -32 -15 -29 7 -30 9 -13 16 27 10 28 10 45 -1z m593
-3 c6 -15 -36 -17 -50 -3 -5 5 -1 7 10 3 9 -4 17 -2 17 3 0 15 17 12 23 -3z
m-978 -6 c3 -6 -3 -9 -14 -8 -11 0 -17 5 -15 9 7 11 22 10 29 -1z m-605 -13
c0 -4 -54 -7 -120 -7 -70 0 -120 4 -120 10 0 6 48 8 120 7 66 -2 120 -6 120
-10z m694 -3 c3 -8 1 -15 -4 -15 -6 0 -10 7 -10 15 0 8 2 15 4 15 2 0 6 -7 10
-15z m180 -20 c49 -25 42 -35 -9 -15 -27 10 -63 40 -48 40 4 0 30 -11 57 -25z
m231 5 c-3 -5 -16 -10 -28 -9 -20 1 -20 2 3 9 14 4 26 8 28 9 2 1 0 -3 -3 -9z
m-776 -37 c-1 -38 -1 -38 -9 -9 -8 27 -6 46 6 46 2 0 4 -17 3 -37z m855 21 c6
-15 4 -15 -11 -3 -10 7 -20 15 -22 16 -2 2 3 3 11 3 9 0 19 -7 22 -16z m-584
-25 c0 -6 -4 -7 -10 -4 -5 3 -10 11 -10 16 0 6 5 7 10 4 6 -3 10 -11 10 -16z
m27 4 c-4 -3 -2 -11 3 -18 6 -8 5 -18 -6 -31 -14 -18 -15 -18 -5 3 8 15 8 24
1 28 -10 6 -5 25 7 25 4 0 3 -3 0 -7z m-1030 -9 c-3 -3 -12 -4 -19 -1 -8 3 -5
6 6 6 11 1 17 -2 13 -5z m624 -32 c-9 -3 -9 -7 0 -18 16 -19 4 -18 -15 2 -20
20 -21 35 -1 27 9 -3 15 -2 14 3 -3 20 4 28 8 9 3 -10 0 -21 -6 -23z m1032 12
c9 -4 17 -10 17 -15 0 -5 9 -9 20 -9 11 0 23 -7 26 -15 4 -8 12 -15 19 -15 8
0 16 -4 19 -9 4 -5 -3 -7 -14 -4 -11 3 -23 9 -26 14 -3 5 -14 9 -25 9 -10 0
-34 14 -52 31 -17 18 -25 29 -17 25 8 -3 23 -9 33 -12z m827 6 c0 -13 -40 -13
-60 0 -11 7 -5 10 23 10 20 0 37 -4 37 -10z m-1390 -10 c0 -5 -2 -10 -4 -10
-3 0 -8 5 -11 10 -3 6 -1 10 4 10 6 0 11 -4 11 -10z m70 -19 c0 -3 16 -15 35
-25 19 -11 35 -25 35 -31 0 -7 7 -18 15 -25 25 -21 10 -22 -29 -4 -20 10 -36
23 -36 30 0 7 -6 19 -12 26 -7 7 -19 21 -27 31 -12 15 -12 17 3 11 9 -3 16 -9
16 -13z m3034 -4 c4 4 4 0 0 -10 -6 -16 -8 -16 -25 4 -24 28 -25 37 -1 16 10
-10 22 -14 26 -10z m-3100 -49 c6 -4 7 -11 2 -15 -5 -4 -11 -3 -13 4 -2 6 -15
9 -28 7 -20 -3 -23 -1 -18 13 10 27 27 34 37 15 5 -9 14 -20 20 -24z m39 11
c-9 -9 -12 -7 -10 9 1 14 5 18 11 12 7 -7 6 -14 -1 -21z m-1470 14 c-7 -2 -19
-2 -25 0 -7 3 -2 5 12 5 14 0 19 -2 13 -5z m597 -3 c12 -8 9 -10 -12 -10 -16
0 -28 5 -28 10 0 13 20 13 40 0z m2040 -25 c0 -10 -16 -4 -40 16 l-25 20 33
-16 c17 -8 32 -18 32 -20z m-1933 19 c-3 -3 -12 -4 -19 -1 -8 3 -5 6 6 6 11 1
17 -2 13 -5z m1866 -6 c7 -7 13 -23 14 -35 3 -22 2 -22 -17 -6 -11 10 -20 25
-20 35 0 21 7 23 23 6z m-773 -8 c8 -5 11 -10 5 -10 -5 0 -17 5 -25 10 -8 5
-10 10 -5 10 6 0 17 -5 25 -10z m-1633 -6 c-3 -3 -12 -4 -19 -1 -8 3 -5 6 6 6
11 1 17 -2 13 -5z m333 -3 c0 -13 104 -10 112 3 6 8 8 7 8 -1 0 -7 7 -13 16
-13 8 0 12 4 9 10 -3 6 -1 10 4 10 6 0 11 -5 11 -10 0 -6 11 -8 25 -4 15 4 25
2 25 -5 0 -7 -35 -11 -102 -12 -57 0 -152 -2 -212 -4 -70 -2 -105 0 -99 6 6 6
33 10 62 11 28 0 64 4 79 8 37 11 62 12 62 1z m277 -28 c-3 -10 -5 -4 -5 12 0
17 2 24 5 18 2 -7 2 -21 0 -30z m1919 6 c4 -8 1 -8 -14 0 -12 6 -24 16 -28 22
-4 8 -1 8 14 0 12 -6 24 -16 28 -22z m-2670 14 c-22 -4 -26 -7 -15 -14 9 -6 0
-9 -30 -9 -37 0 -42 -2 -31 -15 7 -8 17 -12 24 -8 8 4 8 3 0 -7 -10 -9 -16 -8
-33 9 -28 28 -27 31 17 31 27 0 33 3 22 10 -11 7 -2 9 30 8 33 -1 37 -2 16 -5z
m71 1 c-3 -3 -12 -4 -19 -1 -8 3 -5 6 6 6 11 1 17 -2 13 -5z m169 -9 c14 -13
10 -15 -38 -14 -29 1 -44 3 -33 6 11 3 24 9 30 14 13 13 24 11 41 -6z m1214
-1 c0 -8 -5 -12 -10 -9 -6 4 -8 11 -5 16 9 14 15 11 15 -7z m155 6 c3 -5 -1
-10 -9 -10 -9 0 -16 5 -16 10 0 6 4 10 9 10 6 0 13 -4 16 -10z m105 0 c24 -15
7 -19 -25 -5 -23 10 -25 14 -10 14 11 0 27 -3 35 -9z m-333 -20 c2 -22 -12
-27 -23 -9 -5 9 5 22 21 29 1 0 1 -9 2 -20z m-1299 3 c-10 -2 -28 -2 -40 0
-13 2 -5 4 17 4 22 1 32 -1 23 -4z m1327 -3 c3 -5 1 -10 -4 -10 -6 0 -11 5
-11 10 0 6 2 10 4 10 3 0 8 -4 11 -10z m-735 -15 c0 -11 -11 -15 -42 -15 -42
0 -42 1 -18 14 34 19 60 19 60 1z m1932 8 c-6 -2 -10 -9 -7 -13 3 -5 1 -11 -5
-15 -5 -3 -10 0 -10 8 0 17 10 27 24 26 6 0 5 -3 -2 -6z m-2731 -26 c-10 -9
-11 -8 -5 6 3 10 9 15 12 12 3 -3 0 -11 -7 -18z m336 17 c-3 -3 -12 -4 -19 -1
-8 3 -5 6 6 6 11 1 17 -2 13 -5z m137 -6 c-6 -10 -4 -10 7 -2 15 12 109 16
109 5 0 -4 26 -6 58 -3 31 2 53 1 49 -4 -5 -5 -81 -9 -170 -10 -89 0 -145 1
-124 3 20 2 35 8 32 14 -4 5 6 9 20 9 18 0 24 -4 19 -12z m1050 -22 c-3 -9
-10 -16 -15 -16 -5 0 -4 9 3 20 14 22 21 20 12 -4z m181 14 c4 -6 3 -10 -2 -9
-22 4 -23 -3 -2 -21 30 -25 15 -26 -16 -1 -18 13 -21 21 -12 30 14 14 24 14
32 1z m215 -13 c0 -2 -17 -3 -37 -3 -21 -1 -30 1 -20 3 9 3 17 9 17 14 0 6 8
5 20 -1 11 -6 20 -12 20 -13z m-1577 6 c-13 -2 -35 -2 -50 0 -16 2 -5 4 22 4
28 0 40 -2 28 -4z m2437 -8 c0 -8 -4 -15 -10 -15 -5 0 -10 7 -10 15 0 8 5 15
10 15 6 0 10 -7 10 -15z m154 -14 c-2 -3 -12 3 -22 13 -16 17 -16 18 5 5 12
-7 20 -15 17 -18z m-798 -8 c-8 -8 -66 8 -61 17 3 5 19 4 36 -2 16 -6 28 -12
25 -15z m-539 3 c4 -7 15 -16 23 -19 10 -4 7 -6 -7 -6 -14 -1 -23 5 -23 13 0
8 -8 17 -17 19 -16 4 -16 5 -1 6 9 0 21 -5 25 -13z m1213 4 c0 -5 -5 -10 -11
-10 -5 0 -7 5 -4 10 3 6 8 10 11 10 2 0 4 -4 4 -10z m80 0 c0 -5 -8 -10 -17
-10 -15 0 -16 2 -3 10 19 12 20 12 20 0z m-1325 -20 c3 -5 1 -10 -4 -10 -6 0
-11 5 -11 10 0 6 2 10 4 10 3 0 8 -4 11 -10z"/>
<path d="M830 2556 c0 -14 4 -27 9 -30 10 -7 20 23 14 42 -8 21 -23 13 -23
-12z"/>
<path d="M1241 2574 c0 -11 3 -14 6 -6 3 7 2 16 -1 19 -3 4 -6 -2 -5 -13z"/>
<path d="M1086 2532 c-10 -16 -3 -58 11 -71 11 -10 12 -4 9 29 -4 44 -10 57
-20 42z"/>
<path d="M1122 2474 c-1 -23 -4 -57 -7 -75 l-5 -34 11 33 c5 19 8 53 6 75 l-4
42 -1 -41z"/>
<path d="M1160 2473 c0 -10 4 -14 8 -8 4 6 11 13 16 18 5 4 2 7 -7 7 -10 0
-17 -8 -17 -17z"/>
<path d="M1280 2438 c0 -13 5 -30 10 -38 7 -11 10 -5 10 23 0 20 -4 37 -10 37
-5 0 -10 -10 -10 -22z"/>
<path d="M1100 2332 c0 -5 7 -9 15 -9 8 0 12 4 9 9 -3 4 -9 8 -15 8 -5 0 -9
-4 -9 -8z"/>
<path d="M886 2235 c4 -8 7 -15 9 -15 1 0 8 7 15 15 10 13 9 15 -8 15 -15 0
-20 -5 -16 -15z"/>
<path d="M1028 2243 c6 -2 18 -2 25 0 6 3 1 5 -13 5 -14 0 -19 -2 -12 -5z"/>
<path d="M1950 1662 c0 -4 16 -6 35 -4 19 2 35 6 35 8 0 2 -16 4 -35 4 -19 0
-35 -4 -35 -8z"/>
<path d="M2567 1620 c-3 -11 -1 -20 4 -20 5 0 9 9 9 20 0 11 -2 20 -4 20 -2 0
-6 -9 -9 -20z"/>
<path d="M5995 899 c-4 -6 -5 -12 -2 -15 2 -3 7 2 10 11 7 17 1 20 -8 4z"/>
<path d="M6058 888 c5 -5 16 -8 23 -6 8 3 3 7 -10 11 -17 4 -21 3 -13 -5z"/>
<path d="M1584 704 c-2 -18 2 -24 12 -20 8 3 27 1 42 -5 26 -10 26 -9 -7 20
-42 38 -46 38 -47 5z"/>
<path d="M1490 711 c0 -5 7 -12 16 -15 14 -5 15 -4 4 9 -14 17 -20 19 -20 6z"/>
<path d="M1620 660 c20 -13 33 -13 25 0 -3 6 -14 10 -23 10 -15 0 -15 -2 -2
-10z"/>
<path d="M1530 638 c0 -4 4 -8 9 -8 6 0 12 4 15 8 3 5 -1 9 -9 9 -8 0 -15 -4
-15 -9z"/>
<path d="M1562 505 c-16 -34 -15 -40 3 -25 8 7 15 18 15 25 0 8 6 16 13 18 8
4 6 6 -4 6 -9 1 -21 -10 -27 -24z"/>
<path d="M2351 597 c-8 -11 -5 -13 19 -9 17 2 30 8 30 13 0 14 -36 11 -49 -4z"/>
<path d="M5558 808 c18 -18 14 -27 -8 -23 -11 2 -20 0 -20 -6 0 -5 18 -9 40
-9 49 0 54 20 8 38 -24 9 -29 9 -20 0z"/>
<path d="M2600 370 c0 -5 5 -10 11 -10 5 0 7 5 4 10 -3 6 -8 10 -11 10 -2 0
-4 -4 -4 -10z"/>
<path d="M2785 241 c-3 -6 4 -15 15 -21 31 -17 42 -8 15 13 -14 9 -26 13 -30
8z"/>
<path d="M2660 2096 c0 -22 3 -27 11 -19 8 8 8 16 0 30 -9 16 -10 14 -11 -11z"/>
<path d="M1577 2034 c-4 -4 -7 -14 -7 -23 0 -11 3 -12 11 -4 6 6 10 16 7 23
-2 6 -7 8 -11 4z"/>
<path d="M2678 1912 l-3 -67 124 3 c92 2 127 -1 133 -10 6 -10 8 -10 8 0 0 9
30 12 114 12 63 0 117 3 120 8 4 7 10 86 7 110 -1 9 -58 12 -250 12 l-249 0
-4 -68z m119 31 c14 -17 14 -17 9 0 -3 9 -2 17 3 17 10 0 18 -38 13 -62 -3
-14 -14 -18 -46 -18 -23 0 -48 -6 -55 -12 -11 -11 -13 -10 -7 5 3 10 6 26 6
35 0 13 3 12 14 -4 12 -15 17 -17 27 -6 15 13 33 17 25 4 -3 -5 1 -9 9 -9 29
0 23 24 -6 25 -16 0 -29 -4 -29 -9 0 -5 -4 -9 -10 -9 -18 0 -11 48 8 53 9 3
19 5 21 6 2 0 10 -7 18 -16z m128 5 c14 -6 25 -18 25 -27 0 -13 -2 -13 -9 -2
-5 8 -11 9 -15 3 -3 -6 -2 -13 4 -17 12 -8 59 26 60 43 0 6 5 12 10 12 6 0 10
-6 9 -12 -3 -23 1 -38 9 -37 21 4 32 -2 26 -13 -3 -7 5 -1 19 15 22 24 25 25
31 10 3 -10 9 -24 12 -31 8 -17 -204 -16 -225 1 -12 9 -13 9 -7 0 5 -9 0 -13
-17 -13 -14 0 -24 6 -24 15 0 8 4 15 8 15 4 0 6 8 4 18 -1 9 0 11 2 5 7 -20
34 -15 40 7 6 24 5 23 38 8z m235 -52 c0 -3 -4 -8 -10 -11 -5 -3 -10 -1 -10 4
0 6 5 11 10 11 6 0 10 -2 10 -4z"/>
<path d="M1535 1960 c3 -5 8 -10 11 -10 2 0 4 5 4 10 0 6 -5 10 -11 10 -5 0
-7 -4 -4 -10z"/>
<path d="M1335 1939 c-4 -6 -5 -12 -2 -15 2 -3 7 2 10 11 7 17 1 20 -8 4z"/>
<path d="M1545 1920 c-3 -5 -13 -7 -23 -4 -14 5 -15 4 -2 -5 20 -14 27 -14 34
4 6 17 0 20 -9 5z"/>
<path d="M1341 1885 c-1 -5 -4 -28 -6 -50 -3 -34 -2 -36 6 -15 6 13 8 36 6 50
-2 14 -5 21 -6 15z"/>
<path d="M1538 1849 c-6 -42 2 -81 16 -76 6 2 12 14 14 28 2 19 1 21 -7 9 -9
-13 -11 -13 -11 2 0 9 6 18 14 20 12 2 11 7 -4 25 l-18 23 -4 -31z"/>
<path d="M2752 1765 c0 -16 2 -22 5 -12 2 9 2 23 0 30 -3 6 -5 -1 -5 -18z"/>
<path d="M1545 1750 c-3 -5 -1 -10 4 -10 6 0 11 5 11 10 0 6 -2 10 -4 10 -3 0
-8 -4 -11 -10z"/>
<path d="M382 1651 c-10 -6 -10 -10 2 -20 12 -10 15 -9 13 8 -1 12 -1 21 -2
21 0 0 -6 -4 -13 -9z"/>
<path d="M204 1619 c-4 -7 -3 -9 4 -5 5 3 12 0 15 -6 4 -10 7 -10 16 -1 6 7 8
11 5 8 -4 -3 -13 0 -20 6 -8 7 -14 6 -20 -2z"/>
<path d="M2170 1546 c0 -9 5 -16 10 -16 6 0 10 4 10 9 0 6 -4 13 -10 16 -5 3
-10 -1 -10 -9z"/>
<path d="M5980 1540 c0 -5 5 -10 10 -10 6 0 10 5 10 10 0 6 -4 10 -10 10 -5 0
-10 -4 -10 -10z"/>
<path d="M10 1526 c0 -2 7 -6 15 -10 8 -3 15 -1 15 4 0 6 -7 10 -15 10 -8 0
-15 -2 -15 -4z"/>
<path d="M3830 1520 c0 -5 5 -10 10 -10 6 0 10 5 10 10 0 6 -4 10 -10 10 -5 0
-10 -4 -10 -10z"/>
<path d="M4930 1520 c0 -5 6 -10 13 -11 6 0 25 -2 40 -3 15 -1 33 4 39 11 8
10 0 13 -41 13 -28 0 -51 -4 -51 -10z"/>
<path d="M4392 1499 c2 -6 8 -10 13 -10 5 0 11 4 13 10 2 6 -4 11 -13 11 -9 0
-15 -5 -13 -11z"/>
<path d="M60 1480 c0 -5 5 -10 10 -10 6 0 10 5 10 10 0 6 -4 10 -10 10 -5 0
-10 -4 -10 -10z"/>
<path d="M2174 1435 c-6 -11 -9 -25 -7 -32 2 -6 -1 -14 -6 -18 -6 -3 -11 1
-11 10 0 9 -7 23 -15 31 -13 14 -15 12 -17 -13 0 -15 -1 -35 0 -43 6 -91 10
-120 18 -120 5 1 8 13 7 28 -1 15 1 19 3 10 3 -10 10 -18 14 -18 6 0 5 11 -1
26 -5 15 -7 29 -4 32 3 3 5 0 5 -7 0 -8 8 -11 20 -8 15 4 20 0 20 -16 0 -18
14 -17 16 1 0 4 4 20 9 35 6 21 10 25 16 15 12 -19 12 34 -1 66 -11 31 -30 34
-30 7 0 -34 -19 -33 -22 1 -3 30 -4 31 -14 13z m36 -60 c0 -3 -9 -14 -19 -24
-17 -17 -21 -18 -32 -5 -6 8 -9 18 -5 21 4 4 11 2 15 -6 7 -10 10 -9 14 3 6
14 27 23 27 11z"/>
<path d="M2255 1431 c-3 -5 -1 -12 4 -15 5 -3 11 1 15 9 6 16 -9 21 -19 6z"/>
<path d="M145 1420 c-3 -5 -1 -10 4 -10 6 0 11 5 11 10 0 6 -2 10 -4 10 -3 0
-8 -4 -11 -10z"/>
<path d="M3454 1376 c-8 -22 3 -33 18 -18 9 9 9 15 0 24 -9 9 -13 7 -18 -6z"/>
<path d="M3171 1334 c0 -11 3 -14 6 -6 3 7 2 16 -1 19 -3 4 -6 -2 -5 -13z"/>
<path d="M3242 1330 c0 -14 2 -19 5 -12 2 6 2 18 0 25 -3 6 -5 1 -5 -13z"/>
<path d="M80 1335 c0 -3 24 -17 53 -30 54 -26 124 -34 111 -14 -3 6 -20 9 -38
6 -17 -3 -25 -3 -18 0 19 8 14 19 -13 31 -26 12 -95 17 -95 7z"/>
<path d="M2208 1243 c-1 -28 -1 -81 1 -95 1 -5 6 -8 13 -8 6 0 8 3 5 7 -4 3
-2 13 5 20 9 11 9 16 -2 23 -11 7 -11 11 -1 24 9 11 10 20 1 35 -14 28 -20 26
-22 -6z"/>
<path d="M2160 1237 c0 -7 9 -13 20 -13 24 0 26 11 4 20 -22 8 -24 8 -24 -7z"/>
<path d="M2170 1200 c0 -5 5 -10 11 -10 5 0 7 5 4 10 -3 6 -8 10 -11 10 -2 0
-4 -4 -4 -10z"/>
<path d="M2138 1163 c6 -2 10 -9 6 -14 -3 -5 7 -9 23 -9 l28 0 -29 15 c-15 8
-31 15 -35 14 -3 0 0 -3 7 -6z"/>
<path d="M3420 1126 c0 -2 7 -7 16 -10 8 -3 12 -2 9 4 -6 10 -25 14 -25 6z"/>
<path d="M3185 1090 c3 -5 8 -10 11 -10 2 0 4 5 4 10 0 6 -5 10 -11 10 -5 0
-7 -4 -4 -10z"/>
<path d="M1390 1020 c0 -5 5 -10 11 -10 5 0 7 5 4 10 -3 6 -8 10 -11 10 -2 0
-4 -4 -4 -10z"/>
<path d="M3910 1010 c0 -5 7 -7 15 -4 8 4 15 8 15 10 0 2 -7 4 -15 4 -8 0 -15
-4 -15 -10z"/>
<path d="M0 1000 c0 -6 7 -10 15 -10 8 0 15 2 15 4 0 2 -7 6 -15 10 -8 3 -15
1 -15 -4z"/>
<path d="M1518 1003 c7 -3 16 -2 19 1 4 3 -2 6 -13 5 -11 0 -14 -3 -6 -6z"/>
<path d="M3968 1003 c7 -3 16 -2 19 1 4 3 -2 6 -13 5 -11 0 -14 -3 -6 -6z"/>
<path d="M947 994 c-3 -3 -3 -12 0 -20 4 -10 0 -12 -11 -8 -9 3 -16 1 -16 -5
0 -6 -6 -11 -14 -11 -8 0 -16 -7 -20 -15 -7 -18 15 -20 33 -2 11 10 13 10 7 0
-4 -7 -2 -13 4 -13 7 0 9 8 5 20 -4 14 -2 20 6 18 8 -2 14 7 15 20 1 24 1 25
-9 16z"/>
<path d="M1468 993 c6 -2 18 -2 25 0 6 3 1 5 -13 5 -14 0 -19 -2 -12 -5z"/>
<path d="M4083 983 c9 -2 23 -2 30 0 6 3 -1 5 -18 5 -16 0 -22 -2 -12 -5z"/>
<path d="M4778 983 c7 -3 16 -2 19 1 4 3 -2 6 -13 5 -11 0 -14 -3 -6 -6z"/>
<path d="M395 970 c-3 -5 -1 -10 4 -10 6 0 11 5 11 10 0 6 -2 10 -4 10 -3 0
-8 -4 -11 -10z"/>
<path d="M983 962 c-17 -13 -20 -20 -12 -32 9 -12 10 -11 5 5 -6 20 -6 20 9 1
15 -20 15 -20 30 0 27 35 4 54 -32 26z"/>
<path d="M1570 976 c0 -2 7 -6 15 -10 8 -3 15 -1 15 4 0 6 -7 10 -15 10 -8 0
-15 -2 -15 -4z"/>
<path d="M4171 976 c2 -2 22 -6 44 -9 28 -5 34 -4 20 3 -19 8 -73 14 -64 6z"/>
<path d="M445 961 c-3 -5 -1 -12 5 -16 5 -3 10 1 10 9 0 18 -6 21 -15 7z"/>
<path d="M475 960 c-3 -6 1 -7 9 -4 18 7 21 14 7 14 -6 0 -13 -4 -16 -10z"/>
<path d="M584 944 c-18 -14 -18 -14 6 -3 31 14 36 19 24 19 -6 0 -19 -7 -30
-16z"/>
<path d="M1572 948 c5 -15 28 -23 28 -10 0 5 -7 13 -16 16 -10 4 -14 1 -12 -6z"/>
<path d="M1397 943 c-4 -3 -7 -11 -7 -17 0 -6 5 -5 12 2 6 6 9 14 7 17 -3 3
-9 2 -12 -2z"/>
<path d="M4404 943 c10 -11 77 -13 71 -3 -4 6 -22 10 -42 10 -20 0 -33 -3 -29
-7z"/>
<path d="M4498 933 c6 -2 18 -2 25 0 6 3 1 5 -13 5 -14 0 -19 -2 -12 -5z"/>
<path d="M4678 923 c7 -3 16 -2 19 1 4 3 -2 6 -13 5 -11 0 -14 -3 -6 -6z"/>
<path d="M580 900 c-23 -8 -22 -8 8 -7 17 1 32 5 32 9 0 9 -6 9 -40 -2z"/>
<path d="M683 903 c4 -3 -3 -18 -15 -32 -19 -21 -17 -20 10 3 37 34 38 36 15
36 -9 0 -13 -3 -10 -7z"/>
<path d="M719 893 c-13 -16 -12 -17 4 -4 9 7 17 15 17 17 0 8 -8 3 -21 -13z"/>
<path d="M773 891 c-10 -16 -9 -18 8 -14 10 3 19 12 19 19 0 20 -13 17 -27 -5z"/>
<path d="M816 898 c3 -5 -2 -19 -12 -31 -18 -21 -18 -21 7 1 14 12 29 19 33
15 4 -4 4 0 1 8 -3 9 -12 16 -20 16 -8 0 -12 -4 -9 -9z"/>
<path d="M20 875 c-14 -8 -21 -14 -15 -14 6 0 21 6 35 14 14 8 21 14 15 14 -5
0 -21 -6 -35 -14z"/>
<path d="M594 858 l-19 -23 23 19 c21 18 27 26 19 26 -2 0 -12 -10 -23 -22z"/>
<path d="M730 852 c0 -4 9 -8 20 -9 11 -1 20 2 20 5 0 4 -9 8 -20 9 -11 1 -20
-2 -20 -5z"/>
<path d="M121 826 c-24 -13 -40 -26 -35 -29 13 -8 94 29 94 43 0 14 -9 12 -59
-14z"/>
<path d="M17 782 c-34 -7 -16 -17 30 -18 25 0 41 2 34 4 -6 2 -9 7 -7 10 4 7
-29 9 -57 4z"/>
<path d="M6 735 c4 -8 12 -15 19 -15 7 0 15 7 19 15 4 11 -1 15 -19 15 -18 0
-23 -4 -19 -15z"/>
<path d="M166 734 c-11 -8 -16 -14 -10 -14 13 0 39 18 34 24 -3 2 -14 -2 -24
-10z"/>
<path d="M3796 743 c-3 -3 -3 -10 0 -14 7 -12 34 -11 34 0 0 11 -26 22 -34 14z"/>
<path d="M4000 740 c0 -5 5 -10 10 -10 6 0 10 5 10 10 0 6 -4 10 -10 10 -5 0
-10 -4 -10 -10z"/>
<path d="M93 723 c9 -2 25 -2 35 0 9 3 1 5 -18 5 -19 0 -27 -2 -17 -5z"/>
<path d="M245 719 c-22 -8 -17 -10 34 -12 19 -1 36 3 38 8 4 12 -45 15 -72 4z"/>
<path d="M4055 720 c-3 -5 -1 -10 4 -10 6 0 11 5 11 10 0 6 -2 10 -4 10 -3 0
-8 -4 -11 -10z"/>
<path d="M63 683 c9 -2 23 -2 30 0 6 3 -1 5 -18 5 -16 0 -22 -2 -12 -5z"/>
<path d="M158 683 c6 -2 18 -2 25 0 6 3 1 5 -13 5 -14 0 -19 -2 -12 -5z"/>
<path d="M250 675 c-7 -8 -16 -12 -21 -9 -5 3 -12 -1 -15 -9 -3 -8 -15 -15
-27 -15 -27 0 -96 -11 -117 -19 -22 -9 -28 -10 -48 -12 -12 -1 -17 -10 -17
-31 -1 -16 1 -30 4 -30 2 0 19 11 37 25 18 14 43 25 55 25 12 0 31 8 42 18 19
16 20 16 14 0 -9 -24 -5 -23 50 15 57 38 78 57 65 57 -5 0 -15 -7 -22 -15z"/>
<path d="M350 680 c-8 -5 -12 -12 -9 -15 4 -3 12 1 19 10 14 17 11 19 -10 5z"/>
<path d="M48 643 c7 -3 16 -2 19 1 4 3 -2 6 -13 5 -11 0 -14 -3 -6 -6z"/>
<path d="M304 628 l-19 -23 23 19 c21 18 27 26 19 26 -2 0 -12 -10 -23 -22z"/>
<path d="M266 602 c-4 -8 0 -12 10 -12 13 0 15 -3 7 -11 -6 -6 -30 -10 -52 -7
-23 2 -41 0 -41 -4 0 -9 163 -15 192 -6 16 4 7 6 -25 7 -37 1 -53 6 -66 23
-12 15 -20 18 -25 10z"/>
<path d="M410 600 l-105 -6 108 -2 c66 -1 107 2 107 8 0 6 -1 9 -2 8 -2 -1
-50 -5 -108 -8z"/>
<path d="M696 598 c3 -5 10 -6 15 -3 13 9 11 12 -6 12 -8 0 -12 -4 -9 -9z"/>
<path d="M59 563 c-13 -16 -12 -17 4 -4 9 7 17 15 17 17 0 8 -8 3 -21 -13z"/>
<path d="M109 564 c-6 -8 -9 -17 -5 -21 3 -4 13 2 22 13 8 10 13 14 10 8 -6
-12 23 -29 32 -19 3 3 0 5 -6 5 -6 0 -9 6 -6 13 7 18 -32 19 -47 1z"/>
<path d="M580 570 c-9 -6 -10 -10 -3 -10 6 0 15 5 18 10 8 12 4 12 -15 0z"/>
<path d="M690 574 c0 -5 -15 -33 -34 -62 -19 -28 -31 -52 -26 -52 12 0 74 110
66 117 -3 4 -6 2 -6 -3z"/>
<path d="M1243 553 c15 -2 39 -2 55 0 15 2 2 4 -28 4 -30 0 -43 -2 -27 -4z"/>
<path d="M731 489 c-18 -33 -31 -62 -29 -64 2 -3 19 23 37 56 18 33 31 62 29
64 -2 3 -19 -23 -37 -56z"/>
<path d="M10 530 c-9 -6 -10 -10 -3 -10 6 0 15 5 18 10 8 12 4 12 -15 0z"/>
<path d="M27 510 c-37 -20 -34 -26 14 -29 25 -1 38 2 35 8 -4 6 -13 8 -21 4
-8 -3 -15 0 -15 6 0 6 15 11 34 11 19 0 37 4 40 8 9 14 -59 8 -87 -8z"/>
<path d="M545 519 c-11 -17 1 -21 15 -4 8 9 8 15 2 15 -6 0 -14 -5 -17 -11z"/>
<path d="M976 464 c-18 -71 -17 -100 2 -37 15 55 24 103 19 103 -3 0 -12 -30
-21 -66z"/>
<path d="M886 505 c-9 -26 -7 -32 5 -12 6 10 9 21 6 23 -2 3 -7 -2 -11 -11z"/>
<path d="M1032 480 c0 -14 2 -19 5 -12 2 6 2 18 0 25 -3 6 -5 1 -5 -13z"/>
<path d="M1114 485 c-18 -14 -18 -14 8 -15 20 0 26 4 22 15 -7 18 -6 18 -30 0z"/>
<path d="M428 483 c6 -2 18 -2 25 0 6 3 1 5 -13 5 -14 0 -19 -2 -12 -5z"/>
<path d="M510 480 c11 -7 11 -10 2 -10 -7 0 -10 -4 -7 -10 4 -6 -11 -11 -37
-11 l-43 -2 35 -7 c19 -4 29 -8 23 -9 -19 -2 -57 -81 -45 -93 13 -13 48 -5 45
10 -2 7 4 12 13 12 8 0 12 -5 8 -11 -5 -8 -1 -8 14 0 11 6 29 11 39 10 16 0
16 -1 -2 -9 -16 -7 -17 -9 -3 -9 9 -1 20 4 23 9 3 6 13 10 21 10 8 0 12 -4 9
-10 -8 -13 35 -13 55 0 9 5 19 5 27 -2 9 -7 13 -7 13 1 0 8 25 11 85 10 46 -1
82 -6 79 -10 -3 -5 2 -9 11 -9 9 0 13 5 10 10 -4 6 5 10 19 10 14 0 26 -4 26
-10 0 -5 9 -10 20 -10 11 0 20 5 20 10 0 6 8 10 18 11 14 0 14 2 -3 9 -11 4
-32 5 -47 3 -22 -4 -28 -2 -28 13 -1 18 -1 18 -11 2 -5 -10 -19 -18 -29 -18
-24 0 -24 0 -4 50 9 23 15 43 12 45 -2 3 -12 -18 -22 -45 -12 -34 -24 -50 -35
-50 -28 0 -31 10 -15 42 9 17 11 28 6 24 -5 -3 -15 -19 -22 -36 -12 -29 -50
-43 -50 -19 0 8 -4 8 -14 0 -8 -7 -33 -11 -55 -9 -32 1 -40 5 -36 17 4 10 -1
9 -16 -5 -22 -19 -22 -19 -15 0 7 20 7 20 -15 0 -12 -10 -19 -13 -15 -6 4 6 2
12 -3 12 -6 0 -11 -4 -11 -10 0 -5 -12 -10 -26 -10 l-25 0 21 33 22 32 -29
-33 c-15 -18 -36 -32 -45 -32 -23 0 -22 9 3 40 11 14 29 37 40 53 l20 27 -23
0 c-18 0 -20 -2 -8 -10z"/>
<path d="M670 470 c-6 -11 -8 -20 -6 -20 3 0 10 9 16 20 6 11 8 20 6 20 -3 0
-10 -9 -16 -20z"/>
<path d="M826 474 c-4 -9 -4 -19 -1 -22 3 -3 5 0 5 7 0 7 4 9 10 6 6 -3 7 1 4
9 -8 20 -10 20 -18 0z"/>
<path d="M1218 473 c7 -3 16 -2 19 1 4 3 -2 6 -13 5 -11 0 -14 -3 -6 -6z"/>
<path d="M4408 473 c7 -3 16 -2 19 1 4 3 -2 6 -13 5 -11 0 -14 -3 -6 -6z"/>
<path d="M165 460 c-11 -5 -15 -9 -8 -9 6 -1 18 -3 26 -6 8 -4 14 0 14 10 0
17 -3 17 -32 5z"/>
<path d="M398 463 c17 -2 47 -2 65 0 17 2 3 4 -33 4 -36 0 -50 -2 -32 -4z"/>
<path d="M4515 462 c-29 -3 -35 -6 -21 -11 23 -9 76 -2 76 10 0 5 -3 8 -7 7
-5 -1 -26 -3 -48 -6z"/>
<path d="M105 450 c3 -5 11 -10 16 -10 6 0 7 5 4 10 -3 6 -11 10 -16 10 -6 0
-7 -4 -4 -10z"/>
<path d="M1022 430 c0 -14 2 -19 5 -12 2 6 2 18 0 25 -3 6 -5 1 -5 -13z"/>
<path d="M636 431 c-17 -6 -17 -8 -4 -14 10 -3 19 0 22 9 3 8 4 14 3 13 -1 0
-11 -4 -21 -8z"/>
<path d="M6 422 c-9 -15 16 -20 59 -12 27 5 32 8 15 9 -14 1 -35 4 -46 7 -12
3 -24 1 -28 -4z"/>
<path d="M133 413 c9 -2 15 -9 12 -14 -4 -5 -1 -9 4 -9 6 0 11 4 11 9 0 6 21
12 48 14 34 2 27 4 -23 4 -38 0 -62 -1 -52 -4z"/>
<path d="M290 390 c0 -5 5 -10 10 -10 6 0 10 5 10 10 0 6 -4 10 -10 10 -5 0
-10 -4 -10 -10z"/>
<path d="M320 396 c0 -2 7 -6 15 -10 8 -3 15 -1 15 4 0 6 -7 10 -15 10 -8 0
-15 -2 -15 -4z"/>
<path d="M360 390 c0 -6 15 -7 38 -4 51 8 53 14 4 14 -23 0 -42 -4 -42 -10z"/>
<path d="M4341 385 c2 -10 10 -20 17 -23 8 -2 10 2 5 13 -5 14 -3 16 13 7 11
-5 28 -6 39 -1 18 7 17 8 -5 7 -14 0 -36 4 -49 8 -19 6 -22 4 -20 -11z"/>
<path d="M4550 388 c0 -9 5 -20 10 -23 13 -8 13 5 0 25 -8 13 -10 13 -10 -2z"/>
<path d="M4575 390 c3 -5 16 -10 28 -9 21 0 21 1 2 9 -28 12 -37 12 -30 0z"/>
<path d="M255 369 c4 -5 -53 -68 -126 -139 -73 -72 -129 -130 -124 -130 6 1
70 61 144 134 103 103 129 134 117 139 -11 4 -15 3 -11 -4z"/>
<path d="M4308 373 c6 -2 9 -10 6 -15 -4 -7 -2 -8 5 -4 13 9 5 26 -12 25 -9 0
-8 -2 1 -6z"/>
<path d="M4652 365 c-11 -13 -8 -15 18 -15 28 0 30 2 16 15 -18 18 -18 18 -34
0z"/>
<path d="M14 348 l-19 -23 23 19 c21 18 27 26 19 26 -2 0 -12 -10 -23 -22z"/>
<path d="M39 319 l-44 -41 48 38 c26 21 47 40 47 41 0 8 -11 0 -51 -38z"/>
<path d="M815 340 c27 -12 35 -12 35 0 0 6 -12 10 -27 9 -25 0 -26 -1 -8 -9z"/>
<path d="M4581 336 c-9 -11 -6 -14 18 -18 26 -4 29 -2 20 14 -12 22 -23 23
-38 4z"/>
<path d="M4670 336 c0 -2 7 -6 15 -10 8 -3 15 -1 15 4 0 6 -7 10 -15 10 -8 0
-15 -2 -15 -4z"/>
<path d="M383 301 l-21 -27 46 -3 c46 -2 46 -1 28 16 -13 13 -20 15 -23 6 -3
-7 -9 -13 -14 -13 -5 0 -2 11 7 25 22 34 4 31 -23 -4z"/>
<path d="M588 305 c-3 -14 -2 -25 3 -25 12 0 30 36 22 44 -12 12 -21 6 -25
-19z"/>
<path d="M5033 313 c9 -9 20 -13 24 -9 4 4 1 11 -7 16 -25 16 -35 11 -17 -7z"/>
<path d="M64 288 l-29 -33 33 29 c17 17 32 31 32 33 0 8 -8 1 -36 -29z"/>
<path d="M540 310 c-8 -5 -10 -10 -5 -10 6 0 17 5 25 10 8 5 11 10 5 10 -5 0
-17 -5 -25 -10z"/>
<path d="M4521 316 c2 -2 18 -6 34 -10 22 -5 26 -4 15 4 -14 9 -59 15 -49 6z"/>
<path d="M4518 283 c7 -3 16 -2 19 1 4 3 -2 6 -13 5 -11 0 -14 -3 -6 -6z"/>
<path d="M340 252 c0 -6 19 -13 43 -15 l42 -4 -46 0 c-44 1 -69 -7 -69 -21 0
-4 32 -6 72 -4 52 3 77 10 92 23 19 19 19 19 -41 19 -34 0 -68 3 -77 6 -9 3
-16 1 -16 -4z"/>
<path d="M24 188 l-29 -33 33 29 c17 17 32 31 32 33 0 8 -8 1 -36 -29z"/>
<path d="M3691 204 c0 -11 3 -14 6 -6 3 7 2 16 -1 19 -3 4 -6 -2 -5 -13z"/>
<path d="M5238 203 c7 -3 16 -2 19 1 4 3 -2 6 -13 5 -11 0 -14 -3 -6 -6z"/>
<path d="M5313 203 c9 -2 25 -2 35 0 9 3 1 5 -18 5 -19 0 -27 -2 -17 -5z"/>
<path d="M5388 203 c7 -3 16 -2 19 1 4 3 -2 6 -13 5 -11 0 -14 -3 -6 -6z"/>
<path d="M5546 194 c-10 -25 -7 -34 9 -34 8 0 15 -4 15 -9 0 -5 6 -9 13 -8 33
1 47 -4 47 -19 0 -10 -6 -14 -15 -10 -22 8 -18 -3 8 -24 37 -30 13 -33 -46 -6
-62 30 -167 37 -167 12 0 -8 16 -20 35 -26 20 -7 32 -16 29 -22 -4 -6 0 -14 7
-19 9 -5 -9 -9 -48 -9 -35 0 -63 -4 -63 -8 0 -13 531 -15 563 -3 16 6 26 7 23
2 -6 -8 73 -3 83 5 12 11 -38 34 -66 31 -38 -4 -45 10 -8 15 39 5 25 23 -16
20 -25 -1 -41 4 -54 18 -10 11 -13 20 -7 20 23 0 11 15 -33 44 -44 27 -83 29
-70 4 4 -7 -3 -2 -15 12 -17 19 -30 24 -61 22 -21 -2 -54 -4 -71 -5 -18 -1
-45 2 -59 6 -20 5 -28 3 -33 -9z m189 -34 c-3 -6 0 -13 8 -16 17 -6 11 -47 -6
-41 -15 5 -21 67 -7 67 6 0 8 -5 5 -10z m-70 -30 c3 -5 2 -10 -4 -10 -5 0 -13
5 -16 10 -3 6 -2 10 4 10 5 0 13 -4 16 -10z m45 0 c0 -5 -2 -10 -4 -10 -3 0
-8 5 -11 10 -3 6 -1 10 4 10 6 0 11 -4 11 -10z m160 -20 c0 -13 -11 -13 -30 0
-12 8 -11 10 8 10 12 0 22 -4 22 -10z m-147 -37 c-7 -2 -19 -2 -25 0 -7 3 -2
5 12 5 14 0 19 -2 13 -5z m47 3 c0 -3 -4 -8 -10 -11 -5 -3 -10 -1 -10 4 0 6 5
11 10 11 6 0 10 -2 10 -4z m60 -16 c12 -7 10 -9 -8 -7 -12 0 -22 5 -22 9 0 11
12 10 30 -2z m40 0 c0 -5 -2 -10 -4 -10 -3 0 -8 5 -11 10 -3 6 -1 10 4 10 6 0
11 -4 11 -10z m7 -46 c-3 -3 -12 -4 -19 -1 -8 3 -5 6 6 6 11 1 17 -2 13 -5z"/>
<path d="M585 190 c-3 -5 1 -10 9 -10 9 0 16 5 16 10 0 6 -4 10 -9 10 -6 0
-13 -4 -16 -10z"/>
<path d="M678 183 c7 -3 16 -2 19 1 4 3 -2 6 -13 5 -11 0 -14 -3 -6 -6z"/>
<path d="M3724 177 c3 -10 6 -32 6 -48 0 -16 4 -29 9 -29 12 0 2 72 -12 85 -7
7 -8 4 -3 -8z"/>
<path d="M5288 133 c7 -3 16 -2 19 1 4 3 -2 6 -13 5 -11 0 -14 -3 -6 -6z"/>
<path d="M3900 118 c0 -10 17 -10 24 0 3 5 -1 9 -9 9 -8 0 -15 -4 -15 -9z"/>
<path d="M4097 114 c-9 -9 -9 -76 -1 -98 5 -12 21 -16 71 -16 l64 0 -3 58 -3
57 -60 3 c-34 2 -64 0 -68 -4z"/>
<path d="M193 15 c0 -8 4 -12 9 -9 4 3 8 9 8 15 0 5 -4 9 -8 9 -5 0 -9 -7 -9
-15z"/>
<path d="M300 9 c0 -5 10 -9 22 -9 12 0 18 3 14 7 -10 11 -36 12 -36 2z"/>
<path d="M355 10 c3 -5 10 -10 16 -10 5 0 9 5 9 10 0 6 -7 10 -16 10 -8 0 -12
-4 -9 -10z"/>
<path d="M402 15 c9 -9 88 -15 88 -7 0 5 -21 9 -47 11 -26 1 -45 -1 -41 -4z"/>
<path d="M858 3 c6 -2 18 -2 25 0 6 3 1 5 -13 5 -14 0 -19 -2 -12 -5z"/>
</g>
</svg>
