<?xml version="1.0" encoding="UTF-8" standalone="no"?>
<svg
   version="1.0"
   width="624.000000pt"
   height="351.000000pt"
   viewBox="0 0 624.000000 351.000000"
   preserveAspectRatio="xMidYMid meet"
   id="svg1243"
   sodipodi:docname="scan0.svg"
   inkscape:version="1.1.2 (0a00cf5339, 2022-02-04)"
   xmlns:inkscape="http://www.inkscape.org/namespaces/inkscape"
   xmlns:sodipodi="http://sodipodi.sourceforge.net/DTD/sodipodi-0.dtd"
   xmlns="http://www.w3.org/2000/svg"
   xmlns:svg="http://www.w3.org/2000/svg">
  <defs
     id="defs1247" />
  <sodipodi:namedview
     id="namedview1245"
     pagecolor="#ffffff"
     bordercolor="#666666"
     borderopacity="1.0"
     inkscape:pageshadow="2"
     inkscape:pageopacity="0.0"
     inkscape:pagecheckerboard="0"
     inkscape:document-units="pt"
     showgrid="false"
     inkscape:zoom="1.4050481"
     inkscape:cx="416"
     inkscape:cy="234.15569"
     inkscape:window-width="1920"
     inkscape:window-height="1055"
     inkscape:window-x="0"
     inkscape:window-y="0"
     inkscape:window-maximized="1"
     inkscape:current-layer="svg1243" />
  <metadata
     id="metadata933">
Created by potrace 1.15, written by Peter Selinger 2001-2017
</metadata>
  <g
     transform="translate(0.000000,351.000000) scale(0.100000,-0.100000)"
     fill="#000000"
     stroke="none"
     id="g1241"
     style="fill:#454a56;fill-opacity:1">
    <path
       d="M2 2693 l3 -817 85 -34 c105 -42 153 -66 141 -70 -6 -2 -20 2 -31 8 -32 17 -115 3 -149 -26 -38 -32 -51 -31 -21 1 13 14 41 31 62 37 50 15 32 28 -39 28 l-52 0 0 -250 c-1 -249 -1 -250 19 -238 16 10 24 10 38 1 9 -7 43 -27 74 -45 35 -20 58 -41 60 -53 3 -22 24 -24 133 -12 33 3 13 -3 -45 -13 -58 -10 -144 -19 -192 -19 l-88 -1 0 -111 0 -112 70 5 c38 3 77 12 87 19 11 9 14 10 9 1 -4 -6 -2 -12 3 -12 6 0 11 -6 11 -14 0 -9 13 -16 33 -19 31 -4 31 -4 -5 -5 -28 -2 -38 2 -38 13 0 19 1 19 -62 -4 -29 -10 -66 -22 -81 -25 l-28 -7 2 -179 c2 -172 2 -179 21 -169 10 5 16 14 13 19 -4 6 1 7 11 3 12 -4 15 -3 10 5 -4 8 0 12 11 12 14 0 10 -8 -17 -30 -19 -16 -38 -30 -41 -30 -3 0 -6 -14 -7 -30 0 -21 3 -28 11 -24 8 5 8 3 -1 -7 -8 -8 -12 -46 -12 -108 l0 -94 23 19 22 19 -22 -26 c-20 -22 -23 -36 -23 -108 0 -78 1 -83 18 -70 16 13 16 12 -1 -7 -12 -14 -17 -35 -16 -68 l2 -46 619 0 c372 0 618 4 618 10 0 17 -62 21 -325 20 -143 -1 -370 0 -505 1 -135 1 -269 -1 -297 -4 -33 -3 -55 -2 -59 5 -4 6 -1 8 7 5 8 -3 43 23 83 62 l70 66 -54 -60 -53 -60 27 -3 c15 -2 33 1 39 6 7 6 182 10 422 11 402 2 424 4 425 33 0 4 -17 9 -37 11 l-38 4 38 1 c25 1 37 7 37 17 0 11 -5 12 -24 5 -17 -6 -26 -5 -30 3 -3 9 -7 8 -15 -3 -8 -11 -13 -12 -19 -3 -9 14 -102 14 -102 -1 0 -6 -4 -5 -9 2 -10 16 -81 13 -93 -3 -5 -7 -11 -6 -15 1 -10 13 -107 19 -99 6 3 -6 -1 -13 -10 -16 -21 -8 -24 -8 -24 4 0 20 65 50 105 49 32 0 36 -2 20 -9 -13 -6 26 -8 104 -7 77 1 126 6 128 13 2 6 -16 9 -49 7 -46 -2 -50 -1 -28 9 14 6 57 10 97 9 l71 -3 9 44 9 43 -41 6 -40 6 43 1 c49 2 58 21 10 20 -18 0 -62 1 -98 3 -56 2 -50 4 40 8 108 6 144 -2 114 -25 -13 -11 -21 -45 -39 -183 l-4 -34 20 22 c23 25 34 27 25 6 -3 -8 -1 -15 4 -15 6 0 10 12 10 26 0 16 -4 23 -11 18 -16 -10 -30 18 -17 34 9 10 13 10 19 0 14 -23 19 -3 25 108 3 67 2 104 -4 96 -11 -16 -89 -22 -89 -7 0 6 12 9 27 7 16 -2 33 3 42 12 36 35 47 -26 33 -175 -4 -40 -3 -47 9 -43 11 4 14 -1 12 -23 -2 -15 1 -36 6 -45 5 -12 5 -18 -1 -18 -6 0 -15 15 -20 33 -8 28 -9 29 -10 7 -1 -14 -4 -35 -7 -47 -6 -20 -3 -23 25 -23 l31 0 1 58 c0 31 4 107 7 168 l7 112 -23 -3 c-18 -2 -20 0 -11 11 6 8 25 14 42 14 44 0 22 18 -28 23 l-40 4 45 1 c26 1 50 -1 55 -6 6 -4 33 -5 60 -1 28 3 44 7 38 7 -30 4 -9 22 25 22 l37 -1 -25 -14 c-24 -13 -24 -14 -4 -15 12 0 36 -3 53 -6 24 -5 31 -3 31 10 0 9 -4 16 -10 16 -5 0 -10 7 -10 15 0 8 -5 15 -10 15 -6 0 -5 8 2 20 11 17 10 22 -1 29 -8 5 -9 10 -3 12 7 3 8 19 3 44 -4 22 -6 63 -4 90 4 64 -5 117 -18 109 -5 -3 -7 -15 -4 -27 4 -16 4 -18 -3 -7 -6 8 -13 39 -17 68 -4 28 -10 50 -13 48 -4 -2 -8 15 -10 37 -1 23 -9 75 -18 116 -8 40 -13 75 -11 78 5 5 67 -133 67 -150 0 -7 7 -23 16 -35 8 -12 13 -26 9 -31 -3 -5 -1 -12 5 -16 5 -3 10 -14 10 -23 0 -10 9 -35 20 -57 11 -22 20 -44 20 -49 0 -14 48 -143 66 -179 8 -16 14 -34 14 -41 0 -6 8 -28 18 -48 11 -20 25 -58 32 -85 15 -57 26 -71 41 -56 8 8 21 8 45 0 30 -9 34 -14 29 -34 -3 -13 -1 -23 5 -23 5 0 9 3 9 8 -4 21 2 42 12 42 6 0 8 -9 4 -20 -5 -14 -2 -20 9 -20 9 0 16 -5 16 -12 0 -6 2 -9 5 -7 2 3 -18 51 -46 108 -46 95 -52 101 -65 84 -12 -16 -13 -16 -8 0 3 9 1 17 -4 17 -6 0 -16 -8 -21 -17 -13 -23 -14 -7 -1 17 6 11 17 17 25 14 8 -4 15 -4 15 -2 0 2 -25 53 -55 112 -31 60 -54 114 -52 120 2 6 10 -1 18 -15 50 -92 60 -109 73 -116 8 -5 22 -34 30 -65 17 -64 28 -89 50 -108 9 -7 16 -23 16 -35 0 -13 5 -25 10 -27 6 -2 17 -21 24 -43 12 -33 12 -41 1 -48 -11 -6 -11 -12 1 -36 8 -16 21 -34 29 -41 8 -7 21 -26 30 -43 12 -24 13 -32 3 -39 -13 -8 8 -12 42 -9 13 2 13 1 0 -8 -8 -6 -24 -8 -35 -5 l-20 6 20 -19 c11 -11 27 -18 35 -16 9 2 26 -7 39 -21 23 -24 80 -38 66 -16 -3 6 -15 10 -26 10 -11 0 -17 5 -14 10 3 6 1 10 -6 10 -7 0 -9 3 -6 7 4 3 0 14 -9 24 -14 15 -14 17 3 15 10 0 21 -6 26 -13 15 -23 121 -73 156 -73 26 0 32 3 23 12 -6 6 -25 11 -42 10 -17 0 -28 3 -25 8 3 5 -3 11 -12 13 -16 4 -16 5 -1 6 9 0 20 -3 23 -9 4 -6 12 -6 24 1 13 9 25 8 48 -4 36 -19 80 -12 62 9 -6 8 -19 14 -29 14 -9 0 -27 9 -40 20 -13 11 -27 20 -32 20 -4 0 -8 7 -8 15 0 8 -9 15 -21 15 -11 0 -28 4 -37 9 -11 6 -21 4 -30 -5 -10 -11 -8 -15 10 -25 13 -7 29 -18 36 -26 11 -11 8 -13 -20 -13 -37 0 -73 21 -73 42 0 7 -24 21 -53 32 -52 18 -71 46 -31 46 11 0 17 -4 14 -10 -3 -5 -1 -10 5 -10 24 0 4 35 -23 40 -27 5 -28 5 -8 22 14 12 36 16 75 15 57 -2 79 -16 29 -18 -25 0 -26 -1 -8 -9 11 -4 29 -6 41 -3 12 2 28 -3 37 -11 8 -9 22 -16 29 -16 7 -1 30 -7 51 -14 38 -14 48 -8 22 14 -8 7 -21 10 -29 7 -7 -3 -17 -2 -22 3 -16 15 -118 67 -147 74 -15 4 -25 10 -22 15 5 10 -64 26 -73 17 -3 -3 5 -14 17 -25 18 -16 19 -20 5 -25 -22 -8 -20 -9 -51 21 -31 31 -56 92 -48 115 4 11 -2 18 -18 22 -18 4 -26 14 -30 41 -3 19 -14 48 -25 63 -25 35 -39 72 -21 55 7 -7 22 -13 32 -13 13 0 17 -5 13 -15 -4 -11 3 -19 22 -26 25 -10 25 -12 7 -18 -18 -7 -18 -9 7 -34 17 -17 33 -24 47 -20 11 3 41 -2 66 -10 38 -13 45 -14 45 -2 0 12 8 11 52 -1 28 -9 65 -13 81 -10 26 5 37 -1 83 -44 29 -27 61 -50 72 -50 10 0 27 -9 37 -20 10 -11 23 -19 29 -17 6 2 25 -2 43 -10 30 -12 57 -3 33 12 -6 4 -8 10 -5 15 5 8 -54 37 -69 32 -14 -4 -76 19 -76 28 0 5 8 7 18 3 14 -5 13 -3 -3 10 -11 9 -16 17 -11 17 6 0 1 6 -9 14 -11 8 -23 12 -27 10 -5 -3 -8 2 -8 10 0 9 4 16 9 16 6 0 9 9 8 20 -1 12 -11 21 -29 25 -16 4 -26 11 -22 16 3 5 -2 9 -11 9 -10 0 -13 5 -9 12 4 7 3 8 -5 4 -6 -4 -20 -2 -29 6 -15 12 -16 11 -3 -4 7 -10 10 -18 6 -18 -4 0 -2 -7 5 -15 24 -29 3 -25 -28 5 -25 24 -28 30 -14 31 15 0 15 1 -2 8 -18 7 -18 8 5 25 l24 18 -27 -6 c-15 -3 -30 -1 -33 4 -4 6 -15 8 -24 5 -22 -7 -160 57 -196 91 -14 13 -23 29 -20 34 3 6 -3 10 -14 10 -13 0 -19 5 -15 14 6 16 -33 29 -54 17 -9 -5 -28 -4 -45 1 -22 8 -31 8 -37 -2 -6 -9 -12 -9 -29 -1 -11 7 -21 16 -21 22 0 6 5 7 10 4 6 -3 10 -2 10 4 0 5 -9 9 -20 8 -11 -1 -20 -7 -20 -14 0 -7 -4 -13 -10 -13 -5 0 -10 6 -10 14 0 8 -9 31 -21 50 -22 37 -19 41 25 36 11 -1 15 3 12 9 -5 7 10 11 46 10 48 -2 50 -2 18 -9 -26 -5 -10 -8 63 -11 53 -2 97 -1 97 3 0 4 11 3 25 -2 13 -5 26 -6 29 -2 7 12 96 1 96 -12 0 -6 25 -29 56 -51 31 -22 62 -45 68 -51 6 -5 43 -34 81 -64 39 -29 72 -56 75 -59 3 -3 12 -10 22 -16 9 -5 37 -28 63 -50 47 -39 47 -39 76 -23 16 10 29 12 29 7 0 -6 -9 -13 -20 -16 -22 -6 -26 -18 -10 -28 6 -3 10 -2 10 4 0 6 6 8 14 5 8 -3 12 -12 10 -19 -3 -7 8 -21 25 -31 17 -10 31 -21 31 -24 0 -7 147 -120 156 -120 3 0 3 4 0 9 -7 10 49 9 60 -2 4 -4 18 -7 30 -7 26 0 40 -15 23 -26 -8 -4 -9 -3 -5 4 5 8 -1 12 -16 12 -13 0 -28 4 -34 10 -11 11 -54 2 -54 -11 0 -5 13 -12 29 -15 18 -4 40 -21 57 -44 28 -38 49 -50 89 -55 46 -4 85 -17 79 -26 -3 -5 -10 -7 -15 -4 -5 4 -9 3 -9 -2 1 -16 25 -40 47 -47 12 -4 31 -18 42 -32 23 -29 29 -30 51 -4 16 19 17 19 53 -6 32 -21 41 -37 39 -64 0 -3 25 -6 56 -8 31 -1 52 2 45 6 -7 4 -28 7 -47 7 -29 -1 -36 3 -41 23 -7 30 1 41 9 14 8 -25 36 -37 36 -16 0 8 -4 13 -9 9 -5 -3 -12 4 -16 15 -7 21 -46 37 -64 26 -5 -4 -12 -2 -16 4 -3 5 0 10 7 10 21 0 -35 46 -65 54 -15 3 -25 11 -22 16 3 5 0 12 -6 16 -8 5 -10 2 -5 -7 4 -8 -2 -3 -14 11 -12 14 -19 18 -15 10 6 -13 5 -13 -7 0 -7 9 -57 49 -111 89 -54 41 -102 82 -108 92 -5 10 -19 24 -30 30 -15 8 -19 8 -15 0 11 -17 -3 -13 -34 9 -15 11 -40 24 -55 30 -15 6 -25 13 -21 17 3 4 -10 16 -31 27 -62 35 -52 42 60 41 77 0 109 -4 122 -15 11 -8 16 -10 12 -4 -8 14 17 26 38 18 8 -4 15 -1 15 6 0 8 -10 11 -27 7 -16 -3 -32 1 -41 9 -16 16 -8 21 43 26 22 2 31 9 33 26 2 16 -2 22 -15 23 -15 0 -14 2 5 11 19 10 22 19 22 75 l0 64 -42 -3 c-39 -3 -43 -6 -48 -33 -5 -25 -7 -27 -13 -11 -4 10 -13 16 -22 12 -8 -3 -19 2 -23 11 -8 13 -19 15 -54 10 -35 -5 -49 -2 -64 11 -11 10 -34 17 -54 16 -39 -1 -70 20 -70 48 0 10 -4 18 -10 18 -28 0 -26 13 -28 -153 l-2 -99 -37 23 c-21 13 -43 28 -50 34 -35 29 -43 35 -48 35 -4 0 -22 12 -41 26 l-34 26 0 154 0 154 215 0 215 0 0 -87 c0 -92 -4 -103 -14 -39 -9 53 -13 55 -20 9 -9 -57 -4 -143 8 -144 6 0 81 -2 166 -4 85 -2 175 -4 200 -4 l45 -2 -28 -15 c-23 -13 -27 -21 -27 -59 0 -37 3 -45 18 -45 10 0 40 -11 68 -24 111 -53 125 -58 131 -52 4 4 -3 9 -15 13 -12 3 -22 9 -22 13 0 4 -15 11 -32 16 -29 7 -23 9 37 12 54 2 72 0 81 -12 14 -19 31 -21 37 -3 4 10 7 10 18 0 11 -11 11 -13 -1 -13 -7 0 -10 -3 -7 -6 4 -4 18 1 32 10 22 14 25 24 25 73 0 66 11 63 21 -5 6 -45 6 -44 8 21 1 85 21 90 21 5 0 -55 2 -61 15 -48 8 9 16 36 17 63 l3 47 38 0 37 0 0 -55 c0 -47 3 -55 18 -55 20 0 26 -2 427 -126 154 -47 287 -87 295 -88 8 0 19 -7 23 -13 4 -7 18 -13 31 -13 38 0 76 -23 76 -46 0 -12 8 -25 18 -29 38 -15 458 -158 472 -160 8 -1 23 -6 33 -10 10 -4 21 -5 24 -1 4 3 13 0 22 -8 14 -12 18 -12 29 0 13 14 12 15 -8 18 -5 0 -9 4 -7 7 1 3 -11 20 -26 38 -15 19 -26 36 -23 39 8 7 86 10 86 3 0 -4 10 -7 23 -8 96 -2 108 -4 101 -14 -5 -9 1 -10 21 -5 26 7 27 6 15 -9 -11 -13 -11 -18 -1 -24 7 -5 13 -12 14 -17 2 -11 21 -6 25 6 2 5 10 6 18 3 7 -3 11 -9 8 -14 -3 -5 1 -9 8 -9 7 0 2 -9 -12 -20 l-25 -20 24 0 c23 0 23 -1 8 -18 -21 -23 -22 -39 -2 -22 9 7 18 10 22 6 3 -3 17 1 31 10 13 8 27 13 30 9 4 -3 1 -10 -6 -14 -7 -4 -10 -15 -7 -23 6 -14 -1 -16 -40 -12 -54 4 -52 -12 3 -21 20 -4 46 -11 57 -16 66 -30 145 -49 207 -49 50 0 67 3 62 12 -5 8 -2 9 9 5 10 -4 24 -10 32 -13 8 -3 15 -2 15 4 0 17 -57 72 -74 72 -20 0 -21 16 -1 24 8 3 15 1 15 -4 0 -6 5 -10 11 -10 5 0 7 5 4 10 -10 17 77 2 120 -20 22 -11 49 -20 61 -20 12 0 27 -7 34 -15 12 -15 40 -21 40 -9 0 4 -8 13 -17 20 -17 12 -16 13 7 14 14 1 19 4 13 7 -7 2 -13 14 -13 25 0 20 1 20 19 4 19 -17 20 -17 30 3 9 15 8 22 -2 28 -15 9 -32 63 -20 63 5 0 14 -9 21 -20 11 -19 45 -29 39 -12 -6 19 55 0 81 -25 16 -15 9 -19 -45 -25 -21 -3 -30 -1 -26 6 4 7 1 6 -6 0 -10 -9 -10 -17 -2 -33 10 -17 9 -21 -3 -21 -8 0 -18 5 -21 10 -4 6 -11 8 -16 5 -13 -9 -11 -21 4 -23 6 -1 29 -5 49 -8 21 -3 50 -3 65 1 24 6 25 8 11 16 -10 5 -30 9 -44 7 -15 -2 -29 3 -31 10 -6 16 73 17 83 1 4 -7 22 -9 45 -6 47 6 63 -11 20 -19 -17 -4 -31 -10 -31 -15 0 -5 -7 -6 -15 -3 -9 4 -15 0 -15 -10 0 -9 -5 -16 -11 -16 -5 0 -7 5 -3 12 5 8 2 9 -10 5 -10 -4 -25 -7 -34 -8 -10 0 -5 -6 12 -14 20 -8 87 -13 208 -14 l178 -2 -2 183 -3 183 -40 7 c-22 3 -87 16 -145 27 -58 12 -136 28 -175 36 -38 7 -92 19 -120 25 -27 6 -72 15 -99 20 -27 5 -90 18 -140 29 -99 21 -181 37 -236 46 -19 3 -51 10 -70 15 -19 5 -96 16 -170 25 -160 18 -261 35 -275 45 -14 9 -91 36 -145 49 -44 11 -252 53 -719 147 -123 24 -231 49 -242 54 -10 6 -44 16 -76 23 -46 11 -59 18 -61 34 -4 25 -32 39 -43 22 -4 -7 -14 -9 -23 -6 -9 4 -16 2 -16 -4 0 -6 -5 -7 -10 -4 -6 4 -18 1 -26 -6 -12 -10 -17 -10 -23 -1 -9 15 -94 23 -132 12 -21 -6 -29 -4 -34 7 -5 14 -7 14 -19 -3 -12 -15 -16 -16 -30 -5 -14 11 -16 11 -16 -3 0 -13 -5 -16 -19 -11 -14 4 -23 0 -31 -15 -8 -15 -8 -20 2 -22 47 -5 91 -7 228 -12 85 -3 163 -5 173 -5 10 -1 15 -6 12 -12 -7 -10 -389 -12 -427 -2 -15 4 -18 16 -18 82 l0 78 238 -4 c200 -3 327 -13 472 -37 35 -6 273 -45 344 -56 32 -5 62 -7 67 -4 4 2 16 0 26 -5 10 -5 63 -14 118 -21 55 -6 131 -16 169 -21 68 -9 103 -4 58 8 -13 3 -21 10 -19 16 7 23 27 17 42 -12 12 -24 22 -31 43 -30 l27 2 -27 4 c-29 5 -46 32 -27 44 7 4 24 -1 38 -12 35 -25 71 -16 71 19 0 23 1 24 13 8 12 -16 14 -16 31 3 27 30 44 26 48 -11 2 -27 8 -33 28 -35 16 -1 18 0 7 4 -18 5 -18 5 0 18 10 7 18 19 18 26 0 7 6 14 13 17 7 2 12 0 10 -5 -1 -4 3 -18 10 -31 l13 -23 34 21 34 21 3 -38 c2 -32 7 -39 28 -41 14 -2 30 -8 37 -13 7 -7 14 -6 18 1 3 5 19 10 35 10 22 0 27 -4 23 -18 -3 -14 4 -22 29 -30 32 -11 32 -11 3 -6 -16 3 -41 5 -55 5 -20 -1 -22 1 -10 10 12 9 12 10 1 7 -33 -9 -19 -26 26 -31 26 -3 140 -20 253 -36 217 -33 237 -35 205 -21 -14 6 -2 8 37 7 57 -2 84 -17 31 -17 -35 0 -27 -7 17 -14 19 -3 37 0 41 6 4 6 37 10 75 10 42 0 72 4 76 11 6 9 12 9 25 -1 31 -22 47 -26 51 -14 6 19 39 14 45 -7 5 -20 46 -28 194 -37 l83 -6 0 30 c0 21 -6 32 -17 35 -17 4 -17 5 0 6 14 1 17 11 17 61 l0 60 -30 0 c-25 0 -30 4 -30 24 0 23 -3 24 -92 29 -231 15 -315 16 -275 5 33 -10 37 -15 37 -46 0 -33 1 -34 34 -30 23 2 32 0 29 -8 -2 -7 0 -15 6 -19 6 -3 11 2 11 12 0 26 87 24 106 -2 13 -17 14 -17 20 -1 5 13 13 16 33 11 14 -4 29 -12 33 -18 6 -8 10 -9 16 -2 4 6 21 12 37 13 21 1 26 -1 16 -7 -11 -7 -10 -10 5 -14 10 -2 -11 -5 -48 -6 -37 0 -78 -5 -93 -11 -14 -5 -24 -6 -21 -2 3 4 -12 8 -33 9 -58 1 -246 22 -336 38 -44 7 -111 16 -150 20 -112 9 -146 16 -142 28 5 16 45 21 62 7 8 -7 15 -7 19 -1 10 15 -6 20 -85 26 -41 3 -87 7 -104 9 -27 4 -69 7 -245 21 -56 5 -129 23 -97 24 73 4 -91 41 -180 41 -16 0 -20 -5 -16 -21 6 -21 4 -21 -163 -15 -377 13 -583 34 -569 57 4 5 2 9 -4 9 -5 0 -11 -4 -13 -9 -2 -6 -32 -5 -75 2 l-73 11 0 33 c0 26 4 33 19 33 10 0 34 2 52 5 22 3 16 -1 -16 -10 l-50 -14 85 4 c50 2 71 1 50 -4 -29 -6 -21 -8 54 -15 51 -5 92 -4 97 1 5 5 35 6 67 2 32 -3 80 -5 107 -4 28 1 53 -3 57 -8 4 -7 11 -7 21 1 7 7 17 9 20 5 4 -3 35 -5 68 -4 39 2 59 -1 55 -8 -4 -6 6 -8 26 -6 19 3 35 -1 40 -8 6 -9 8 -9 8 1 0 7 13 12 31 12 16 0 28 -4 25 -9 -4 -5 18 -7 51 -4 51 5 177 -4 356 -23 48 -5 57 -4 57 10 0 9 -8 16 -17 16 -98 1 -488 23 -620 35 -92 9 -189 13 -215 9 -34 -4 -48 -2 -48 6 0 7 -14 11 -37 9 -21 -1 -49 3 -63 9 -26 12 7 11 180 -4 36 -3 88 -7 115 -9 28 -1 116 -8 196 -15 80 -7 154 -10 165 -7 10 2 -2 5 -28 6 -55 1 -78 9 -78 26 0 13 -6 13 -450 41 -389 24 -380 23 -380 51 0 18 4 24 15 19 13 -4 12 -1 -2 20 -13 20 -14 27 -4 34 9 5 10 10 2 14 -15 10 -15 136 0 136 8 0 8 4 1 13 -5 7 -6 21 -1 32 4 11 8 15 8 9 1 -17 31 -13 31 4 0 12 3 12 20 -3 15 -13 29 -16 62 -11 24 4 53 7 66 7 12 1 22 4 22 8 0 4 -27 8 -61 8 -33 1 -62 3 -64 4 -1 2 -5 24 -6 48 l-4 43 105 3 c63 1 110 -2 118 -8 10 -8 16 -7 23 4 9 15 11 12 11 -26 0 -49 -2 -54 -17 -49 -9 4 -15 1 -15 -7 0 -10 -4 -9 -16 3 -19 19 -11 38 17 38 16 0 18 2 7 14 -7 8 -15 12 -17 10 -2 -2 -10 1 -18 7 -10 9 -13 3 -13 -35 0 -39 -3 -46 -20 -46 -29 0 -25 -15 5 -16 14 -1 22 2 19 7 -3 5 0 9 5 9 6 0 11 -4 11 -10 0 -5 14 -10 30 -10 19 0 30 -5 30 -14 0 -10 12 -13 48 -9 77 7 235 2 254 -8 10 -6 19 -5 23 1 3 5 17 10 31 10 17 0 24 5 24 20 0 14 7 20 23 20 13 0 29 6 36 13 11 10 13 10 7 0 -4 -7 -3 -13 3 -13 5 0 12 6 14 13 4 9 6 9 6 0 1 -16 41 -17 41 -1 0 6 3 9 6 5 4 -3 13 1 21 9 11 11 31 14 69 11 30 -2 57 -7 61 -11 3 -3 3 -6 -1 -6 -4 0 -1 -6 6 -14 7 -7 19 -11 25 -9 8 3 13 -2 13 -12 0 -16 13 -17 173 -11 303 12 788 25 925 25 73 0 160 3 193 7 l59 7 0 993 0 994 -3120 0 -3120 0 2 -817z m1118 -107 c0 -3 -4 -8 -10 -11 -5 -3 -10 -1 -10 4 0 6 5 11 10 11 6 0 10 -2 10 -4z m-75 -16 c-3 -5 -12 -10 -18 -10 -7 0 -6 4 3 10 19 12 23 12 15 0z m305 0 c0 -5 -2 -10 -4 -10 -3 0 -8 5 -11 10 -3 6 -1 10 4 10 6 0 11 -4 11 -10z m-503 -19 c0 -11 -5 -18 -9 -15 -4 3 -5 11 -1 19 7 21 12 19 10 -4z m43 3 c0 -8 -4 -12 -10 -9 -5 3 -10 10 -10 16 0 5 5 9 10 9 6 0 10 -7 10 -16z m40 -55 c14 0 -6 -7 -45 -14 -70 -12 -90 -11 -80 5 3 5 19 7 36 5 20 -3 32 1 36 11 4 11 9 12 16 5 6 -6 22 -11 37 -12z m1127 -231 c-8 -32 -14 -38 -41 -43 -17 -3 -53 -2 -81 3 -41 6 -51 11 -53 30 -3 21 -22 32 -22 12 0 -5 -6 -8 -12 -5 -34 11 -94 12 -106 2 -10 -8 -15 -8 -21 1 -4 7 -15 10 -24 6 -20 -7 -22 2 -4 21 10 10 53 13 163 14 l149 1 25 32 25 31 5 -34 c3 -19 2 -51 -3 -71z m544 66 c6 -28 7 -28 9 -4 2 19 4 20 7 7 3 -10 -1 -24 -7 -32 -9 -11 -9 -15 -1 -15 6 0 11 -5 11 -11 0 -5 -4 -7 -10 -4 -5 3 -10 2 -10 -4 0 -5 8 -15 18 -20 19 -11 6 -12 -193 -12 -60 0 -104 -2 -97 -5 6 -3 12 -9 12 -13 0 -11 -94 -3 -98 9 -2 6 -40 10 -93 10 -53 0 -89 4 -89 10 0 6 95 10 264 10 259 0 264 0 259 20 -3 11 -11 20 -18 20 -7 0 -15 6 -18 14 -4 11 -44 14 -207 14 -111 -1 -218 -4 -236 -8 -32 -7 -34 -6 -34 19 l0 26 263 -1 262 -2 6 -28z m73 28 c7 -11 -6 -27 -26 -35 -21 -7 -22 -3 -8 24 11 20 25 25 34 11z m-1104 -76 c0 -17 -2 -18 -10 -6 -8 13 -11 11 -16 -7 -4 -13 -10 -23 -15 -23 -5 0 -9 -7 -9 -15 0 -13 24 -15 153 -16 83 -1 177 -3 207 -4 30 -2 83 -4 118 -4 48 -1 62 -4 62 -16 0 -8 5 -15 10 -15 6 0 10 10 10 23 0 18 2 19 10 7 6 -10 10 -11 10 -2 0 7 13 12 30 12 22 0 30 -5 31 -17 0 -10 2 -30 3 -45 1 -25 0 -26 -16 -11 -11 9 -29 14 -47 11 -17 -2 -32 0 -34 6 -3 6 -4 -1 -3 -16 0 -16 4 -28 9 -28 4 0 7 -11 7 -25 0 -19 5 -25 23 -25 12 0 29 -5 37 -11 12 -8 12 -10 -5 -8 -11 1 -82 1 -159 0 -133 -1 -138 -2 -133 -21 3 -11 1 -20 -5 -20 -5 0 -12 9 -15 20 -4 17 -14 20 -56 20 -40 0 -48 -3 -39 -12 7 -7 12 -17 12 -22 0 -6 -5 -4 -10 4 -9 13 -11 13 -20 0 -8 -12 -10 -11 -10 8 0 12 -5 22 -11 22 -5 0 -7 -6 -3 -12 6 -10 4 -10 -7 0 -7 6 -38 12 -70 12 -36 0 -59 -5 -63 -12 -5 -10 -7 -10 -12 0 -3 6 -19 12 -35 12 -16 0 -29 -5 -29 -12 0 -10 -2 -10 -9 0 -4 8 -12 12 -17 10 -5 -1 -10 5 -12 15 -4 18 10 19 317 15 285 -3 351 0 309 14 -7 3 -12 20 -11 40 l1 36 -299 2 -299 1 -1 -38 c-1 -26 -3 -30 -6 -13 -10 64 -14 72 -31 65 -9 -4 -22 -8 -29 -8 -7 0 -10 -4 -7 -9 3 -4 -4 -8 -16 -8 -20 0 -21 -5 -20 -62 1 -35 -5 -97 -14 -138 -21 -94 -23 -379 -4 -391 7 -5 13 -18 13 -31 l0 -23 410 -5 c226 -3 401 -6 389 -8 -11 -1 -47 -11 -80 -22 -32 -11 -115 -26 -184 -34 l-125 -14 93 -1 92 -1 0 -150 0 -150 -125 0 -125 0 -2 143 c0 78 -1 147 -1 152 0 17 -187 11 -198 -6 -5 -8 -9 -63 -9 -122 l0 -108 -45 33 -45 33 2 95 c2 99 -5 131 -25 111 -14 -14 -47 -14 -47 -1 0 6 -5 10 -10 10 -6 0 -24 13 -40 30 -16 16 -35 30 -41 30 -7 0 -18 8 -25 18 -12 15 -14 8 -15 -48 -2 -93 2 -224 7 -229 2 -2 15 1 28 7 32 14 37 1 43 -106 2 -45 7 -103 12 -127 5 -28 5 -48 -1 -51 -6 -4 -6 -10 1 -17 14 -14 14 -28 0 -24 -6 1 -14 -4 -16 -11 -3 -7 -1 -12 4 -11 22 4 33 -3 33 -21 0 -25 -17 -26 -23 -3 -3 12 -5 10 -6 -7 -1 -20 -3 -22 -11 -10 -9 13 -11 13 -20 0 -8 -13 -10 -12 -11 5 0 11 -3 14 -6 8 -2 -7 -9 -13 -15 -13 -6 0 -3 12 7 26 9 14 15 27 13 29 -2 2 -19 5 -40 8 -30 4 -37 1 -43 -17 -7 -20 -7 -20 -12 -2 -4 15 -7 16 -15 5 -7 -11 -8 -9 -6 6 2 11 7 19 11 17 12 -4 37 25 37 42 0 11 -9 16 -30 16 -22 0 -28 4 -24 15 4 8 17 15 29 15 23 0 42 16 32 27 -3 2 -44 6 -91 7 -63 2 -87 -1 -90 -11 -3 -7 -19 -13 -36 -13 -18 0 -29 4 -25 10 9 15 -32 12 -47 -3 -7 -8 -38 -17 -67 -20 -30 -4 -59 -11 -65 -17 -5 -5 -15 -10 -20 -10 -6 0 -4 5 4 10 9 6 10 10 3 10 -6 0 -15 -5 -18 -10 -10 -16 -35 -12 -29 5 8 19 -5 19 -30 0 -11 -8 -40 -15 -65 -15 -42 0 -43 1 -25 15 17 13 15 14 -33 15 -29 0 -53 -4 -53 -10 0 -5 -10 -10 -22 -11 -22 0 -22 -1 -3 -9 17 -7 16 -9 -10 -10 -60 -3 -77 -7 -85 -20 -7 -11 -148 -33 -159 -24 -2 2 12 10 30 18 105 46 197 86 222 95 15 6 27 16 27 22 0 18 44 49 52 36 4 -7 12 -5 23 6 9 10 25 17 36 17 12 0 23 10 29 26 10 26 5 48 -10 39 -4 -3 -10 4 -13 15 -4 16 -10 18 -38 10 -19 -4 -59 -11 -89 -14 -53 -5 -54 -5 -25 9 24 11 26 14 10 15 -16 1 -12 5 15 21 l35 20 -75 -6 c-70 -5 -77 -3 -105 20 l-30 25 35 0 c19 0 49 2 65 4 17 2 37 4 45 5 12 1 15 10 12 36 -4 30 -1 35 17 35 13 0 21 6 21 16 0 14 -3 14 -15 4 -13 -10 -15 -9 -15 8 0 16 4 20 18 15 12 -4 14 -3 7 5 -5 5 -19 12 -30 14 -12 2 -21 13 -23 26 -6 39 -5 39 186 -108 39 -30 71 -59 72 -63 0 -5 -4 -5 -10 -2 -6 3 -10 2 -10 -4 0 -17 22 -24 31 -10 12 20 11 2 -2 -22 -8 -15 -6 -27 10 -53 12 -18 18 -35 15 -38 -3 -4 -1 -9 5 -13 6 -3 11 0 11 7 0 10 2 10 9 -1 10 -15 31 -7 30 12 0 8 -2 8 -6 -1 -8 -21 -32 18 -33 52 0 25 -2 27 -16 15 -14 -12 -16 -11 -12 6 2 13 12 20 28 21 14 0 32 4 39 9 11 6 13 2 7 -19 -4 -15 -2 -26 4 -26 5 0 26 -16 46 -36 20 -19 42 -33 49 -30 17 6 44 -14 27 -21 -13 -5 -7 -23 9 -23 6 0 7 5 3 11 -4 8 1 9 16 4 17 -6 21 -4 14 6 -6 11 -4 11 9 0 15 -12 19 -12 32 5 20 27 25 135 6 142 -7 2 -97 66 -126 89 -140 113 -204 167 -200 173 8 12 -12 31 -36 32 -13 1 -32 8 -42 17 -16 13 -20 13 -29 1 -8 -13 -9 -12 -5 1 3 9 1 21 -5 27 -8 8 -5 9 11 5 16 -4 21 -1 21 15 0 11 11 34 25 50 l25 29 -38 7 c-21 3 -38 1 -40 -4 -2 -6 -8 -10 -13 -10 -6 0 -7 5 -4 10 11 18 -25 10 -45 -10 -11 -11 -20 -16 -20 -11 0 16 54 47 80 46 14 -1 60 -5 103 -9 68 -7 76 -6 71 8 -6 14 21 16 257 17 145 0 258 3 252 6 -7 2 -13 11 -13 18 0 7 -6 15 -12 18 -10 4 -10 7 0 18 6 7 12 21 12 30 0 10 18 33 41 51 32 27 43 44 50 79 15 80 13 90 -18 84 -37 -7 -388 -6 -407 1 -8 3 -25 -1 -38 -10 -29 -21 -59 -21 -52 -1 4 8 1 15 -5 15 -6 0 -11 -8 -12 -17 0 -12 -2 -13 -6 -5 -3 9 -12 4 -29 -15 -19 -22 -24 -24 -24 -10 0 9 4 17 10 17 5 0 7 21 3 50 l-6 50 179 -2 c147 -1 162 -3 84 -7 l-95 -6 58 -9 c47 -7 266 -3 287 6 3 1 -24 4 -60 8 -60 6 -57 7 35 7 55 0 90 -2 78 -4 -28 -5 -30 -19 -4 -26 25 -6 37 3 45 36 6 25 10 27 64 28 31 0 51 3 45 6 -7 2 -13 21 -13 42 l0 37 70 1 c64 0 70 -2 70 -21z m60 2 c0 -13 -23 -5 -28 10 -2 7 2 10 12 6 9 -3 16 -11 16 -16z m380 -138 c11 -7 7 -10 -17 -10 -18 0 -33 5 -33 10 0 13 30 13 50 0z m298 -30 c4 -12 2 -13 -9 -3 -8 6 -25 13 -39 16 -17 4 -15 5 9 4 21 -1 36 -8 39 -17z m-441 -141 c2 -16 -1 -19 -9 -11 -5 5 -7 15 -4 21 10 15 12 14 13 -10z m-57 -8 c0 -11 5 -23 11 -27 8 -4 7 -9 -2 -15 -27 -17 -39 -9 -39 26 0 24 5 35 15 35 8 0 15 -9 15 -19z m1370 -28 c-1 -31 -3 -35 -11 -20 -8 13 -14 15 -30 7 -15 -9 -19 -7 -19 5 0 9 -9 15 -24 15 -14 0 -27 4 -30 8 -3 5 -27 6 -53 2 -27 -3 -64 -3 -82 1 -19 4 -44 4 -55 -1 -12 -4 -29 -5 -38 -1 -9 3 -39 4 -66 3 -40 -3 -52 -8 -62 -28 -19 -34 -32 -30 -26 9 2 17 5 33 5 35 1 1 111 2 246 2 l245 0 0 -37z m-1303 -13 c5 -19 14 -20 119 -20 l114 0 0 -166 0 -166 -132 5 c-73 3 -148 6 -165 6 -26 1 -33 5 -33 21 0 21 17 25 105 23 56 -2 55 -1 55 -18 0 -13 13 -15 73 -13 l72 3 3 143 3 142 -150 0 c-89 0 -152 4 -156 10 -4 6 8 10 30 10 32 0 36 3 30 20 -5 15 -2 20 10 20 9 0 19 -9 22 -20z m120 4 c-3 -3 -12 -4 -19 -1 -8 3 -5 6 6 6 11 1 17 -2 13 -5z m-262 -14 c-3 -5 -12 -10 -18 -10 -7 0 -6 4 3 10 19 12 23 12 15 0z m570 -30 c-3 -5 -14 -10 -23 -10 -15 0 -15 2 -2 10 20 13 33 13 25 0z m-97 -7 c-10 -2 -26 -2 -35 0 -10 3 -2 5 17 5 19 0 27 -2 18 -5z m972 -13 c0 -13 29 -10 -232 -17 -213 -5 -244 -2 -221 20 11 11 453 8 453 -3z m-1995 -10 c-3 -5 -18 -10 -33 -9 -24 0 -25 1 -7 9 28 12 47 12 40 0z m1048 -17 c-13 -2 -33 -2 -45 0 -13 2 -3 4 22 4 25 0 35 -2 23 -4z m-454 -90 c0 -49 -3 -82 -6 -75 -2 6 -9 9 -15 6 -5 -4 -5 4 2 16 7 13 8 20 2 16 -16 -10 -26 15 -11 26 11 7 11 11 2 15 -7 2 -13 9 -13 14 0 6 5 7 10 4 6 -3 10 3 10 14 0 21 10 51 16 51 2 0 4 -39 3 -87z m679 74 c23 -1 44 3 46 8 2 6 9 5 17 -2 7 -7 32 -13 55 -13 24 0 45 5 48 13 5 10 7 10 12 0 7 -16 104 -18 104 -2 0 8 5 8 15 -1 26 -22 17 -26 -45 -22 l-60 4 0 -45 0 -45 74 -4 c41 -2 106 2 143 8 37 6 58 12 46 13 -13 0 -23 6 -23 12 0 8 19 9 63 5 34 -3 80 -5 102 -4 22 1 58 1 80 0 22 -1 187 -2 368 -3 l327 -1 -1 -32 c-1 -17 -5 -42 -9 -56 l-8 -25 -1 25 c-2 36 -16 53 -45 57 -24 3 -26 1 -26 -32 0 -19 -4 -35 -10 -35 -5 0 -10 -11 -10 -24 0 -18 8 -27 27 -33 27 -9 27 -10 5 -15 -12 -4 -22 -2 -22 3 0 16 -100 11 -106 -6 -4 -10 -17 -13 -48 -10 -28 3 -50 -1 -62 -10 -25 -19 -34 -19 -34 0 0 8 -4 15 -10 15 -5 0 -10 -4 -10 -9 0 -6 -15 -11 -32 -13 -23 -2 -36 -10 -43 -25 -10 -25 -35 -31 -35 -10 0 19 -36 47 -47 36 -11 -11 -43 -1 -43 13 0 5 -26 9 -57 8 -144 -4 -193 0 -193 14 0 24 47 27 365 29 298 2 306 2 303 22 -2 12 -17 25 -43 34 -22 8 -41 19 -43 23 -2 4 -8 8 -13 8 -6 0 -7 -4 -4 -10 4 -6 -25 -10 -81 -10 -102 0 -110 8 -11 11 37 1 70 6 73 10 6 11 11 11 -298 9 -229 -1 -247 0 -252 17 -3 10 -4 -143 -2 -340 l4 -359 -21 6 c-12 3 -52 9 -89 12 -61 6 -66 5 -65 -12 1 -11 -4 -19 -13 -19 -18 0 -40 -17 -33 -27 2 -5 -1 -8 -6 -8 -6 0 -11 7 -11 15 0 8 -5 15 -10 15 -13 0 -49 -21 -69 -39 -12 -11 -17 -10 -28 5 -12 16 -13 16 -13 1 0 -9 -3 -17 -8 -17 -10 0 -31 -51 -34 -83 -2 -26 -5 -28 -47 -25 -45 3 -68 22 -30 25 12 1 24 4 26 7 3 3 8 43 12 88 l6 83 98 3 c62 2 95 6 92 13 -4 5 -1 17 6 25 10 12 9 17 -6 28 -12 9 -14 15 -7 20 7 4 8 15 3 29 -9 26 12 219 29 262 6 17 8 46 4 69 -6 36 -5 39 15 33 11 -3 21 -1 21 5 0 5 4 7 9 3 5 -3 12 -1 16 5 8 13 -64 13 -85 0 -9 -5 -19 -5 -25 0 -17 14 -125 6 -135 -10 -7 -11 -14 -10 -44 4 -27 13 -41 14 -55 6 -13 -7 -22 -7 -26 0 -4 6 -53 10 -116 10 -91 0 -109 2 -109 15 0 14 24 15 178 14 240 -3 284 -1 277 11 -3 6 1 10 9 10 9 0 16 9 16 21 0 11 5 17 10 14 6 -3 10 -1 10 4 0 6 -4 11 -10 11 -5 0 -10 10 -10 21 0 19 -2 20 -17 8 -10 -8 -14 -9 -10 -2 4 6 2 15 -4 19 -6 3 -15 1 -19 -6 -5 -9 -13 -9 -27 -2 -10 6 -31 9 -46 8 -15 -2 -27 1 -27 5 0 5 12 9 26 9 23 0 25 3 22 42 -3 48 -15 55 -74 43 -28 -5 -34 -10 -35 -33 -1 -27 -1 -27 -8 3 -6 28 -9 30 -54 30 -31 -1 -52 -6 -57 -15 -7 -10 -10 -11 -10 -2 0 8 -18 12 -55 12 -37 0 -55 -4 -56 -12 0 -10 -2 -10 -6 0 -3 7 -24 12 -54 12 l-49 0 0 -41 0 -40 113 1 c246 2 289 1 284 -12 -2 -7 -11 -11 -18 -9 -8 2 -27 3 -44 1 -16 -1 -46 -2 -65 -2 -19 -1 -42 -7 -51 -15 -14 -12 -17 -12 -22 2 -4 8 -11 15 -17 15 -7 0 -7 -6 0 -21 7 -11 8 -24 4 -27 -4 -4 -9 -1 -11 6 -3 6 -9 10 -14 6 -5 -3 -9 4 -9 15 0 50 -71 4 -94 -60 -22 -60 -36 -63 -37 -6 0 37 -1 39 -10 18 -5 -14 -8 -30 -5 -38 3 -7 1 -15 -4 -18 -6 -4 -10 19 -10 57 0 35 -3 92 -6 128 l-6 65 73 0 c41 0 92 2 114 6 22 4 47 4 55 2 8 -3 34 -5 58 -6z m-708 -19 c0 -19 -2 -20 -10 -8 -13 19 -13 30 0 30 6 0 10 -10 10 -22z m1130 6 c0 -8 -4 -12 -10 -9 -5 3 -10 10 -10 16 0 5 5 9 10 9 6 0 10 -7 10 -16z m-473 -66 c-3 -8 -6 -5 -6 6 -1 11 2 17 5 13 3 -3 4 -12 1 -19z m-2274 0 c-23 -11 -31 -28 -13 -28 6 0 10 -7 10 -15 0 -19 -7 -19 -26 0 -13 13 -12 17 6 35 11 11 26 20 33 19 6 0 2 -5 -10 -11z m-78 -38 c-3 -5 -12 -10 -18 -10 -7 0 -6 4 3 10 19 12 23 12 15 0z m155 0 c0 -5 -2 -10 -4 -10 -3 0 -8 5 -11 10 -3 6 -1 10 4 10 6 0 11 -4 11 -10z m180 -11 c0 -6 -4 -7 -10 -4 -5 3 -10 11 -10 16 0 6 5 7 10 4 6 -3 10 -11 10 -16z m98 -2 c12 -11 22 -24 22 -29 0 -4 -10 2 -21 13 l-22 22 -13 -29 c-9 -21 -13 -24 -13 -10 -1 12 -6 16 -16 12 -8 -3 -15 -1 -15 3 0 5 -3 17 -6 25 -9 24 55 18 84 -7z m-463 -7 c3 -5 1 -10 -4 -10 -6 0 -11 5 -11 10 0 6 2 10 4 10 3 0 8 -4 11 -10z m1888 -27 c-13 -2 -33 -2 -45 0 -13 2 -3 4 22 4 25 0 35 -2 23 -4z m-1272 -60 c13 -16 12 -17 -3 -4 -10 7 -18 15 -18 17 0 8 8 3 21 -13z m2056 1 c-3 -3 -12 -4 -19 -1 -8 3 -5 6 6 6 11 1 17 -2 13 -5z m1116 -21 c-7 -2 -19 -2 -25 0 -7 3 -2 5 12 5 14 0 19 -2 13 -5z m-93 -17 c0 -8 -48 -12 -66 -5 -13 5 -7 8 24 8 23 1 42 -1 42 -3z m2280 -26 c0 -5 -4 -10 -10 -10 -5 0 -10 5 -10 10 0 6 5 10 10 10 6 0 10 -4 10 -10z m-980 -18 c0 -16 -13 -22 -26 -11 -7 6 -14 6 -18 0 -3 -5 -15 -7 -27 -4 -16 4 -17 8 -7 14 17 11 78 12 78 1z m-600 -22 c0 -5 -4 -10 -10 -10 -5 0 -10 5 -10 10 0 6 5 10 10 10 6 0 10 -4 10 -10z m-160 -10 c-8 -5 -28 -9 -45 -9 -26 0 -27 2 -10 9 11 5 31 9 45 9 20 1 22 -1 10 -9z m-905 -49 c-3 -6 -11 -11 -16 -11 -5 0 -4 6 3 14 14 16 24 13 13 -3z m33 -26 c-3 -3 -9 2 -12 12 -6 14 -5 15 5 6 7 -7 10 -15 7 -18z m-732 -136 c-1 -149 -1 -152 -26 -168 -23 -15 -24 -15 -17 2 7 18 0 19 -103 15 -83 -2 -110 0 -110 10 0 9 31 12 121 12 l120 0 -3 50 c-2 27 -6 51 -8 54 -3 2 -38 7 -79 10 -41 4 -92 9 -113 12 -37 6 -38 8 -36 45 3 32 7 39 25 39 12 0 24 6 26 13 3 7 6 5 6 -5 1 -12 -6 -18 -19 -18 -24 0 -28 -35 -4 -44 12 -5 14 -1 9 17 l-6 22 19 -22 c21 -24 62 -27 62 -5 0 7 -8 12 -17 11 -31 -3 -43 1 -43 12 0 7 9 9 24 5 16 -4 26 -1 30 10 8 20 26 8 26 -17 0 -14 5 -18 23 -15 12 3 27 5 32 5 6 1 3 6 -5 11 -10 6 -11 10 -2 10 6 0 12 11 12 25 0 26 15 34 23 13 3 -8 6 -6 6 5 1 12 -7 17 -23 17 -14 0 -27 -4 -30 -9 -6 -9 -62 -7 -95 4 -13 4 -21 2 -21 -5 0 -6 -4 -9 -9 -5 -5 3 -16 -2 -24 -10 -21 -20 -22 -20 -24 15 l-2 30 128 0 128 0 -1 -151z m-166 91 c0 -5 -5 -10 -11 -10 -5 0 -7 5 -4 10 3 6 8 10 11 10 2 0 4 -4 4 -10z m-2310 -45 c24 -13 24 -14 5 -21 -11 -4 -23 -9 -27 -11 -4 -2 -10 2 -14 8 -5 8 -3 9 6 4 9 -5 11 -4 6 4 -4 6 -13 11 -19 10 -29 -3 -40 4 -17 11 34 11 32 11 60 -5z m60 5 c0 -5 -7 -10 -16 -10 -8 0 -12 5 -9 10 3 6 10 10 16 10 5 0 9 -4 9 -10z m50 -15 c37 -19 38 -25 3 -25 -35 0 -58 14 -49 29 9 14 11 14 46 -4z m-50 -25 c11 -7 6 -10 -20 -10 -26 0 -31 3 -20 10 8 5 17 10 20 10 3 0 12 -5 20 -10z m580 6 c0 -2 -7 -6 -15 -10 -8 -3 -15 -1 -15 4 0 6 7 10 15 10 8 0 15 -2 15 -4z m516 -18 c8 -7 20 -18 27 -23 40 -35 218 -165 223 -164 4 0 11 -6 16 -15 5 -9 14 -16 21 -16 7 0 18 -9 25 -20 13 -21 38 -29 26 -7 -4 7 -3 9 2 4 5 -5 9 -12 9 -17 0 -14 77 -70 88 -63 5 3 7 1 3 -5 -3 -5 6 -20 21 -31 l28 -20 -63 -1 c-35 0 -73 5 -84 11 -16 9 -19 8 -13 -2 6 -9 3 -11 -9 -6 -10 4 -26 7 -37 7 -10 0 -19 4 -19 9 0 4 12 6 26 3 19 -3 25 -1 20 7 -4 6 0 11 10 11 13 0 14 3 5 14 -9 11 -9 15 1 19 7 3 -3 11 -22 18 -19 7 -37 11 -39 10 -2 -2 -8 4 -12 11 -4 8 -26 20 -48 28 -22 7 -38 16 -36 20 7 11 -27 37 -58 44 -20 5 -27 11 -23 21 3 10 -1 15 -12 16 -10 0 -12 3 -4 6 22 9 12 29 -21 41 -50 18 -67 15 -68 -10 -1 -22 -1 -22 -8 2 -4 15 -3 27 3 29 6 2 15 9 19 15 6 8 10 7 14 -1 7 -18 23 -16 23 2 0 9 -16 23 -35 32 -19 9 -32 20 -29 25 7 11 12 10 30 -4z m14 -137 c0 -5 8 -11 18 -13 9 -2 13 -6 7 -10 -6 -4 -22 2 -35 13 -20 15 -22 19 -7 19 9 0 17 -4 17 -9z m2690 -1 c14 -5 -9 -6 -55 -3 -44 3 -82 7 -84 9 -8 8 115 2 139 -6z m-2595 -60 c16 -7 11 -9 -22 -9 -23 -1 -45 4 -48 9 -8 12 42 12 70 0z m-445 -39 c0 -5 11 -8 25 -5 14 2 25 0 25 -6 0 -5 -23 -10 -51 -10 -45 0 -50 2 -39 15 14 17 40 20 40 6z m-185 -51 c-10 -11 -22 -17 -27 -14 -5 3 1 14 13 25 28 24 38 16 14 -11z m95 6 c0 -6 5 -4 11 4 9 13 10 13 6 0 -2 -8 -9 -15 -14 -15 -6 0 -15 -3 -19 -7 -11 -12 -44 -10 -44 3 0 5 4 7 10 4 5 -3 7 0 4 8 -4 10 2 15 20 15 14 0 26 -6 26 -12z m577 -2 c-3 -3 -12 -4 -19 -1 -8 3 -5 6 6 6 11 1 17 -2 13 -5z m-417 -39 c0 -8 -5 -15 -11 -15 -5 0 -8 4 -5 9 4 5 0 12 -6 14 -8 3 -6 6 5 6 9 1 17 -6 17 -14z m386 -14 c-3 -4 7 -14 22 -21 19 -9 23 -14 13 -18 -8 -3 -17 0 -19 7 -2 6 -10 11 -18 11 -8 0 -14 7 -14 15 0 8 5 15 11 15 5 0 8 -4 5 -9z m359 -1 c3 -5 1 -10 -4 -10 -6 0 -11 5 -11 10 0 6 2 10 4 10 3 0 8 -4 11 -10z m3255 -4 c0 -3 -4 -8 -10 -11 -5 -3 -10 -1 -10 4 0 6 5 11 10 11 6 0 10 -2 10 -4z m-4842 -13 c-15 -2 -42 -2 -60 0 -18 2 -6 4 27 4 33 0 48 -2 33 -4z m4936 1 c26 -10 18 -24 -14 -24 -29 0 -38 9 -23 23 8 9 17 9 37 1z m166 -24 l25 -20 -31 0 c-36 0 -45 6 -37 26 7 18 13 17 43 -6z m-4620 7 c0 -2 -10 -12 -22 -23 l-23 -19 19 23 c18 21 26 27 26 19z m1165 -7 c3 -6 -1 -7 -9 -4 -18 7 -21 14 -7 14 6 0 13 -4 16 -10z m3420 -30 c4 -7 -3 -10 -19 -8 -35 5 -45 18 -13 18 14 0 29 -5 32 -10z m-85 -35 c0 -10 -7 -14 -22 -11 -13 3 -26 5 -30 5 -5 1 -8 6 -8 11 0 6 14 10 30 10 20 0 30 -5 30 -15z m-5060 -15 c-19 -11 -42 -19 -50 -19 -8 0 1 8 20 19 19 11 42 19 50 19 8 0 -1 -8 -20 -19z m5355 -1 c5 -6 1 -9 -10 -10 -11 0 -14 -3 -7 -6 17 -6 15 -33 -2 -33 -8 0 -24 11 -37 25 -27 28 -71 37 -49 10 20 -24 4 -29 -24 -8 -47 34 -34 44 47 37 39 -3 76 -10 82 -15z m103 -37 c2 -7 -3 -12 -12 -12 -9 0 -16 7 -16 16 0 17 22 14 28 -4z m-2375 -9 c-7 -2 -19 -2 -25 0 -7 3 -2 5 12 5 14 0 19 -2 13 -5z m2434 1 c-3 -3 -12 -4 -19 -1 -8 3 -5 6 6 6 11 1 17 -2 13 -5z m408 -4 c3 -5 25 -10 48 -10 23 0 49 -5 57 -10 12 -8 9 -10 -11 -10 -55 0 -118 13 -123 26 -6 16 20 19 29 4z m-52 -7 c-7 -2 -21 -2 -30 0 -10 3 -4 5 12 5 17 0 24 -2 18 -5z m-5989 -28 c-4 -8 -11 -12 -16 -9 -6 4 -5 10 3 15 19 12 19 11 13 -6z m5986 -15 c0 -5 -2 -10 -4 -10 -3 0 -8 5 -11 10 -3 6 -1 10 4 10 6 0 11 -4 11 -10z m70 -4 c0 -9 -7 -12 -20 -9 -11 3 -17 9 -14 14 8 14 34 10 34 -5z m-4356 -42 c4 -10 2 -13 -7 -9 -6 4 -4 0 5 -8 10 -8 15 -17 11 -20 -3 -4 6 -7 21 -7 15 0 34 -7 42 -15 9 -8 13 -15 9 -15 -3 0 -1 -9 4 -19 9 -16 7 -19 -13 -17 -13 0 -22 4 -20 7 2 3 -17 16 -42 29 -34 16 -43 25 -33 31 11 7 11 9 1 9 -8 0 -10 5 -6 12 5 7 2 9 -7 6 -10 -4 -15 1 -15 13 0 24 41 26 50 3z m-86 -52 c2 -7 -2 -10 -12 -6 -9 3 -16 11 -16 16 0 13 23 5 28 -10z m-1528 -2 c8 -5 11 -10 5 -10 -5 0 -17 5 -25 10 -8 5 -10 10 -5 10 6 0 17 -5 25 -10z m1609 -35 c27 -27 3 -26 -35 1 -38 26 -38 26 -9 20 17 -4 36 -14 44 -21z m536 16 c3 -5 2 -12 -3 -15 -5 -3 -9 1 -9 9 0 17 3 19 12 6z m-1827 -8 c-15 -2 -42 -2 -60 0 -18 2 -6 4 27 4 33 0 48 -2 33 -4z m1552 -19 c0 -8 -4 -12 -10 -9 -5 3 -10 10 -10 16 0 5 5 9 10 9 6 0 10 -7 10 -16z m-169 -41 c13 -16 12 -17 -3 -4 -17 13 -22 21 -14 21 2 0 10 -8 17 -17z m-1150 -16 c-10 -9 -11 -8 -5 6 3 10 9 15 12 12 3 -3 0 -11 -7 -18z m-101 9 c0 -2 -7 -9 -15 -16 -13 -11 -14 -10 -9 4 5 14 24 23 24 12z m183 -11 c-3 -9 -8 -14 -10 -11 -3 3 -2 9 2 15 9 16 15 13 8 -4z m1159 -15 c12 -16 31 -30 42 -31 27 -1 106 -37 84 -38 -21 -1 -146 45 -165 61 -7 6 -16 8 -19 5 -9 -9 5 -27 22 -27 8 0 14 -4 14 -10 0 -14 -22 -13 -57 3 -19 8 -27 18 -25 30 2 11 10 16 17 13 7 -2 16 2 19 10 9 24 44 16 68 -16z m-1815 14 c-3 -3 -12 -4 -19 -1 -8 3 -5 6 6 6 11 1 17 -2 13 -5z m1251 -1 c-16 -2 -28 -10 -28 -16 0 -9 -2 -9 -8 0 -4 7 -37 14 -72 16 -43 2 -31 3 35 4 55 0 88 -2 73 -4z m-688 -17 c0 -2 -8 -10 -17 -17 -16 -13 -17 -12 -4 4 13 16 21 21 21 13z m-593 -12 c-3 -3 -12 -4 -19 -1 -8 3 -5 6 6 6 11 1 17 -2 13 -5z m659 -22 c-17 -16 -18 -16 -5 5 7 12 15 20 18 17 3 -2 -3 -12 -13 -22z m258 -6 c-3 -15 -8 -25 -11 -23 -2 3 -1 17 3 31 3 15 8 25 11 23 2 -3 1 -17 -3 -31z m156 24 c0 -5 -2 -10 -4 -10 -3 0 -8 5 -11 10 -3 6 -1 10 4 10 6 0 11 -4 11 -10z m210 -6 c0 -2 -21 -4 -47 -4 -27 0 -43 4 -36 8 12 8 83 4 83 -4z m1081 -1 c13 -17 13 -17 -6 -3 -11 8 -22 16 -24 17 -2 2 0 3 6 3 6 0 17 -8 24 -17z m-1154 -19 c-3 -3 -12 -4 -19 -1 -8 3 -5 6 6 6 11 1 17 -2 13 -5z m-793 -39 c-32 -42 -44 -47 -14 -6 l20 30 -32 4 c-29 3 -27 4 10 5 l43 2 -27 -35z m329 10 c-3 -9 -8 -14 -10 -11 -3 3 -2 9 2 15 9 16 15 13 8 -4z m-163 -5 c0 -5 -7 -7 -15 -4 -8 4 -15 8 -15 10 0 2 7 4 15 4 8 0 15 -4 15 -10z m317 -22 c-3 -8 -6 -5 -6 6 -1 11 2 17 5 13 3 -3 4 -12 1 -19z m678 -34 c8 3 19 -2 26 -10 10 -12 8 -14 -12 -10 -13 3 -33 5 -44 5 -14 1 -16 4 -7 10 10 6 10 10 -3 21 -8 7 -15 17 -15 23 0 5 10 -2 21 -17 12 -15 27 -25 34 -22z m-847 24 c-2 -10 20 -13 85 -14 138 -2 113 -12 -33 -13 -81 -1 -129 2 -126 8 3 5 16 7 27 4 14 -4 25 0 31 11 11 19 19 21 16 4z m875 -2 c4 -10 0 -14 -13 -13 -14 1 -16 4 -8 14 13 16 15 16 21 -1z m-1019 -14 c81 -4 66 -12 -23 -12 -53 0 -80 4 -76 10 4 6 10 8 15 5 5 -3 12 0 16 6 3 6 9 7 13 2 3 -4 28 -9 55 -11z m-418 -50 c-38 -36 -38 -37 -15 -4 12 17 27 32 32 32 5 0 6 8 2 18 -5 14 -4 15 7 4 10 -10 5 -19 -26 -50z m302 43 c-2 -2 -21 -4 -43 -6 -22 -1 -46 -7 -53 -12 -9 -7 -11 -6 -6 6 3 9 20 17 37 19 31 3 71 -2 65 -7z m2002 5 c0 -5 -2 -10 -4 -10 -3 0 -8 5 -11 10 -3 6 -1 10 4 10 6 0 11 -4 11 -10z m-2450 -14 c0 -2 -8 -10 -17 -17 -16 -13 -17 -12 -4 4 13 16 21 21 21 13z m1614 -11 c3 -8 1 -15 -4 -15 -6 0 -10 7 -10 15 0 8 2 15 4 15 2 0 6 -7 10 -15z m-1334 -8 c0 -2 -12 -14 -27 -28 l-28 -24 24 28 c23 25 31 32 31 24z m1897 -13 c-3 -3 -12 -4 -19 -1 -8 3 -5 6 6 6 11 1 17 -2 13 -5z m-1650 -10 c-3 -3 -12 -4 -19 -1 -8 3 -5 6 6 6 11 1 17 -2 13 -5z m61 -1 c-10 -2 -26 -2 -35 0 -10 3 -2 5 17 5 19 0 27 -2 18 -5z m129 -9 c-3 -3 -12 -4 -19 -1 -8 3 -5 6 6 6 11 1 17 -2 13 -5z m123 -14 c0 -5 -7 -10 -16 -10 -8 0 -12 5 -9 10 3 6 10 10 16 10 5 0 9 -4 9 -10z m-490 -12 c0 -5 -18 -8 -39 -6 -22 1 -38 4 -36 7 5 10 75 8 75 -1z m-260 -11 c0 -2 -12 -14 -27 -28 l-28 -24 24 28 c23 25 31 32 31 24z m130 0 c0 -1 -23 -25 -52 -52 l-52 -50 39 45 c41 47 65 69 65 57z m2425 -36 c17 -11 17 -12 2 -7 -10 3 -22 6 -27 6 -4 0 -10 10 -13 23 -5 19 -4 20 6 6 7 -8 21 -21 32 -28z m-2386 6 c-23 -9 -23 -9 -4 -17 17 -8 16 -9 -8 -9 -28 -1 -28 -1 -10 23 10 13 24 21 32 18 10 -4 7 -8 -10 -15z m272 14 c-12 -8 -51 -4 -51 5 0 2 15 4 33 4 22 0 28 -3 18 -9z m312 2 c-13 -2 -35 -2 -50 0 -16 2 -5 4 22 4 28 0 40 -2 28 -4z m85 0 c-10 -2 -28 -2 -40 0 -13 2 -5 4 17 4 22 1 32 -1 23 -4z m-327 -12 c-12 -8 -51 -4 -51 5 0 2 15 4 33 4 22 0 28 -3 18 -9z m116 3 c-3 -3 -12 -4 -19 -1 -8 3 -5 6 6 6 11 1 17 -2 13 -5z m2008 -14 c8 -13 -5 -13 -25 0 -13 8 -13 10 2 10 9 0 20 -4 23 -10z m-2410 -10 c3 -5 -3 -10 -14 -10 -12 0 -21 5 -21 10 0 6 6 10 14 10 8 0 18 -4 21 -10z m130 0 c-3 -5 -14 -10 -23 -10 -15 0 -15 2 -2 10 20 13 33 13 25 0z m131 -1 c3 -6 -9 -9 -30 -7 -20 1 -36 5 -36 9 0 10 59 9 66 -2z m112 -6 c-10 -2 -26 -2 -35 0 -10 3 -2 5 17 5 19 0 27 -2 18 -5z m49 1 c-3 -3 -12 -4 -19 -1 -8 3 -5 6 6 6 11 1 17 -2 13 -5z m133 2 c0 -8 -51 -13 -56 -5 -3 5 9 9 25 9 17 0 31 -2 31 -4z m4749 -27 c1 8 3 12 6 10 9 -9 -7 -49 -18 -42 -6 4 -8 -2 -5 -15 3 -12 1 -23 -6 -26 -8 -3 -7 -7 3 -14 17 -12 -3 -27 -24 -18 -8 3 -15 0 -15 -6 0 -6 -9 -3 -21 8 l-20 18 21 8 c12 4 26 6 30 3 5 -3 11 -1 15 5 3 6 -2 13 -12 16 -37 12 -48 15 -50 15 -6 -2 -44 41 -40 45 2 2 17 -1 34 -6 23 -8 36 -7 59 4 26 14 29 14 36 -2 4 -11 7 -12 7 -3z m-5104 1 c3 -5 1 -10 -4 -10 -6 0 -11 5 -11 10 0 6 2 10 4 10 3 0 8 -4 11 -10z m1230 -8 c-3 -3 -11 0 -18 7 -9 10 -8 11 6 5 10 -3 15 -9 12 -12z m-1545 -7 c-11 -13 -7 -15 26 -15 29 0 35 -3 24 -10 -11 -7 -3 -10 28 -10 26 0 41 4 37 10 -3 6 -1 10 4 10 6 0 11 -4 11 -8 0 -15 47 -31 71 -25 21 6 22 4 12 -9 -7 -8 -10 -18 -6 -21 3 -4 -10 -7 -30 -7 -30 0 -35 3 -32 20 4 19 -2 20 -76 20 -48 0 -79 4 -79 10 0 6 -6 5 -14 -2 -12 -11 -10 -14 13 -20 23 -6 23 -6 -7 -5 -18 1 -36 -3 -40 -8 -4 -6 -15 -16 -24 -24 -16 -12 -18 -11 -18 3 0 10 4 15 9 11 5 -3 29 17 52 45 23 27 44 50 47 50 2 0 -1 -7 -8 -15z m93 8 c-7 -2 -21 -2 -30 0 -10 3 -4 5 12 5 17 0 24 -2 18 -5z m2497 -15 c0 -6 -6 -5 -15 2 -8 7 -15 14 -15 16 0 2 7 1 15 -2 8 -4 15 -11 15 -16z m2696 1 c19 -22 19 -22 -3 -10 -13 6 -23 16 -23 21 0 15 5 12 26 -11z m-5081 -19 c3 -5 -3 -10 -14 -10 -12 0 -21 5 -21 10 0 6 6 10 14 10 8 0 18 -4 21 -10z m2456 -20 c9 0 23 -8 30 -17 12 -15 12 -16 -2 -11 -9 4 -28 0 -42 -7 -28 -14 -36 -6 -43 43 -2 21 -1 21 19 7 12 -8 29 -15 38 -15z m-2398 3 c-7 -2 -19 -2 -25 0 -7 3 -2 5 12 5 14 0 19 -2 13 -5z m-482 -47 c-24 -24 -40 -49 -37 -55 5 -7 1 -8 -9 -5 -12 5 -7 16 27 54 24 26 47 48 53 49 5 1 -10 -19 -34 -43z m292 27 c-7 -2 -21 -2 -30 0 -10 3 -4 5 12 5 17 0 24 -2 18 -5z m555 -27 c3 -3 -23 -5 -57 -5 -59 1 -72 12 -26 21 20 4 73 -7 83 -16z m-529 1 c8 -11 5 -14 -20 -14 -19 0 -25 3 -17 9 9 5 6 8 -10 8 -13 0 -20 -4 -17 -10 7 -11 -6 -13 -30 -4 -13 5 -14 8 -3 15 21 13 84 10 97 -4z m237 -2 c-11 -8 -27 -15 -35 -14 -11 0 -10 3 4 9 15 6 8 9 -30 12 -47 4 -46 4 15 6 59 1 63 0 46 -13z m92 8 c-10 -2 -28 -2 -40 0 -13 2 -5 4 17 4 22 1 32 -1 23 -4z m5302 -63 c13 -9 13 -10 0 -11 -56 -6 -102 -4 -107 4 -3 6 -1 7 5 3 7 -4 12 -2 12 3 0 14 70 14 90 1z"
       id="path935"
       style="fill:#454a56;fill-opacity:1" />
    <path
       d="M838 2173 c6 -2 18 -2 25 0 6 3 1 5 -13 5 -14 0 -19 -2 -12 -5z"
       id="path937"
       style="fill:#454a56;fill-opacity:1" />
    <path
       d="M615 1735 c-26 -26 -34 -65 -12 -66 6 0 33 -4 59 -8 42 -7 47 -6 52 13 3 12 12 30 21 41 15 18 15 17 0 -12 -22 -47 -19 -53 29 -53 25 0 48 -6 55 -14 10 -12 8 -13 -8 -9 -11 3 -32 2 -45 -1 -28 -7 -61 -63 -47 -80 15 -17 75 -50 66 -36 -6 9 -3 10 14 0 12 -6 19 -15 16 -21 -4 -5 1 -9 10 -9 9 0 26 -10 39 -23 l23 -23 1 28 c0 15 -4 28 -10 28 -6 0 -7 -8 -3 -17 5 -14 3 -15 -5 -7 -9 9 -8 18 4 37 9 13 16 29 15 33 -6 34 3 94 14 94 19 0 42 -41 28 -50 -8 -5 -9 -14 -2 -33 13 -33 27 -35 35 -4 6 24 4 33 -5 30 -3 -1 -6 5 -6 13 0 8 5 14 10 14 5 0 7 6 4 14 -4 11 3 13 34 10 29 -4 39 -1 39 9 0 8 10 22 21 33 l22 19 -17 -32 c-16 -32 -16 -33 4 -33 11 0 20 5 20 10 0 6 11 10 24 10 13 0 29 7 36 15 21 26 31 16 13 -12 -17 -27 -17 -28 1 -13 10 8 28 15 40 16 11 1 32 5 46 10 22 8 20 9 -25 17 -27 5 -69 9 -92 10 -22 1 -39 5 -36 10 4 6 -52 12 -87 8 -15 -2 -45 -32 -67 -67 -11 -18 -11 -18 -6 3 3 12 14 29 24 39 32 29 22 34 -56 32 -57 -1 -79 2 -92 15 -20 18 -91 36 -141 37 -22 0 -41 -8 -57 -25z m235 -65 c-10 -18 -9 -24 1 -31 11 -7 11 -9 1 -9 -19 0 -25 25 -12 50 6 12 14 19 17 17 2 -3 -1 -15 -7 -27z m4 -165 c-4 -8 -10 -15 -15 -15 -5 0 -9 7 -9 15 0 8 7 15 15 15 9 0 12 -6 9 -15z"
       id="path939"
       style="fill:#454a56;fill-opacity:1" />
    <path
       d="M1181 1706 c2 -2 26 -7 53 -10 33 -5 46 -4 41 3 -3 6 -27 11 -52 11 -26 0 -44 -2 -42 -4z"
       id="path941"
       style="fill:#454a56;fill-opacity:1" />
    <path
       d="M901 1470 c6 -17 18 -30 27 -30 15 0 15 -2 2 -10 -10 -7 -11 -10 -2 -10 13 0 16 6 26 53 6 25 4 27 -28 27 -34 0 -35 0 -25 -30z"
       id="path943"
       style="fill:#454a56;fill-opacity:1" />
    <path
       d="M975 1490 c-3 -5 -1 -10 4 -10 6 0 11 5 11 10 0 6 -2 10 -4 10 -3 0 -8 -4 -11 -10z"
       id="path945"
       style="fill:#454a56;fill-opacity:1" />
    <path
       d="M1793 1353 c15 -2 37 -2 50 0 12 2 0 4 -28 4 -27 0 -38 -2 -22 -4z"
       id="path947"
       style="fill:#454a56;fill-opacity:1" />
    <path
       d="M1778 1333 c12 -2 30 -2 40 0 9 3 -1 5 -23 4 -22 0 -30 -2 -17 -4z"
       id="path949"
       style="fill:#454a56;fill-opacity:1" />
    <path
       d="M533 1303 c15 -2 25 -9 22 -14 -4 -5 -1 -9 4 -9 6 0 11 7 11 15 0 11 -10 15 -32 14 -31 -2 -31 -2 -5 -6z"
       id="path951"
       style="fill:#454a56;fill-opacity:1" />
    <path
       d="M1748 1293 c12 -2 32 -2 45 0 12 2 2 4 -23 4 -25 0 -35 -2 -22 -4z"
       id="path953"
       style="fill:#454a56;fill-opacity:1" />
    <path
       d="M638 1265 c2 -14 9 -25 14 -25 5 0 7 4 4 9 -4 5 0 11 6 13 8 3 5 9 -8 16 -19 10 -21 9 -16 -13z"
       id="path955"
       style="fill:#454a56;fill-opacity:1" />
    <path
       d="M670 1230 c-8 -5 -12 -12 -9 -15 4 -3 12 1 19 10 14 17 11 19 -10 5z"
       id="path957"
       style="fill:#454a56;fill-opacity:1" />
    <path
       d="M784 1205 c9 -24 -33 -35 -87 -23 -26 5 -47 14 -47 18 0 5 -7 7 -15 4 -8 -4 -15 -17 -15 -31 0 -17 4 -22 13 -16 15 10 147 11 147 0 0 -4 9 -2 20 5 14 9 16 14 7 20 -9 6 -9 8 1 8 6 0 12 7 12 15 0 9 -9 15 -21 15 -15 0 -19 -5 -15 -15z"
       id="path959"
       style="fill:#454a56;fill-opacity:1" />
    <path
       d="M843 1175 c-3 -9 -3 -19 1 -22 8 -9 37 18 30 28 -8 14 -24 11 -31 -6z"
       id="path961"
       style="fill:#454a56;fill-opacity:1" />
    <path
       d="M1000 1170 c0 -5 5 -10 11 -10 5 0 7 5 4 10 -3 6 -8 10 -11 10 -2 0 -4 -4 -4 -10z"
       id="path963"
       style="fill:#454a56;fill-opacity:1" />
    <path
       d="M813 1131 c-10 -15 -9 -20 2 -24 15 -6 30 22 18 34 -5 5 -14 0 -20 -10z"
       id="path965"
       style="fill:#454a56;fill-opacity:1" />
    <path
       d="M1060 1120 c25 -22 38 -24 59 -11 11 7 9 10 -8 16 -11 3 -25 3 -31 0 -5 -3 -10 -1 -10 4 0 6 -7 11 -17 11 -13 0 -11 -4 7 -20z"
       id="path967"
       style="fill:#454a56;fill-opacity:1" />
    <path
       d="M940 1078 c0 -4 4 -8 9 -8 6 0 12 4 15 8 3 5 -1 9 -9 9 -8 0 -15 -4 -15 -9z"
       id="path969"
       style="fill:#454a56;fill-opacity:1" />
    <path
       d="M458 103 c7 -3 16 -2 19 1 4 3 -2 6 -13 5 -11 0 -14 -3 -6 -6z"
       id="path971"
       style="fill:#454a56;fill-opacity:1" />
    <path
       d="M2906 121 c-9 -14 5 -19 34 -10 14 4 20 7 13 8 -6 1 -18 4 -26 7 -8 3 -18 1 -21 -5z"
       id="path973"
       style="fill:#454a56;fill-opacity:1" />
    <path
       d="M0 1844 c0 -9 10 -14 30 -14 17 0 30 2 30 4 0 2 -14 9 -30 15 -24 8 -30 7 -30 -5z"
       id="path975"
       style="fill:#454a56;fill-opacity:1" />
    <path
       d="M4808 1523 c7 -3 16 -2 19 1 4 3 -2 6 -13 5 -11 0 -14 -3 -6 -6z"
       id="path977"
       style="fill:#454a56;fill-opacity:1" />
    <path
       d="M4830 1495 c0 -8 5 -15 10 -15 6 0 10 7 10 15 0 8 -4 15 -10 15 -5 0 -10 -7 -10 -15z"
       id="path979"
       style="fill:#454a56;fill-opacity:1" />
    <path
       d="M5670 1486 c0 -2 9 -6 20 -9 11 -3 20 -1 20 4 0 5 -9 9 -20 9 -11 0 -20 -2 -20 -4z"
       id="path981"
       style="fill:#454a56;fill-opacity:1" />
    <path
       d="M5758 1483 c7 -3 16 -2 19 1 4 3 -2 6 -13 5 -11 0 -14 -3 -6 -6z"
       id="path983"
       style="fill:#454a56;fill-opacity:1" />
    <path
       d="M4101 1393 c0 -55 3 -81 8 -68 5 11 7 23 5 27 -3 4 5 9 16 13 11 3 20 11 20 17 0 5 -7 8 -15 5 -8 -4 -17 -2 -20 3 -4 6 3 10 14 10 13 0 21 7 21 16 0 10 6 14 15 11 8 -4 17 -2 20 3 4 6 -3 10 -14 10 -14 0 -21 6 -21 20 0 15 -7 20 -25 20 -25 0 -25 -1 -24 -87z"
       id="path985"
       style="fill:#454a56;fill-opacity:1" />
    <path
       d="M3881 1393 c1 -51 4 -69 8 -53 4 14 13 24 19 23 7 -2 12 2 12 7 0 6 -7 10 -15 10 -8 0 -15 5 -15 10 0 14 70 1 87 -16 15 -14 17 -28 4 -20 -5 3 -11 -2 -13 -12 -3 -12 6 -26 28 -42 26 -19 34 -32 34 -57 0 -18 5 -33 11 -33 5 0 7 5 4 10 -3 6 -2 10 3 10 6 0 12 -7 16 -15 3 -10 19 -15 45 -15 33 0 40 3 43 23 3 22 24 23 22 1 -1 -7 7 -9 18 -6 10 2 17 10 15 16 -7 17 12 46 26 40 9 -3 12 12 11 58 -1 83 -2 88 -14 88 -7 0 -9 -23 -6 -60 l4 -60 -29 0 c-16 0 -29 -5 -29 -10 0 -7 -7 -7 -22 1 -18 9 -20 9 -15 -4 4 -10 -1 -17 -14 -20 -11 -3 -17 -11 -14 -19 5 -13 -22 -48 -28 -37 -41 72 -45 84 -21 75 10 -4 13 -2 7 7 -4 6 -6 37 -5 67 l4 55 -51 -3 c-32 -3 -51 0 -51 7 0 6 9 11 20 11 28 0 33 2 48 16 15 16 16 28 0 18 -6 -4 -26 -7 -45 -6 -18 1 -33 -3 -33 -8 0 -6 -5 -10 -11 -10 -5 0 -8 4 -5 9 6 9 -16 21 -40 21 -11 0 -14 -17 -13 -77z m59 27 c0 -5 -5 -10 -11 -10 -5 0 -7 5 -4 10 3 6 8 10 11 10 2 0 4 -4 4 -10z m110 -76 c0 -35 -15 -30 -18 7 -2 19 2 28 8 24 5 -3 10 -17 10 -31z"
       id="path987"
       style="fill:#454a56;fill-opacity:1" />
    <path
       d="M6112 1442 c-12 -2 -20 -7 -17 -12 3 -5 9 -54 13 -110 7 -90 6 -100 -9 -100 -15 0 -17 12 -15 87 0 55 -3 88 -10 90 -8 3 -11 -25 -10 -87 l1 -90 -77 0 -78 0 0 91 c0 101 -9 126 -42 127 -23 0 -23 -2 -20 -104 l4 -104 -29 0 -29 0 1 74 c0 41 4 78 8 82 4 4 7 -5 7 -19 0 -15 5 -27 11 -27 6 0 9 14 7 33 -2 20 -8 31 -16 29 -9 -2 -12 4 -7 16 4 16 1 20 -20 20 l-25 0 6 -97 c3 -53 8 -99 11 -103 2 -5 -10 -8 -26 -8 l-31 0 2 93 2 92 3 -87 c2 -49 8 -88 13 -88 12 0 14 189 3 191 -5 1 -20 2 -35 3 -23 2 -26 -1 -23 -24 3 -14 7 -60 9 -102 4 -66 2 -78 -11 -78 -13 0 -14 15 -12 93 2 50 0 97 -4 104 -7 11 -26 11 -191 4 -13 -1 -16 -4 -9 -13 6 -7 11 -46 12 -87 1 -41 4 -78 7 -83 3 -4 -3 -8 -13 -8 -16 0 -18 8 -15 86 3 59 0 84 -7 80 -6 -4 -9 -1 -5 7 3 10 -3 16 -21 19 -14 3 -27 3 -28 -1 -2 -3 -1 -48 2 -99 5 -81 4 -92 -10 -92 -15 0 -17 12 -15 94 3 83 1 95 -15 99 -9 3 -23 0 -29 -7 -9 -8 -14 -8 -17 2 -13 34 -23 -9 -23 -94 0 -73 -3 -94 -14 -94 -10 0 -12 15 -9 65 2 39 0 65 -6 65 -5 0 -12 -24 -14 -52 -3 -45 -4 -41 -5 21 -2 68 -1 73 13 55 12 -16 14 -16 15 -3 0 9 -7 22 -15 29 -28 23 -37 -2 -33 -93 2 -48 -1 -89 -7 -94 -7 -6 -10 25 -10 91 l0 101 -55 2 c-30 1 -80 2 -110 2 -30 -1 -73 -1 -95 -1 -22 0 -48 -5 -57 -9 -9 -5 -19 -5 -22 -1 -3 5 -20 7 -38 6 -18 -1 -47 -2 -64 -3 -27 -1 -30 -4 -28 -28 12 -115 11 -133 -7 -133 -17 0 -19 8 -19 65 0 38 4 65 10 65 7 0 7 7 0 20 -8 15 -17 19 -32 14 -11 -3 -34 -6 -52 -6 l-32 0 4 -70 c3 -43 0 -74 -7 -81 -8 -8 -11 11 -11 71 0 69 -3 82 -16 82 -14 0 -15 -11 -12 -75 2 -52 0 -75 -8 -75 -6 0 -11 8 -11 18 0 84 -5 132 -13 132 -6 0 -11 -30 -11 -67 l-2 -68 -11 65 c-10 60 -13 66 -36 65 -25 0 -25 -1 -22 -72 l4 -73 -31 0 c-29 0 -31 2 -32 38 0 39 -15 124 -19 107 -1 -5 -1 -40 0 -77 1 -37 -3 -69 -9 -73 -7 -4 -11 5 -12 22 -5 108 -7 128 -14 125 -5 -1 -7 -35 -6 -74 1 -40 -1 -69 -6 -65 -9 10 -9 13 -11 85 -3 79 -22 63 -22 -18 0 -47 4 -70 12 -70 6 0 9 -2 6 -5 -3 -3 -13 -3 -22 1 -13 5 -16 19 -14 73 2 36 0 67 -4 69 -5 1 -8 0 -8 -3 0 -3 0 -39 0 -80 0 -60 3 -75 15 -75 8 0 15 -5 15 -11 0 -5 5 -7 11 -3 17 10 183 4 187 -7 2 -5 8 -9 13 -9 6 0 7 5 4 10 -3 6 -2 10 4 10 5 0 11 -6 14 -12 3 -10 7 -10 17 -1 10 9 16 8 27 -3 16 -16 37 -19 28 -4 -4 6 23 10 75 10 45 0 79 -4 76 -9 -9 -14 20 -21 33 -8 8 8 11 8 11 -1 0 -16 87 -16 93 1 4 10 6 10 6 0 1 -15 41 -18 41 -3 0 17 28 11 40 -7 11 -17 11 -17 6 0 -3 11 0 17 9 17 8 0 15 -7 15 -15 0 -13 4 -14 22 -4 16 9 23 9 26 0 5 -14 42 -15 42 0 0 6 6 9 13 6 10 -4 13 2 9 19 -2 13 -8 24 -13 24 -5 0 -8 37 -7 83 l2 82 6 -80 c7 -92 11 -95 15 -10 4 93 4 93 15 75 7 -12 10 -11 17 5 7 19 7 19 13 -3 3 -12 3 -52 2 -87 -3 -48 -7 -65 -18 -65 -9 0 -14 -11 -14 -30 0 -28 20 -45 20 -17 0 6 5 4 11 -5 13 -22 35 -23 47 -2 6 11 16 14 31 9 12 -3 18 -11 15 -17 -4 -7 -2 -8 5 -4 6 4 9 12 6 17 -4 5 1 9 9 9 9 0 16 -7 16 -15 0 -11 9 -15 28 -13 15 1 33 -1 40 -6 7 -4 15 -1 18 8 3 9 12 16 20 16 8 0 11 -6 8 -15 -5 -11 2 -15 26 -15 24 0 31 4 26 15 -4 10 1 15 14 15 13 0 18 -5 14 -15 -4 -8 -1 -15 5 -15 6 0 11 8 11 17 0 15 2 14 15 -3 13 -17 14 -17 15 -1 0 28 60 18 60 -10 0 -8 5 -11 10 -8 6 4 8 11 5 16 -4 5 1 9 9 9 9 0 15 -6 14 -12 -2 -8 7 -13 22 -13 15 0 24 5 22 13 -1 6 5 12 13 12 9 0 12 -6 9 -15 -5 -11 1 -15 25 -15 21 0 31 5 31 15 0 8 7 15 15 15 9 0 12 -6 9 -15 -4 -9 0 -15 9 -15 9 0 22 -3 31 -6 9 -3 16 -1 16 5 0 6 -7 11 -15 11 -8 0 -15 4 -15 8 0 5 10 8 23 6 12 -1 25 -3 30 -3 4 -1 6 -6 5 -12 -3 -13 19 -17 110 -19 50 -2 66 1 76 15 16 22 78 12 69 -11 -3 -9 2 -14 16 -14 12 0 21 6 21 15 0 8 7 15 15 15 8 0 15 5 15 11 0 6 7 4 15 -5 8 -8 15 -22 15 -31 0 -9 4 -14 9 -11 5 4 10 67 10 141 1 74 4 142 7 150 5 11 -1 15 -19 15 -14 0 -29 -4 -32 -10 -3 -5 -1 -10 5 -10 5 0 10 -12 9 -27 -1 -16 2 -62 6 -104 l7 -76 -38 2 -39 3 -3 82 c-2 46 2 96 7 111 11 32 7 37 -27 31z m-221 -118 c-1 -48 -3 -90 -6 -92 -3 -3 -5 39 -5 93 0 54 3 96 6 92 3 -3 5 -45 5 -93z m-1407 64 c11 -44 7 -118 -8 -118 -10 0 -12 12 -8 50 3 29 0 55 -7 63 -6 8 -8 17 -4 20 12 12 21 7 27 -15z m508 -61 c2 -42 0 -77 -4 -77 -5 0 -8 37 -8 82 0 102 8 99 12 -5z m529 19 c5 -6 9 5 10 30 1 68 18 7 18 -68 1 -66 0 -68 -24 -68 -25 0 -25 0 -24 88 1 48 4 74 6 57 3 -16 9 -34 14 -39z m-880 45 c5 9 9 -14 9 -59 0 -55 -3 -73 -12 -70 -9 3 -14 29 -15 74 -1 38 1 63 4 55 5 -11 7 -11 14 0z m199 -61 c0 -62 -2 -70 -19 -70 -16 0 -17 5 -11 38 4 21 10 44 14 50 3 6 2 13 -4 17 -8 5 6 33 18 35 1 0 2 -31 2 -70z m95 -77 c-3 -13 -10 -23 -16 -23 -8 0 -7 5 1 15 10 12 10 15 -1 15 -9 0 -14 12 -15 30 -1 38 13 40 19 3 2 -16 6 4 7 42 l4 70 3 -65 c2 -35 1 -75 -2 -87z m385 136 c0 -5 5 -7 10 -4 6 4 10 -22 10 -69 0 -69 -2 -76 -20 -76 -11 0 -20 7 -20 15 0 18 16 20 23 3 3 -7 5 16 6 52 0 45 -3 59 -9 45 -5 -11 -9 -15 -9 -10 -1 6 -4 20 -7 33 -4 13 -2 22 5 22 6 0 11 -5 11 -11z m270 -129 c6 0 10 27 10 59 0 33 5 63 10 66 6 4 10 -21 10 -69 0 -69 2 -75 23 -79 12 -3 1 -5 -25 -4 l-48 1 2 85 2 86 3 -72 c2 -40 8 -73 13 -73z m-800 65 c0 -51 -3 -65 -15 -65 -11 0 -15 10 -14 38 1 33 2 34 9 12 6 -20 8 -14 9 28 1 75 11 64 11 -13z m100 0 c0 -41 -4 -65 -11 -65 -7 0 -9 10 -7 25 4 17 0 29 -11 35 -14 8 -14 9 2 10 13 0 18 7 17 23 -3 28 -1 37 5 37 3 0 5 -29 5 -65z m160 43 c0 -19 -2 -20 -10 -8 -13 19 -13 30 0 30 6 0 10 -10 10 -22z m137 -10 c-3 -7 -5 -2 -5 12 0 14 2 19 5 13 2 -7 2 -19 0 -25z m473 16 c0 -8 -4 -12 -10 -9 -5 3 -10 10 -10 16 0 5 5 9 10 9 6 0 10 -7 10 -16z m-960 -70 c0 -48 -4 -52 -26 -29 -14 13 -14 16 1 21 13 5 14 9 4 15 -10 6 -10 11 -1 22 7 7 8 18 4 22 -4 5 -1 5 6 1 7 -4 12 -27 12 -52z m960 11 c0 -19 -4 -35 -10 -35 -5 0 -10 16 -10 35 0 19 5 35 10 35 6 0 10 -16 10 -35z m-610 -10 c0 -19 -5 -35 -10 -35 -6 0 -9 12 -6 28 2 15 5 30 5 35 1 4 3 7 6 7 3 0 5 -16 5 -35z m-83 -7 c-3 -8 -6 -5 -6 6 -1 11 2 17 5 13 3 -3 4 -12 1 -19z m353 13 c0 -6 -4 -13 -10 -16 -5 -3 -10 1 -10 9 0 9 5 16 10 16 6 0 10 -4 10 -9z m340 -51 c0 -5 -4 -10 -10 -10 -5 0 -10 5 -10 10 0 6 5 10 10 10 6 0 10 -4 10 -10z m-303 -36 c-3 -3 -12 -4 -19 -1 -8 3 -5 6 6 6 11 1 17 -2 13 -5z m93 2 c0 -11 -19 -15 -25 -6 -3 5 1 10 9 10 9 0 16 -2 16 -4z m97 -12 c-3 -3 -12 -4 -19 -1 -8 3 -5 6 6 6 11 1 17 -2 13 -5z m50 0 c-3 -3 -12 -4 -19 -1 -8 3 -5 6 6 6 11 1 17 -2 13 -5z m110 0 c-3 -3 -12 -4 -19 -1 -8 3 -5 6 6 6 11 1 17 -2 13 -5z m108 -4 c3 -5 -1 -10 -9 -10 -9 0 -16 5 -16 10 0 6 4 10 9 10 6 0 13 -4 16 -10z m118 -7 c-7 -2 -19 -2 -25 0 -7 3 -2 5 12 5 14 0 19 -2 13 -5z m127 -3 c0 -5 -9 -10 -20 -10 -11 0 -20 5 -20 10 0 6 9 10 20 10 11 0 20 -4 20 -10z m63 -7 c-7 -2 -19 -2 -25 0 -7 3 -2 5 12 5 14 0 19 -2 13 -5z m-195 -20 c-10 -2 -28 -2 -40 0 -13 2 -5 4 17 4 22 1 32 -1 23 -4z m52 -3 c0 -5 -4 -10 -10 -10 -5 0 -10 5 -10 10 0 6 5 10 10 10 6 0 10 -4 10 -10z m45 0 c-3 -5 -13 -10 -21 -10 -8 0 -14 5 -14 10 0 6 9 10 21 10 11 0 17 -4 14 -10z"
       id="path989"
       style="fill:#454a56;fill-opacity:1" />
    <path
       d="M5521 1314 c0 -11 3 -14 6 -6 3 7 2 16 -1 19 -3 4 -6 -2 -5 -13z"
       id="path991"
       style="fill:#454a56;fill-opacity:1" />
    <path
       d="M5510 1276 c0 -8 5 -18 10 -21 6 -3 10 3 10 14 0 12 -4 21 -10 21 -5 0 -10 -6 -10 -14z"
       id="path993"
       style="fill:#454a56;fill-opacity:1" />
    <path
       d="M5924 1422 c4 -10 7 -58 7 -105 1 -66 5 -87 15 -87 11 0 14 20 14 89 0 49 3 96 6 105 5 12 0 16 -21 16 -21 0 -25 -4 -21 -18z"
       id="path995"
       style="fill:#454a56;fill-opacity:1" />
    <path
       d="M6013 1373 c4 -38 7 -85 7 -105 0 -26 4 -38 14 -38 11 0 14 17 12 78 -1 42 1 89 5 105 7 24 5 27 -18 27 l-26 0 6 -67z"
       id="path997"
       style="fill:#454a56;fill-opacity:1" />
    <path
       d="M4404 1350 c3 -63 15 -94 17 -44 1 16 0 34 -1 39 -1 6 -2 22 -2 38 0 15 -3 27 -8 27 -5 0 -8 -27 -6 -60z"
       id="path999"
       style="fill:#454a56;fill-opacity:1" />
    <path
       d="M5970 1400 c0 -5 5 -10 11 -10 5 0 7 5 4 10 -3 6 -8 10 -11 10 -2 0 -4 -4 -4 -10z"
       id="path1001"
       style="fill:#454a56;fill-opacity:1" />
    <path
       d="M6163 1350 c0 -36 2 -50 4 -32 2 17 2 47 0 65 -2 17 -4 3 -4 -33z"
       id="path1003"
       style="fill:#454a56;fill-opacity:1" />
    <path
       d="M5138 1374 c-5 -4 -8 -32 -8 -63 1 -43 3 -52 11 -38 11 19 8 113 -3 101z"
       id="path1005"
       style="fill:#454a56;fill-opacity:1" />
    <path
       d="M5982 1360 c0 -14 2 -19 5 -12 2 6 2 18 0 25 -3 6 -5 1 -5 -13z"
       id="path1007"
       style="fill:#454a56;fill-opacity:1" />
    <path
       d="M5980 1282 c0 -29 4 -52 9 -52 8 0 5 90 -4 99 -3 2 -5 -19 -5 -47z"
       id="path1009"
       style="fill:#454a56;fill-opacity:1" />
    <path
       d="M3955 1290 c-4 -6 -14 -10 -23 -9 -30 3 -42 -1 -42 -12 0 -8 5 -8 15 1 23 19 18 4 -6 -19 -13 -12 -17 -21 -10 -26 6 -3 11 0 12 7 0 7 4 4 8 -7 7 -17 9 -16 16 13 4 22 12 32 20 28 7 -2 15 4 18 15 6 21 2 25 -8 9z"
       id="path1011"
       style="fill:#454a56;fill-opacity:1" />
    <path
       d="M5810 1260 c0 -11 4 -20 8 -20 4 0 8 9 9 20 1 11 -2 20 -8 20 -5 0 -9 -9 -9 -20z"
       id="path1013"
       style="fill:#454a56;fill-opacity:1" />
    <path
       d="M6161 1264 c0 -11 3 -14 6 -6 3 7 2 16 -1 19 -3 4 -6 -2 -5 -13z"
       id="path1015"
       style="fill:#454a56;fill-opacity:1" />
    <path
       d="M108 1243 c12 -2 30 -2 40 0 9 3 -1 5 -23 4 -22 0 -30 -2 -17 -4z"
       id="path1017"
       style="fill:#454a56;fill-opacity:1" />
    <path
       d="M4658 1213 c7 -3 16 -2 19 1 4 3 -2 6 -13 5 -11 0 -14 -3 -6 -6z"
       id="path1019"
       style="fill:#454a56;fill-opacity:1" />
    <path
       d="M5220 1190 c0 -5 5 -10 10 -10 6 0 10 5 10 10 0 6 -4 10 -10 10 -5 0 -10 -4 -10 -10z"
       id="path1021"
       style="fill:#454a56;fill-opacity:1" />
    <path
       d="M5550 1175 c0 -9 6 -12 15 -9 8 4 15 7 15 9 0 2 -7 5 -15 9 -9 3 -15 0 -15 -9z"
       id="path1023"
       style="fill:#454a56;fill-opacity:1" />
    <path
       d="M4185 1069 c22 -4 56 -8 75 -7 33 0 32 1 -10 9 -25 4 -58 7 -75 7 -26 0 -25 -1 10 -9z"
       id="path1025"
       style="fill:#454a56;fill-opacity:1" />
    <path
       d="M4338 1053 c12 -2 32 -2 45 0 12 2 2 4 -23 4 -25 0 -35 -2 -22 -4z"
       id="path1027"
       style="fill:#454a56;fill-opacity:1" />
    <path
       d="M4608 1053 c7 -3 16 -2 19 1 4 3 -2 6 -13 5 -11 0 -14 -3 -6 -6z"
       id="path1029"
       style="fill:#454a56;fill-opacity:1" />
    <path
       d="M4453 1043 c9 -2 23 -2 30 0 6 3 -1 5 -18 5 -16 0 -22 -2 -12 -5z"
       id="path1031"
       style="fill:#454a56;fill-opacity:1" />
    <path
       d="M4765 1040 c3 -5 8 -10 11 -10 2 0 4 5 4 10 0 6 -5 10 -11 10 -5 0 -7 -4 -4 -10z"
       id="path1033"
       style="fill:#454a56;fill-opacity:1" />
    <path
       d="M5130 1041 c0 -6 1 -11 3 -12 1 0 55 -6 120 -13 110 -11 143 -7 121 14 -15 13 -244 24 -244 11z"
       id="path1035"
       style="fill:#454a56;fill-opacity:1" />
    <path
       d="M4078 1033 c6 -2 18 -2 25 0 6 3 1 5 -13 5 -14 0 -19 -2 -12 -5z"
       id="path1037"
       style="fill:#454a56;fill-opacity:1" />
    <path
       d="M4538 1033 c12 -2 32 -2 45 0 12 2 2 4 -23 4 -25 0 -35 -2 -22 -4z"
       id="path1039"
       style="fill:#454a56;fill-opacity:1" />
    <path
       d="M4638 1023 c12 -2 30 -2 40 0 9 3 -1 5 -23 4 -22 0 -30 -2 -17 -4z"
       id="path1041"
       style="fill:#454a56;fill-opacity:1" />
    <path
       d="M5400 1021 c0 -18 27 -29 78 -32 28 -2 53 0 55 5 1 4 24 1 50 -8 54 -18 97 -21 97 -6 0 6 7 10 15 10 8 0 15 -4 15 -10 0 -18 27 -11 32 8 5 17 -8 19 -146 30 -180 14 -196 15 -196 3z"
       id="path1043"
       style="fill:#454a56;fill-opacity:1" />
    <path
       d="M4981 1009 c8 -5 24 -9 37 -9 13 0 22 -6 22 -15 0 -19 17 -19 36 -1 24 25 16 31 -47 32 -39 1 -56 -2 -48 -7z"
       id="path1045"
       style="fill:#454a56;fill-opacity:1" />
    <path
       d="M5206 1001 c-3 -5 -15 -7 -26 -4 -17 4 -20 0 -20 -23 0 -20 3 -25 9 -15 6 9 11 10 15 2 9 -14 86 -15 86 -1 0 6 -3 9 -7 9 -5 -1 -18 -1 -31 0 -19 1 -22 5 -17 21 6 20 1 27 -9 11z"
       id="path1047"
       style="fill:#454a56;fill-opacity:1" />
    <path
       d="M5799 995 c25 -8 49 -11 55 -7 13 8 -28 20 -69 20 -26 1 -24 -1 14 -13z"
       id="path1049"
       style="fill:#454a56;fill-opacity:1" />
    <path
       d="M3308 993 c6 -2 18 -2 25 0 6 3 1 5 -13 5 -14 0 -19 -2 -12 -5z"
       id="path1051"
       style="fill:#454a56;fill-opacity:1" />
    <path
       d="M5107 985 c-9 -22 8 -26 21 -4 10 15 10 19 -2 19 -8 0 -16 -7 -19 -15z"
       id="path1053"
       style="fill:#454a56;fill-opacity:1" />
    <path
       d="M5870 982 c0 -18 8 -21 78 -26 42 -4 110 -11 150 -16 105 -14 142 -13 142 5 0 19 -15 21 -185 35 -77 6 -150 13 -162 17 -18 4 -23 1 -23 -15z"
       id="path1055"
       style="fill:#454a56;fill-opacity:1" />
    <path
       d="M5315 950 c-4 -6 8 -10 29 -10 20 0 36 4 36 8 0 12 -58 14 -65 2z"
       id="path1057"
       style="fill:#454a56;fill-opacity:1" />
    <path
       d="M5838 953 c7 -3 16 -2 19 1 4 3 -2 6 -13 5 -11 0 -14 -3 -6 -6z"
       id="path1059"
       style="fill:#454a56;fill-opacity:1" />
    <path
       d="M3946 935 c-3 -8 -1 -15 4 -15 6 0 10 7 10 15 0 8 -2 15 -4 15 -2 0 -6 -7 -10 -15z"
       id="path1061"
       style="fill:#454a56;fill-opacity:1" />
    <path
       d="M3971 914 c0 -11 3 -14 6 -6 3 7 2 16 -1 19 -3 4 -6 -2 -5 -13z"
       id="path1063"
       style="fill:#454a56;fill-opacity:1" />
    <path
       d="M5500 900 c20 -13 53 -13 45 0 -3 6 -18 10 -33 10 -21 0 -24 -2 -12 -10z"
       id="path1065"
       style="fill:#454a56;fill-opacity:1" />
    <path
       d="M4254 889 c-3 -6 -2 -15 3 -20 5 -5 9 -1 9 11 0 23 -2 24 -12 9z"
       id="path1067"
       style="fill:#454a56;fill-opacity:1" />
    <path
       d="M4322 859 c1 -15 5 -26 10 -23 4 3 8 0 8 -5 0 -6 8 -11 19 -11 25 0 36 60 12 61 -9 0 -24 2 -33 4 -13 2 -16 -4 -16 -26z"
       id="path1069"
       style="fill:#454a56;fill-opacity:1" />
    <path
       d="M2126 819 c3 -70 14 -75 14 -6 0 31 -3 57 -8 57 -4 0 -7 -23 -6 -51z"
       id="path1071"
       style="fill:#454a56;fill-opacity:1" />
    <path
       d="M4440 835 c0 -31 3 -35 27 -35 14 0 23 3 19 8 -4 4 -12 7 -17 7 -5 0 -9 5 -8 10 0 6 7 9 15 7 8 -2 14 5 14 18 0 15 -6 20 -25 20 -22 0 -25 -4 -25 -35z"
       id="path1073"
       style="fill:#454a56;fill-opacity:1" />
    <path
       d="M4520 846 c0 -8 9 -18 20 -21 11 -3 20 -13 20 -20 0 -8 5 -17 12 -21 7 -4 8 -3 4 4 -4 7 -3 12 2 12 5 0 7 11 4 25 -2 14 -9 25 -14 25 -5 0 -6 -4 -3 -10 3 -5 1 -10 -4 -10 -6 0 -11 7 -11 15 0 8 -7 15 -15 15 -8 0 -15 -6 -15 -14z"
       id="path1075"
       style="fill:#454a56;fill-opacity:1" />
    <path
       d="M4778 848 c5 -5 16 -8 23 -6 8 3 3 7 -10 11 -17 4 -21 3 -13 -5z"
       id="path1077"
       style="fill:#454a56;fill-opacity:1" />
    <path
       d="M4840 842 c0 -9 198 -38 206 -30 5 6 -86 25 -158 33 -27 3 -48 2 -48 -3z"
       id="path1079"
       style="fill:#454a56;fill-opacity:1" />
    <path
       d="M1555 830 c-3 -6 1 -13 10 -16 19 -8 30 0 20 15 -8 14 -22 14 -30 1z"
       id="path1081"
       style="fill:#454a56;fill-opacity:1" />
    <path
       d="M1680 825 c-11 -13 -7 -14 28 -12 23 1 44 5 47 8 3 4 -10 5 -30 3 -19 -1 -33 2 -29 7 9 14 -2 10 -16 -6z"
       id="path1083"
       style="fill:#454a56;fill-opacity:1" />
    <path
       d="M4600 830 c0 -5 5 -10 10 -10 6 0 10 5 10 10 0 6 -4 10 -10 10 -5 0 -10 -4 -10 -10z"
       id="path1085"
       style="fill:#454a56;fill-opacity:1" />
    <path
       d="M1610 826 c0 -2 9 -6 20 -9 11 -3 20 -1 20 4 0 5 -9 9 -20 9 -11 0 -20 -2 -20 -4z"
       id="path1087"
       style="fill:#454a56;fill-opacity:1" />
    <path
       d="M4670 804 c0 -31 23 -28 28 4 2 15 -2 22 -12 22 -11 0 -16 -9 -16 -26z"
       id="path1089"
       style="fill:#454a56;fill-opacity:1" />
    <path
       d="M4736 821 c-10 -15 -2 -61 9 -61 6 0 12 16 13 35 2 33 -10 47 -22 26z"
       id="path1091"
       style="fill:#454a56;fill-opacity:1" />
    <path
       d="M4780 810 c0 -11 0 -22 0 -25 0 -3 3 -5 8 -5 4 0 7 11 8 25 1 14 -3 25 -7 25 -5 0 -9 -9 -9 -20z"
       id="path1093"
       style="fill:#454a56;fill-opacity:1" />
    <path
       d="M4825 800 c1 -17 4 -33 7 -36 3 -3 5 8 4 25 -1 16 -4 32 -7 35 -3 4 -5 -7 -4 -24z"
       id="path1095"
       style="fill:#454a56;fill-opacity:1" />
    <path
       d="M4880 795 c0 -8 -4 -15 -10 -15 -5 0 -10 -7 -10 -15 0 -17 25 -20 35 -5 10 16 25 2 25 -22 0 -32 13 -12 15 23 1 24 -3 33 -22 40 -32 12 -33 12 -33 -6z"
       id="path1097"
       style="fill:#454a56;fill-opacity:1" />
    <path
       d="M1833 768 c-26 -34 -22 -46 29 -77 28 -18 55 -30 61 -28 6 2 -8 14 -31 27 -28 16 -38 26 -30 31 9 6 8 10 -5 15 -24 9 -21 27 3 19 14 -5 20 -2 20 9 0 19 -33 21 -47 4z"
       id="path1099"
       style="fill:#454a56;fill-opacity:1" />
    <path
       d="M2792 769 c-13 -5 -28 -7 -33 -3 -5 3 -9 -34 -9 -86 l0 -91 30 33 30 32 0 -37 c0 -20 5 -37 10 -37 6 0 10 40 10 100 0 55 -3 100 -7 99 -5 0 -19 -4 -31 -10z"
       id="path1101"
       style="fill:#454a56;fill-opacity:1" />
    <path
       d="M4685 770 c-3 -5 1 -10 9 -10 9 0 16 5 16 10 0 6 -4 10 -9 10 -6 0 -13 -4 -16 -10z"
       id="path1103"
       style="fill:#454a56;fill-opacity:1" />
    <path
       d="M5245 710 c3 -5 8 -10 11 -10 2 0 4 5 4 10 0 6 -5 10 -11 10 -5 0 -7 -4 -4 -10z"
       id="path1105"
       style="fill:#454a56;fill-opacity:1" />
    <path
       d="M5420 691 c0 -20 6 -31 18 -34 13 -4 11 -5 -5 -6 -13 0 -23 -5 -23 -11 0 -15 22 -12 54 9 27 18 28 19 9 30 -11 6 -23 7 -27 4 -3 -3 -6 3 -6 15 0 12 -4 22 -10 22 -5 0 -10 -13 -10 -29z"
       id="path1107"
       style="fill:#454a56;fill-opacity:1" />
    <path
       d="M5717 710 c12 -5 50 -11 85 -14 40 -4 54 -3 38 2 -36 13 -151 23 -123 12z"
       id="path1109"
       style="fill:#454a56;fill-opacity:1" />
    <path
       d="M5130 690 c0 -5 5 -10 11 -10 5 0 7 5 4 10 -3 6 -8 10 -11 10 -2 0 -4 -4 -4 -10z"
       id="path1111"
       style="fill:#454a56;fill-opacity:1" />
    <path
       d="M5335 650 c3 -5 8 -10 11 -10 2 0 4 5 4 10 0 6 -5 10 -11 10 -5 0 -7 -4 -4 -10z"
       id="path1113"
       style="fill:#454a56;fill-opacity:1" />
    <path
       d="M5749 653 c-2 -15 -2 -39 0 -52 0 -5 7 -11 15 -14 10 -4 13 0 11 11 -6 30 -24 67 -26 55z"
       id="path1115"
       style="fill:#454a56;fill-opacity:1" />
    <path
       d="M1963 635 c0 -8 9 -15 20 -15 11 0 18 1 16 3 -2 1 -11 8 -20 15 -13 9 -16 9 -16 -3z"
       id="path1117"
       style="fill:#454a56;fill-opacity:1" />
    <path
       d="M5880 615 c-11 -13 -10 -14 4 -9 9 3 16 10 16 15 0 13 -6 11 -20 -6z"
       id="path1119"
       style="fill:#454a56;fill-opacity:1" />
    <path
       d="M5990 575 c0 -8 5 -15 10 -15 6 0 10 7 10 15 0 8 -4 15 -10 15 -5 0 -10 -7 -10 -15z"
       id="path1121"
       style="fill:#454a56;fill-opacity:1" />
    <path
       d="M6170 581 c0 -5 5 -13 10 -16 6 -3 10 -2 10 4 0 5 -4 13 -10 16 -5 3 -10 2 -10 -4z"
       id="path1123"
       style="fill:#454a56;fill-opacity:1" />
    <path
       d="M3207 540 c3 -11 9 -20 15 -20 5 0 4 9 -2 20 -6 11 -12 20 -14 20 -2 0 -2 -9 1 -20z"
       id="path1125"
       style="fill:#454a56;fill-opacity:1" />
    <path
       d="M6045 530 c-3 -5 1 -10 10 -10 9 0 13 5 10 10 -3 6 -8 10 -10 10 -2 0 -7 -4 -10 -10z"
       id="path1127"
       style="fill:#454a56;fill-opacity:1" />
    <path
       d="M3260 505 c33 -19 49 -19 24 0 -10 8 -26 14 -34 14 -9 0 -4 -6 10 -14z"
       id="path1129"
       style="fill:#454a56;fill-opacity:1" />
    <path
       d="M1426 494 c-10 -25 -7 -34 11 -34 13 0 14 3 6 11 -6 6 -9 18 -6 25 3 8 3 14 0 14 -3 0 -8 -7 -11 -16z"
       id="path1131"
       style="fill:#454a56;fill-opacity:1" />
    <path
       d="M3385 480 c3 -5 -2 -10 -12 -10 -15 0 -16 -2 -3 -10 20 -13 33 -13 25 0 -3 6 2 10 12 10 15 0 16 2 3 10 -20 13 -33 13 -25 0z"
       id="path1133"
       style="fill:#454a56;fill-opacity:1" />
    <path
       d="M2725 460 c3 -5 13 -10 21 -10 8 0 14 -4 14 -10 0 -5 6 -10 13 -10 6 1 1 10 -12 20 -25 21 -46 27 -36 10z"
       id="path1135"
       style="fill:#454a56;fill-opacity:1" />
    <path
       d="M1445 441 c-3 -5 -1 -12 4 -15 5 -3 11 1 15 9 6 16 -9 21 -19 6z"
       id="path1137"
       style="fill:#454a56;fill-opacity:1" />
    <path
       d="M3420 440 c8 -5 20 -10 25 -10 6 0 3 5 -5 10 -8 5 -19 10 -25 10 -5 0 -3 -5 5 -10z"
       id="path1139"
       style="fill:#454a56;fill-opacity:1" />
    <path
       d="M3498 443 c7 -3 16 -2 19 1 4 3 -2 6 -13 5 -11 0 -14 -3 -6 -6z"
       id="path1141"
       style="fill:#454a56;fill-opacity:1" />
    <path
       d="M2650 426 c0 -2 7 -7 16 -10 8 -3 12 -2 9 4 -6 10 -25 14 -25 6z"
       id="path1143"
       style="fill:#454a56;fill-opacity:1" />
    <path
       d="M1240 416 c0 -9 39 -13 51 -5 10 6 4 9 -18 9 -18 0 -33 -2 -33 -4z"
       id="path1145"
       style="fill:#454a56;fill-opacity:1" />
    <path
       d="M1328 413 c12 -2 32 -2 45 0 12 2 2 4 -23 4 -25 0 -35 -2 -22 -4z"
       id="path1147"
       style="fill:#454a56;fill-opacity:1" />
    <path
       d="M3478 321 c-6 -275 -5 -295 17 -308 13 -8 70 -12 170 -12 126 0 147 2 133 13 -10 7 -15 16 -11 20 3 3 0 18 -8 33 -11 20 -11 27 -1 30 6 3 12 11 12 19 0 8 5 14 11 14 6 0 9 -7 5 -15 -8 -23 4 -45 25 -45 22 0 24 -11 7 -28 -7 -7 -8 -12 -4 -12 5 0 3 -7 -4 -15 -11 -13 4 -15 129 -15 l142 0 -3 58 -3 57 65 0 65 0 -3 -57 -3 -58 40 0 c29 0 41 5 44 18 4 16 5 16 6 0 1 -16 13 -18 101 -18 82 0 100 3 100 15 0 8 -4 16 -10 16 -12 2 -27 5 -37 9 -5 2 -34 4 -65 4 -46 2 -58 -1 -58 -14 0 -13 -2 -13 -9 -1 -8 12 -15 12 -33 4 -17 -8 -26 -7 -36 3 -14 15 -17 134 -2 134 5 0 55 -20 112 -43 147 -62 140 -61 136 -35 -2 19 -24 30 -130 68 l-126 45 -7 62 c-4 35 -6 65 -5 68 1 9 -28 35 -39 35 -6 0 -11 -4 -11 -9 0 -5 -9 -11 -20 -14 -14 -4 -20 -14 -20 -35 0 -17 5 -32 11 -34 9 -3 8 -10 -1 -25 -11 -17 -19 -19 -42 -13 -15 5 -28 5 -28 1 0 -4 -22 -7 -50 -6 -27 1 -50 -2 -50 -5 0 -4 -17 -4 -37 -1 -28 5 -41 3 -50 -9 -11 -13 -12 -13 -13 0 0 13 -16 16 -82 18 -46 1 -119 4 -163 8 l-80 6 3 79 c2 44 0 79 -5 80 -4 0 -25 1 -45 3 l-38 3 -2 -96z m372 -155 c0 -3 -4 -8 -10 -11 -5 -3 -10 -1 -10 4 0 6 5 11 10 11 6 0 10 -2 10 -4z m-8 -58 c-7 -7 -12 -8 -12 -2 0 14 12 26 19 19 2 -3 -1 -11 -7 -17z"
       id="path1149"
       style="fill:#454a56;fill-opacity:1" />
    <path
       d="M1410 400 c0 -5 5 -10 10 -10 6 0 8 -11 4 -25 -9 -36 16 -113 39 -119 14 -3 16 -8 9 -23 -6 -11 -7 -49 -2 -100 10 -100 17 -123 35 -123 9 0 12 6 8 17 -4 10 -2 14 4 10 7 -4 10 3 9 18 0 14 -3 25 -6 25 -3 0 -6 41 -7 92 -1 50 -6 94 -12 97 -6 4 -10 24 -9 44 1 20 -2 40 -5 44 -7 6 -11 -26 -8 -59 2 -18 -15 -33 -23 -20 -3 5 -2 32 3 60 8 50 7 51 -13 40 -19 -10 -20 -10 -7 6 13 15 13 19 0 27 -19 12 -29 11 -29 -1z"
       id="path1151"
       style="fill:#454a56;fill-opacity:1" />
    <path
       d="M2824 401 c5 -7 -4 -9 -26 -5 l-33 6 24 -20 c21 -17 22 -20 6 -26 -11 -4 -22 0 -30 10 -6 9 -18 15 -25 12 -14 -4 31 -39 56 -42 7 -1 22 -13 34 -26 11 -12 20 -19 20 -15 0 5 10 0 23 -11 50 -45 80 -57 134 -55 33 2 53 -2 53 -8 0 -6 18 -11 40 -11 22 0 40 5 40 10 0 6 -9 10 -20 10 -11 0 -20 3 -20 8 0 7 -13 15 -98 63 -18 11 -38 16 -44 13 -6 -4 -8 -2 -4 4 8 13 -60 56 -75 46 -8 -4 -9 -3 -5 4 4 7 -6 18 -25 27 -17 9 -28 12 -25 6z m26 -81 c0 -5 -2 -10 -4 -10 -3 0 -8 5 -11 10 -3 6 -1 10 4 10 6 0 11 -4 11 -10z"
       id="path1153"
       style="fill:#454a56;fill-opacity:1" />
    <path
       d="M1850 386 c0 -8 81 -46 98 -46 13 1 11 4 -8 15 -24 14 -24 14 16 12 35 -2 41 -5 33 -18 -4 -9 -5 -20 -1 -24 4 -4 -2 -5 -13 -1 -11 3 -26 2 -33 -3 -15 -9 38 -21 96 -21 17 0 32 -5 32 -10 0 -6 10 -15 23 -20 21 -8 20 -9 -8 -10 l-30 -1 25 -12 c14 -6 29 -17 33 -24 4 -7 22 -13 39 -13 17 0 40 -7 50 -17 11 -9 18 -11 18 -5 0 7 -5 12 -11 12 -8 0 -8 5 1 15 10 13 9 15 -11 15 -29 1 -92 28 -67 29 9 1 23 7 30 14 19 19 95 -29 93 -59 -1 -16 8 -25 34 -34 19 -7 41 -19 49 -26 7 -8 24 -14 38 -14 13 0 24 -4 24 -9 0 -5 7 -12 16 -15 11 -4 15 -2 11 8 -6 16 19 30 28 16 9 -14 35 -12 35 3 0 7 -9 18 -20 24 -16 11 -21 10 -29 -5 -5 -9 -13 -14 -17 -10 -4 4 -1 14 6 23 7 9 11 17 9 18 -11 8 -81 47 -85 47 -2 0 1 -9 8 -20 7 -11 21 -20 31 -20 10 0 16 -4 12 -10 -7 -11 -55 8 -55 23 0 5 -9 7 -20 4 -21 -5 -70 28 -99 66 -11 15 -22 18 -57 13 -28 -3 -44 -1 -44 6 0 5 -6 8 -14 5 -7 -3 -23 1 -35 9 -11 8 -34 16 -51 17 -23 1 -27 4 -16 12 24 18 -11 38 -62 36 -25 -1 -48 -3 -50 -6 -2 -2 -15 0 -28 5 -13 5 -24 8 -24 6z"
       id="path1155"
       style="fill:#454a56;fill-opacity:1" />
    <path
       d="M3588 384 c-11 -10 -10 -56 1 -73 7 -11 29 -13 105 -8 56 4 98 2 101 -4 4 -5 14 -5 23 -1 9 5 56 7 104 6 50 -1 86 2 82 7 -3 5 20 9 50 9 65 0 76 19 26 45 -27 14 -153 21 -255 15 -11 -1 -67 1 -125 5 -58 4 -108 3 -112 -1z"
       id="path1157"
       style="fill:#454a56;fill-opacity:1" />
    <path
       d="M1187 373 c-12 -11 -8 -255 3 -248 6 3 10 -3 10 -15 0 -13 4 -18 11 -14 6 3 9 15 6 25 -3 10 -1 22 4 25 5 3 9 57 9 120 0 104 -2 114 -18 114 -10 0 -22 -3 -25 -7z"
       id="path1159"
       style="fill:#454a56;fill-opacity:1" />
    <path
       d="M1241 315 c1 -48 5 -65 15 -65 8 0 14 -4 14 -10 0 -5 -7 -7 -15 -4 -11 5 -14 -3 -12 -34 1 -27 6 -39 15 -38 8 1 17 -5 19 -12 3 -7 -1 -10 -11 -6 -9 3 -16 1 -16 -5 0 -6 7 -11 15 -11 8 0 15 -4 15 -10 0 -5 -7 -10 -15 -10 -10 0 -15 -10 -15 -31 0 -16 4 -28 9 -25 5 3 7 16 5 29 -2 12 -2 16 2 10 4 -10 9 -10 19 1 12 11 12 30 4 102 -6 49 -10 110 -10 137 1 41 -2 47 -19 47 -18 0 -20 -6 -19 -65z"
       id="path1161"
       style="fill:#454a56;fill-opacity:1" />
    <path
       d="M1290 370 c0 -5 7 -7 15 -4 8 4 15 8 15 10 0 2 -7 4 -15 4 -8 0 -15 -4 -15 -10z"
       id="path1163"
       style="fill:#454a56;fill-opacity:1" />
    <path
       d="M1351 364 c0 -11 3 -14 6 -6 3 7 2 16 -1 19 -3 4 -6 -2 -5 -13z"
       id="path1165"
       style="fill:#454a56;fill-opacity:1" />
    <path
       d="M1372 330 c0 -14 2 -19 5 -12 2 6 2 18 0 25 -3 6 -5 1 -5 -13z"
       id="path1167"
       style="fill:#454a56;fill-opacity:1" />
    <path
       d="M1621 311 c-8 -5 -9 -11 -3 -15 5 -3 12 -24 16 -46 5 -35 9 -40 26 -35 19 6 19 4 8 -20 -7 -16 -8 -29 -2 -33 5 -4 9 -11 9 -17 1 -10 27 -97 31 -103 1 -2 12 -1 23 3 12 4 18 12 14 21 -4 11 -9 12 -18 4 -11 -9 -12 -7 -8 9 3 13 10 18 21 14 10 -4 13 -2 8 6 -9 13 10 41 28 41 6 0 3 -7 -7 -14 -17 -13 -16 -14 3 -19 15 -4 20 0 20 16 0 18 2 19 10 7 7 -12 9 -10 7 7 0 12 -4 20 -8 17 -4 -2 -10 3 -13 12 -4 11 -13 14 -30 10 -14 -3 -28 -1 -31 4 -5 8 -11 7 -21 -1 -8 -6 -18 -8 -22 -4 -4 4 -1 10 6 12 6 3 10 9 6 14 -3 5 0 9 7 9 8 0 7 5 -3 18 -9 9 -18 24 -21 32 -4 12 -6 11 -6 -2 -1 -10 -6 -18 -12 -18 -6 0 -9 7 -5 15 3 8 0 15 -7 15 -8 0 -8 3 2 9 11 7 10 10 -5 14 -16 4 -17 5 -1 6 9 0 17 6 17 11 0 12 -20 13 -39 1z m103 -189 c3 -5 -1 -9 -9 -9 -8 0 -15 4 -15 9 0 10 17 10 24 0z"
       id="path1169"
       style="fill:#454a56;fill-opacity:1" />
    <path
       d="M1301 294 c0 -11 3 -14 6 -6 3 7 2 16 -1 19 -3 4 -6 -2 -5 -13z"
       id="path1171"
       style="fill:#454a56;fill-opacity:1" />
    <path
       d="M1366 243 c9 -55 20 -60 16 -8 -2 25 -8 45 -13 45 -6 0 -7 -16 -3 -37z"
       id="path1173"
       style="fill:#454a56;fill-opacity:1" />
    <path
       d="M1695 250 c4 -6 11 -8 16 -5 14 9 11 15 -7 15 -8 0 -12 -5 -9 -10z"
       id="path1175"
       style="fill:#454a56;fill-opacity:1" />
    <path
       d="M1720 210 c0 -5 5 -10 10 -10 6 0 10 5 10 10 0 6 -4 10 -10 10 -5 0 -10 -4 -10 -10z"
       id="path1177"
       style="fill:#454a56;fill-opacity:1" />
    <path
       d="M3005 211 c-3 -5 -1 -12 4 -15 5 -4 12 -2 16 4 4 6 11 8 16 5 5 -4 9 -1 9 4 0 13 -37 15 -45 2z"
       id="path1179"
       style="fill:#454a56;fill-opacity:1" />
    <path
       d="M1992 198 c5 -15 28 -23 28 -10 0 5 -7 13 -16 16 -10 4 -14 1 -12 -6z"
       id="path1181"
       style="fill:#454a56;fill-opacity:1" />
    <path
       d="M1538 183 c7 -3 16 -2 19 1 4 3 -2 6 -13 5 -11 0 -14 -3 -6 -6z"
       id="path1183"
       style="fill:#454a56;fill-opacity:1" />
    <path
       d="M2762 176 c7 -8 17 -12 22 -9 4 3 2 9 -5 14 -22 13 -31 11 -17 -5z"
       id="path1185"
       style="fill:#454a56;fill-opacity:1" />
    <path
       d="M3125 180 l20 -9 -20 -1 c-14 -2 -11 -5 10 -9 17 -4 35 -5 40 -2 21 11 36 9 31 -4 -3 -9 0 -12 9 -9 7 3 27 -2 44 -11 43 -22 39 -13 -7 18 -25 16 -50 24 -70 23 -18 -1 -32 1 -32 6 0 4 -10 8 -22 7 -22 0 -22 -1 -3 -9z"
       id="path1187"
       style="fill:#454a56;fill-opacity:1" />
    <path
       d="M2178 173 c12 -2 20 -8 18 -12 -3 -4 11 -5 30 -3 47 6 36 14 -23 17 -26 1 -38 1 -25 -2z"
       id="path1189"
       style="fill:#454a56;fill-opacity:1" />
    <path
       d="M3056 173 c-16 -4 -15 -7 10 -24 16 -10 36 -19 44 -18 8 0 4 5 -10 11 -15 6 -20 12 -12 15 6 3 12 9 12 14 0 9 -12 10 -44 2z"
       id="path1191"
       style="fill:#454a56;fill-opacity:1" />
    <path
       d="M990 160 c0 -5 10 -10 23 -10 18 0 19 2 7 10 -19 13 -30 13 -30 0z"
       id="path1193"
       style="fill:#454a56;fill-opacity:1" />
    <path
       d="M2030 166 c0 -5 77 -41 108 -50 44 -14 21 11 -31 32 -49 21 -77 27 -77 18z"
       id="path1195"
       style="fill:#454a56;fill-opacity:1" />
    <path
       d="M4968 163 c7 -3 16 -2 19 1 4 3 -2 6 -13 5 -11 0 -14 -3 -6 -6z"
       id="path1197"
       style="fill:#454a56;fill-opacity:1" />
    <path
       d="M4998 113 c7 -3 16 -2 19 1 4 3 -2 6 -13 5 -11 0 -14 -3 -6 -6z"
       id="path1199"
       style="fill:#454a56;fill-opacity:1" />
    <path
       d="M2290 106 c0 -2 7 -7 16 -10 8 -3 12 -2 9 4 -6 10 -25 14 -25 6z"
       id="path1201"
       style="fill:#454a56;fill-opacity:1" />
    <path
       d="M5770 101 c0 -5 5 -13 10 -16 6 -3 10 -2 10 4 0 5 -4 13 -10 16 -5 3 -10 2 -10 -4z"
       id="path1203"
       style="fill:#454a56;fill-opacity:1" />
    <path
       d="M2155 90 c-3 -5 1 -10 9 -10 9 0 16 5 16 10 0 6 -4 10 -9 10 -6 0 -13 -4 -16 -10z"
       id="path1205"
       style="fill:#454a56;fill-opacity:1" />
    <path
       d="M2335 90 c-8 -13 33 -23 70 -16 18 4 36 2 39 -3 3 -5 24 -12 46 -16 22 -4 56 -18 75 -31 40 -27 64 -32 46 -10 -26 31 -136 74 -203 79 -37 3 -70 2 -73 -3z"
       id="path1207"
       style="fill:#454a56;fill-opacity:1" />
    <path
       d="M2522 84 c10 -10 20 -16 22 -13 3 3 -5 11 -17 18 -21 13 -21 12 -5 -5z"
       id="path1209"
       style="fill:#454a56;fill-opacity:1" />
    <path
       d="M1216 82 c-2 -4 -1 -14 5 -22 7 -12 9 -10 9 8 0 23 -5 28 -14 14z"
       id="path1211"
       style="fill:#454a56;fill-opacity:1" />
    <path
       d="M2390 62 l-35 -4 45 -23 c44 -23 44 -24 15 -24 -28 -1 -73 18 -50 20 21 2 -62 27 -90 28 -28 0 -26 -2 20 -24 38 -18 43 -23 20 -19 -20 4 -26 3 -17 -4 8 -5 64 -10 125 -10 62 0 106 2 100 4 -7 3 -13 12 -13 20 0 8 -13 17 -30 21 -17 3 -33 10 -36 14 -3 5 -8 8 -12 7 -4 0 -23 -3 -42 -6z"
       id="path1213"
       style="fill:#454a56;fill-opacity:1" />
    <path
       d="M2957 56 c-12 -9 -14 -16 -8 -21 6 -3 11 -2 11 3 0 6 7 9 16 8 9 0 19 5 21 12 6 16 -17 15 -40 -2z"
       id="path1215"
       style="fill:#454a56;fill-opacity:1" />
    <path
       d="M3116 56 c3 -8 19 -20 35 -27 22 -9 27 -14 17 -20 -9 -6 -3 -9 16 -9 l29 0 -39 28 c-58 42 -65 45 -58 28z"
       id="path1217"
       style="fill:#454a56;fill-opacity:1" />
    <path
       d="M4728 63 c7 -3 16 -2 19 1 4 3 -2 6 -13 5 -11 0 -14 -3 -6 -6z"
       id="path1219"
       style="fill:#454a56;fill-opacity:1" />
    <path
       d="M1540 49 c0 -5 5 -7 10 -4 6 3 10 8 10 11 0 2 -4 4 -10 4 -5 0 -10 -5 -10 -11z"
       id="path1221"
       style="fill:#454a56;fill-opacity:1" />
    <path
       d="M1776 52 c-4 -7 -2 -12 3 -12 6 0 11 -4 11 -10 0 -5 -7 -7 -15 -4 -8 4 -15 1 -15 -6 0 -6 8 -10 18 -9 9 1 19 0 22 -1 17 -6 40 -7 40 -2 0 4 -5 14 -10 22 -8 12 -10 12 -10 1 0 -8 -7 -4 -18 10 -13 15 -21 19 -26 11z"
       id="path1223"
       style="fill:#454a56;fill-opacity:1" />
    <path
       d="M3000 40 c0 -5 7 -10 15 -10 8 0 15 5 15 10 0 6 -7 10 -15 10 -8 0 -15 -4 -15 -10z"
       id="path1225"
       style="fill:#454a56;fill-opacity:1" />
    <path
       d="M4585 33 c-9 -8 -15 -9 -17 -2 -2 6 -12 1 -23 -11 l-19 -21 91 2 c89 1 90 1 85 25 -4 22 -9 24 -54 23 -27 -1 -56 -8 -63 -16z"
       id="path1227"
       style="fill:#454a56;fill-opacity:1" />
    <path
       d="M1350 17 l-25 -10 23 -5 c26 -4 36 1 31 16 -3 6 -14 5 -29 -1z"
       id="path1229"
       style="fill:#454a56;fill-opacity:1" />
    <path
       d="M1860 18 c0 -8 7 -15 15 -15 18 0 15 19 -3 25 -7 2 -12 -3 -12 -10z"
       id="path1231"
       style="fill:#454a56;fill-opacity:1" />
    <path
       d="M3385 20 c3 -5 8 -10 11 -10 2 0 4 5 4 10 0 6 -5 10 -11 10 -5 0 -7 -4 -4 -10z"
       id="path1233"
       style="fill:#454a56;fill-opacity:1" />
    <path
       d="M2005 10 c3 -5 8 -10 11 -10 2 0 4 5 4 10 0 6 -5 10 -11 10 -5 0 -7 -4 -4 -10z"
       id="path1235"
       style="fill:#454a56;fill-opacity:1" />
    <path
       d="M4765 10 c3 -5 14 -10 23 -10 15 0 15 2 2 10 -20 13 -33 13 -25 0z"
       id="path1237"
       style="fill:#454a56;fill-opacity:1" />
    <path
       d="M5536 8 c3 -4 9 -8 15 -8 5 0 9 4 9 8 0 5 -7 9 -15 9 -8 0 -12 -4 -9 -9z"
       id="path1239"
       style="fill:#454a56;fill-opacity:1" />
  </g>
</svg>
