<?xml version="1.0" encoding="UTF-8" standalone="no"?>
<svg
   version="1.0"
   width="624.000000pt"
   height="351.000000pt"
   viewBox="0 0 624.000000 351.000000"
   preserveAspectRatio="xMidYMid meet"
   id="svg3789"
   sodipodi:docname="scan2.svg"
   inkscape:version="1.1.2 (0a00cf5339, 2022-02-04)"
   xmlns:inkscape="http://www.inkscape.org/namespaces/inkscape"
   xmlns:sodipodi="http://sodipodi.sourceforge.net/DTD/sodipodi-0.dtd"
   xmlns="http://www.w3.org/2000/svg"
   xmlns:svg="http://www.w3.org/2000/svg">
  <defs
     id="defs3793" />
  <sodipodi:namedview
     id="namedview3791"
     pagecolor="#ffffff"
     bordercolor="#666666"
     borderopacity="1.0"
     inkscape:pageshadow="2"
     inkscape:pageopacity="0.0"
     inkscape:pagecheckerboard="0"
     inkscape:document-units="pt"
     showgrid="false"
     inkscape:zoom="1.4050481"
     inkscape:cx="416"
     inkscape:cy="234.15569"
     inkscape:window-width="1920"
     inkscape:window-height="1055"
     inkscape:window-x="0"
     inkscape:window-y="0"
     inkscape:window-maximized="1"
     inkscape:current-layer="svg3789" />
  <metadata
     id="metadata3783">
Created by potrace 1.15, written by Peter Selinger 2001-2017
</metadata>
  <g
     transform="translate(0.000000,351.000000) scale(0.100000,-0.100000)"
     fill="#000000"
     stroke="none"
     id="g3787"
     style="fill:#2d72af;fill-opacity:1">
    <path
       d="M5020 3496 c0 -8 -13 -19 -30 -25 -16 -5 -30 -15 -30 -20 0 -6 -11 -13 -25 -17 -14 -3 -25 -10 -25 -15 0 -5 -7 -9 -15 -9 -8 0 -15 -3 -15 -8 0 -6 -67 -40 -112 -55 -10 -4 -18 -13 -18 -20 0 -14 -57 -46 -124 -69 -35 -12 -36 -13 -15 -19 19 -6 17 -7 -13 -8 -37 -1 -54 -24 -25 -34 6 -2 -8 -10 -33 -17 -74 -21 -118 -44 -131 -67 -7 -13 -21 -23 -31 -23 -10 0 -18 -4 -18 -10 0 -5 -8 -10 -17 -10 -27 0 -103 -41 -103 -55 0 -15 -22 -25 -56 -25 -13 0 -24 -4 -24 -9 0 -5 -13 -12 -30 -16 -16 -4 -36 -14 -42 -24 -7 -9 -30 -27 -51 -40 -20 -12 -35 -27 -31 -32 3 -5 -2 -9 -11 -9 -9 0 -31 -11 -49 -25 -18 -14 -44 -25 -57 -25 -13 0 -31 -5 -39 -10 -12 -8 -12 -10 -1 -10 8 0 -5 -18 -29 -40 -24 -22 -45 -40 -47 -40 -2 0 -14 -9 -26 -21 -12 -12 -44 -32 -72 -44 -49 -23 -105 -68 -105 -84 0 -15 -37 -51 -54 -51 -9 0 -16 -4 -16 -10 0 -5 -7 -10 -16 -10 -18 0 -44 -23 -44 -39 0 -13 -59 -71 -71 -71 -5 0 -9 -5 -9 -11 0 -20 -50 -59 -76 -59 -13 0 -24 -3 -24 -7 0 -11 -50 -33 -72 -33 -29 0 -68 -22 -68 -39 -1 -19 -64 -53 -85 -45 -8 4 -21 2 -28 -3 -14 -11 -140 -40 -206 -47 -33 -3 -48 0 -64 14 -11 11 -25 16 -31 13 -6 -4 -5 1 3 10 12 15 9 21 -10 19 -4 -1 -9 29 -12 66 -10 117 -9 115 -74 114 -26 0 -164 -1 -305 -2 l-258 -1 -21 -30 -21 -30 -276 6 c-161 3 -280 9 -286 15 -5 5 -11 63 -14 127 -2 65 -5 124 -7 131 -3 9 -74 12 -309 12 l-304 0 -4 -61 c-1 -34 0 -66 4 -73 12 -17 10 -236 -2 -236 -5 0 -10 -9 -10 -19 0 -16 -8 -20 -37 -23 -34 -3 -38 -7 -45 -38 -5 -20 -3 -52 3 -77 11 -41 8 -154 -7 -241 l-7 -42 -51 5 c-28 4 -67 8 -88 10 -35 4 -66 -13 -51 -29 4 -4 0 -4 -8 -1 -17 6 -44 -19 -36 -32 8 -13 -303 -7 -316 6 -16 16 -4 22 43 23 28 0 38 3 29 9 -8 5 -9 9 -4 9 12 1 -128 68 -165 80 -14 4 -33 11 -42 15 -15 6 -18 2 -18 -28 0 -21 6 -37 14 -40 17 -7 15 -39 -2 -45 -9 -3 -12 -225 -12 -888 l0 -884 1006 0 c667 0 1003 3 999 10 -3 6 -1 10 4 10 6 0 11 -4 11 -10 0 -6 59 -10 156 -10 149 0 157 1 176 22 11 13 17 17 13 11 -3 -7 0 -13 7 -14 7 0 5 -4 -5 -8 -11 -4 36 -8 102 -9 70 -1 119 2 116 8 -10 16 12 20 25 5 11 -13 232 -15 1821 -15 l1809 0 0 1755 0 1755 -610 0 c-517 0 -610 -2 -610 -14z m-2474 -1184 c1 -7 0 -8 -3 -2 -2 5 -14 10 -26 10 -17 0 -19 -2 -8 -9 12 -8 9 -11 -12 -16 -34 -9 -50 -3 -53 19 -2 15 5 17 49 14 31 -2 51 -8 53 -16z m-2496 -535 c0 -2 -10 -12 -22 -23 l-23 -19 19 23 c18 21 26 27 26 19z m1185 -126 c-9 -8 -36 -10 -30 -2 2 4 11 8 20 8 8 0 13 -3 10 -6z m-102 -8 c-7 -2 -19 -2 -25 0 -7 3 -2 5 12 5 14 0 19 -2 13 -5z m4075 -244 c-3 -8 -7 -3 -11 10 -4 17 -3 21 5 13 5 -5 8 -16 6 -23z m542 21 c0 -5 -8 -10 -17 -10 -15 0 -16 2 -3 10 19 12 20 12 20 0z m147 -12 c-3 -8 -6 -5 -6 6 -1 11 2 17 5 13 3 -3 4 -12 1 -19z m-1011 -2 c-1 -8 -8 -22 -16 -32 -9 -11 -10 -15 -2 -10 8 5 12 0 12 -13 0 -25 -15 -28 -24 -5 -10 25 -7 44 6 42 7 -2 13 3 14 10 2 19 4 22 8 22 2 0 3 -6 2 -14z m454 -7 c7 -11 9 -23 6 -27 -3 -3 -6 0 -6 7 0 7 -4 9 -10 6 -5 -3 -10 -4 -10 -1 0 2 -3 11 -6 20 -9 24 13 19 26 -5z m117 -10 c2 -16 1 -18 -11 -7 -8 7 -10 15 -5 16 5 2 6 9 2 15 -3 7 -2 9 2 4 5 -4 10 -17 12 -28z m156 0 c-9 -9 -12 -7 -10 9 1 14 5 18 11 12 7 -7 6 -14 -1 -21z m64 9 c-3 -8 -6 -5 -6 6 -1 11 2 17 5 13 3 -3 4 -12 1 -19z m90 -10 c-3 -7 -5 -2 -5 12 0 14 2 19 5 13 2 -7 2 -19 0 -25z m110 -75 c-2 -21 -4 -4 -4 37 0 41 2 58 4 38 2 -21 2 -55 0 -75z m108 87 c3 -5 1 -10 -4 -10 -6 0 -11 5 -11 10 0 6 2 10 4 10 3 0 8 -4 11 -10z m-1288 -30 c-2 -10 -9 -26 -17 -35 -10 -12 -11 -18 -2 -24 7 -4 4 -11 -11 -20 -19 -13 -21 -12 -10 1 7 8 10 17 8 20 -3 3 -1 17 4 32 8 18 7 26 0 26 -8 0 -7 5 1 15 15 18 31 10 27 -15z m86 15 c-3 -9 -8 -14 -10 -11 -3 3 -2 9 2 15 9 16 15 13 8 -4z m47 5 c0 -5 -4 -10 -10 -10 -5 0 -10 5 -10 10 0 6 5 10 10 10 6 0 10 -4 10 -10z m290 -4 c0 -3 -4 -8 -10 -11 -5 -3 -10 -1 -10 4 0 6 5 11 10 11 6 0 10 -2 10 -4z m-76 -31 c3 -8 1 -15 -4 -15 -6 0 -10 7 -10 15 0 8 2 15 4 15 2 0 6 -7 10 -15z m611 5 c3 -5 1 -10 -4 -10 -6 0 -11 5 -11 10 0 6 2 10 4 10 3 0 8 -4 11 -10z m-875 -45 c0 -5 -5 -3 -10 5 -5 8 -10 20 -10 25 0 6 5 3 10 -5 5 -8 10 -19 10 -25z m1117 -17 c-2 -13 -4 -5 -4 17 -1 22 1 32 4 23 2 -10 2 -28 0 -40z m-1474 30 c-6 -7 -9 -21 -8 -31 2 -9 0 -15 -5 -12 -13 8 1 55 17 55 3 0 1 -6 -4 -12z m390 -3 c-3 -9 -8 -14 -10 -11 -3 3 -2 9 2 15 9 16 15 13 8 -4z m534 -32 c-3 -10 -5 -2 -5 17 0 19 2 27 5 18 2 -10 2 -26 0 -35z m-823 -12 c9 -12 8 -12 -10 -1 -15 9 -20 19 -16 34 6 20 6 20 10 1 2 -11 9 -26 16 -34z m3 27 c-3 -8 -6 -5 -6 6 -1 11 2 17 5 13 3 -3 4 -12 1 -19z m40 0 c-3 -8 -6 -5 -6 6 -1 11 2 17 5 13 3 -3 4 -12 1 -19z m363 12 c0 -5 -2 -10 -4 -10 -3 0 -8 5 -11 10 -3 6 -1 10 4 10 6 0 11 -4 11 -10z m527 -12 c2 -18 0 -20 -7 -8 -12 18 -13 30 -2 30 4 0 9 -10 9 -22z m280 -25 c-3 -10 -5 -2 -5 17 0 19 2 27 5 18 2 -10 2 -26 0 -35z m-862 27 c3 -6 -1 -7 -9 -4 -18 7 -21 14 -7 14 6 0 13 -4 16 -10z m-631 -25 c-4 -8 -11 -12 -16 -9 -6 4 -5 10 3 15 19 12 19 11 13 -6z m563 -7 c-3 -8 -6 -5 -6 6 -1 11 2 17 5 13 3 -3 4 -12 1 -19z m310 7 c0 -8 -4 -15 -9 -15 -10 0 -11 14 -1 23 9 10 10 9 10 -8z m930 -7 c-3 -8 -6 -5 -6 6 -1 11 2 17 5 13 3 -3 4 -12 1 -19z m-1680 -10 c4 20 23 33 23 15 -1 -20 -21 -36 -47 -39 -15 -1 -22 0 -15 3 6 2 12 14 13 26 0 21 1 21 11 -3 11 -25 11 -25 15 -2z m498 1 c-10 -15 -25 -10 -19 6 4 8 10 12 15 9 5 -3 7 -10 4 -15z m-195 -9 c-24 -15 -37 -11 -16 5 11 8 22 12 25 9 3 -3 -1 -9 -9 -14z m230 5 c-7 -8 -17 -15 -23 -15 -6 0 -2 7 9 15 25 19 30 19 14 0z m131 -1 c21 6 22 5 6 -4 -21 -13 -47 -6 -47 12 0 10 2 10 9 -1 5 -8 17 -11 32 -7z m202 -4 c3 -11 1 -18 -4 -14 -5 3 -9 12 -9 20 0 20 7 17 13 -6z m-606 4 c-3 -3 -12 -4 -19 -1 -8 3 -5 6 6 6 11 1 17 -2 13 -5z m-322 -13 c3 -5 1 -12 -5 -16 -5 -3 -10 1 -10 9 0 18 6 21 15 7z m658 -6 c-3 -9 -8 -14 -10 -11 -3 3 -2 9 2 15 9 16 15 13 8 -4z m-348 -5 c-3 -5 -12 -10 -18 -10 -7 0 -6 4 3 10 19 12 23 12 15 0z m605 -13 c0 -7 -4 -6 -10 3 -8 12 -10 12 -10 1 0 -8 -3 -12 -6 -8 -9 9 6 28 17 22 5 -4 9 -12 9 -18z m147 17 c-3 -3 -12 -4 -19 -1 -8 3 -5 6 6 6 11 1 17 -2 13 -5z m-827 -8 c0 -3 -4 -8 -10 -11 -5 -3 -10 -1 -10 4 0 6 5 11 10 11 6 0 10 -2 10 -4z m40 -6 c0 -5 -4 -10 -10 -10 -5 0 -10 5 -10 10 0 6 5 10 10 10 6 0 10 -4 10 -10z m975 0 c-27 -12 -43 -12 -25 0 8 5 22 9 30 9 10 0 8 -3 -5 -9z m351 -3 c4 -4 -13 -7 -37 -7 -27 0 -39 3 -31 9 15 9 58 8 68 -2z m-1069 -11 c0 -8 -8 -11 -20 -8 -14 4 -16 7 -5 13 19 12 25 11 25 -5z m43 -6 c0 -5 -7 -7 -15 -4 -8 4 -15 8 -15 10 0 2 7 4 15 4 8 0 15 -4 15 -10z m821 -8 c-7 -2 -18 1 -23 6 -8 8 -4 9 13 5 13 -4 18 -8 10 -11z m-326 -3 c11 -16 1 -19 -13 -3 -7 8 -8 14 -3 14 5 0 13 -5 16 -11z m586 -3 c5 3 9 1 9 -3 0 -13 -41 -45 -48 -38 -4 3 0 11 8 16 12 9 13 11 1 16 -11 5 -11 7 0 14 8 5 15 4 17 -1 2 -6 8 -8 13 -4z m-518 -3 c-7 -2 -19 -2 -25 0 -7 3 -2 5 12 5 14 0 19 -2 13 -5z m87 3 c0 -3 -4 -8 -10 -11 -5 -3 -10 -1 -10 4 0 6 5 11 10 11 6 0 10 -2 10 -4z m87 -3 c-9 -2 -14 -9 -11 -15 4 -7 2 -8 -5 -4 -15 10 -4 26 17 25 15 -1 15 -2 -1 -6z m383 1 c0 -13 -22 -44 -31 -44 -6 0 -3 7 5 16 9 8 14 20 11 25 -4 5 -1 9 4 9 6 0 11 -3 11 -6z m-266 -16 c-3 -4 -11 -5 -19 -1 -8 3 -15 -1 -15 -8 0 -7 -3 -10 -6 -6 -10 10 6 26 26 24 10 -1 17 -5 14 -9z m416 -18 c0 -5 -2 -10 -4 -10 -3 0 -8 5 -11 10 -3 6 -1 10 4 10 6 0 11 -4 11 -10z m-1300 -235 c-7 -8 -17 -15 -23 -15 -6 0 -2 7 9 15 25 19 30 19 14 0z m1074 -30 c3 -8 1 -15 -4 -15 -6 0 -10 7 -10 15 0 8 2 15 4 15 2 0 6 -7 10 -15z m-1579 -35 c3 -5 1 -10 -4 -10 -6 0 -11 5 -11 10 0 6 2 10 4 10 3 0 8 -4 11 -10z m555 -94 c0 -3 -4 -8 -10 -11 -5 -3 -10 -1 -10 4 0 6 5 11 10 11 6 0 10 -2 10 -4z m-3141 -114 c7 -13 6 -19 -2 -19 -7 0 -13 9 -13 19 0 10 1 18 3 18 1 0 7 -8 12 -18z m4004 -16 c3 -8 0 -17 -8 -19 -11 -5 -13 6 -6 31 2 6 9 0 14 -12z m137 -10 c0 -2 -8 -10 -17 -17 -16 -13 -17 -12 -4 4 13 16 21 21 21 13z m-3939 -59 c-10 -9 -11 -8 -5 6 3 10 9 15 12 12 3 -3 0 -11 -7 -18z m66 6 c-8 -10 -16 -22 -15 -26 0 -5 -3 -11 -6 -14 -7 -7 1 34 9 47 3 6 11 10 17 10 6 0 4 -8 -5 -17z m3983 2 c0 -8 -4 -15 -10 -15 -5 0 -10 7 -10 15 0 8 5 15 10 15 6 0 10 -7 10 -15z m-3920 -49 c-7 -7 -13 -7 -20 0 -6 6 -3 10 10 10 13 0 16 -4 10 -10z m30 -10 c0 -3 -4 -8 -10 -11 -5 -3 -10 -1 -10 4 0 6 5 11 10 11 6 0 10 -2 10 -4z m0 -38 c0 -5 9 -7 19 -3 25 8 36 -11 17 -30 -18 -19 -30 -19 -23 -1 4 10 -1 13 -16 10 -12 -2 -16 -1 -8 2 11 5 8 11 -10 25 -24 18 -24 18 -1 12 12 -3 22 -10 22 -15z m73 -88 c-3 -12 -8 -19 -11 -16 -5 6 5 36 12 36 2 0 2 -9 -1 -20z m-203 -20 c0 -5 -2 -10 -4 -10 -3 0 -8 5 -11 10 -3 6 -1 10 4 10 6 0 11 -4 11 -10z m171 -17 c13 -16 12 -17 -3 -4 -10 7 -18 15 -18 17 0 8 8 3 21 -13z m-141 -13 c12 -7 10 -9 -8 -7 -12 0 -22 5 -22 9 0 11 12 10 30 -2z m225 4 c13 -6 14 -9 3 -16 -10 -7 -9 -11 6 -23 11 -8 15 -15 9 -15 -12 0 -27 18 -36 43 -7 19 -6 20 18 11z m92 -39 c0 -8 -8 -16 -17 -18 -9 -2 -17 2 -17 9 0 7 5 10 10 7 6 -3 7 -1 4 5 -4 5 -16 8 -26 5 -15 -4 -20 0 -18 15 1 19 3 19 32 5 18 -8 32 -21 32 -28z m-367 15 c0 -5 -10 -10 -22 -10 -19 0 -20 2 -8 10 19 13 30 13 30 0z m114 -5 c25 -19 16 -19 -20 0 -16 8 -22 15 -14 15 8 -1 24 -7 34 -15z m106 -25 c0 -5 -2 -10 -4 -10 -3 0 -8 5 -11 10 -3 6 -1 10 4 10 6 0 11 -4 11 -10z m-30 -20 c-8 -5 -19 -10 -25 -10 -5 0 -3 5 5 10 8 5 20 10 25 10 6 0 3 -5 -5 -10z m-250 -10 c13 -8 13 -10 -2 -10 -9 0 -20 5 -23 10 -8 13 5 13 25 0z m207 -15 c0 -8 -4 -12 -9 -9 -5 3 -6 10 -3 15 9 13 12 11 12 -6z m153 0 c7 -9 8 -15 2 -15 -5 0 -12 7 -16 15 -3 8 -4 15 -2 15 2 0 9 -7 16 -15z m-125 -5 c3 -5 1 -10 -4 -10 -6 0 -11 5 -11 10 0 6 2 10 4 10 3 0 8 -4 11 -10z m252 -22 c21 -12 40 -23 42 -25 2 -1 -2 -9 -9 -18 -7 -9 -10 -19 -6 -23 4 -4 12 1 17 10 8 15 13 16 29 5 11 -6 20 -17 20 -24 0 -15 -26 -17 -35 -3 -9 14 -34 0 -28 -16 4 -10 0 -12 -11 -8 -17 7 -22 24 -6 24 6 0 6 9 0 24 -5 13 -6 27 -2 31 4 4 -8 5 -27 3 -24 -2 -35 1 -38 12 -4 13 -3 13 6 0 5 -8 13 -11 17 -7 4 3 1 13 -6 22 -17 21 -8 19 37 -7z m-227 2 c0 -5 -12 -10 -27 -9 -25 0 -26 1 -8 9 27 12 35 12 35 0z m50 6 c0 -2 -7 -9 -15 -16 -12 -10 -15 -10 -15 4 0 9 7 16 15 16 8 0 15 -2 15 -4z m58 -28 c11 -14 10 -16 -7 -11 -12 3 -17 11 -14 19 3 8 6 14 7 12 1 -2 7 -11 14 -20z m72 -38 c0 -5 10 -10 22 -10 12 0 19 -3 15 -6 -9 -9 -57 5 -57 16 0 6 5 10 10 10 6 0 10 -4 10 -10z m-325 -20 c3 -5 1 -10 -4 -10 -6 0 -11 5 -11 10 0 6 2 10 4 10 3 0 8 -4 11 -10z m135 -20 c0 -5 -5 -10 -11 -10 -5 0 -7 5 -4 10 3 6 8 10 11 10 2 0 4 -4 4 -10z m-80 -41 c0 -11 -3 -11 -24 -3 -23 9 -20 23 4 17 11 -3 20 -9 20 -14z m45 3 c-3 -3 -11 0 -18 7 -9 10 -8 11 6 5 10 -3 15 -9 12 -12z m55 8 c0 -5 -8 -10 -17 -10 -15 0 -16 2 -3 10 19 12 20 12 20 0z m213 -7 c-3 -7 -15 -13 -27 -13 -17 0 -19 2 -6 11 12 9 11 10 -8 6 -12 -3 -20 -1 -17 4 9 13 63 6 58 -8z m146 -14 c-7 -4 -5 -9 5 -12 9 -4 16 -12 15 -19 0 -10 -2 -10 -6 0 -2 6 -9 10 -14 6 -5 -3 -10 0 -10 5 -3 21 -4 26 -13 39 -7 11 -4 11 13 1 12 -8 16 -16 10 -20z m-84 -10 c-4 -5 -16 -9 -28 -9 -21 1 -21 1 -3 15 20 15 41 11 31 -6z m42 7 c0 -8 -6 -12 -15 -9 -11 5 -11 7 0 14 7 5 13 9 14 9 0 0 1 -6 1 -14z m-461 -15 c-4 -6 -14 -7 -23 -4 -15 6 -14 7 3 13 22 9 29 6 20 -9z m354 -1 c0 -5 -7 -7 -15 -4 -8 4 -15 8 -15 10 0 2 7 4 15 4 8 0 15 -4 15 -10z m-304 -7 c-3 -4 -17 -8 -29 -10 -17 -2 -19 -1 -7 7 17 11 47 14 36 3z m88 -8 c3 -8 1 -15 -4 -15 -6 0 -10 7 -10 15 0 8 2 15 4 15 2 0 6 -7 10 -15z m256 -5 c0 -5 -7 -7 -15 -4 -8 4 -15 8 -15 10 0 2 7 4 15 4 8 0 15 -4 15 -10z m80 0 c0 -5 -5 -10 -11 -10 -5 0 -7 5 -4 10 3 6 8 10 11 10 2 0 4 -4 4 -10z"
       id="path3785"
       style="fill:#2d72af;fill-opacity:1" />
  </g>
</svg>
