<?xml version="1.0" encoding="UTF-8" standalone="no"?>
<svg
   version="1.0"
   width="624.000000pt"
   height="351.000000pt"
   viewBox="0 0 624.000000 351.000000"
   preserveAspectRatio="xMidYMid meet"
   id="svg2959"
   sodipodi:docname="scan1.svg"
   inkscape:version="1.1.2 (0a00cf5339, 2022-02-04)"
   xmlns:inkscape="http://www.inkscape.org/namespaces/inkscape"
   xmlns:sodipodi="http://sodipodi.sourceforge.net/DTD/sodipodi-0.dtd"
   xmlns="http://www.w3.org/2000/svg"
   xmlns:svg="http://www.w3.org/2000/svg">
  <defs
     id="defs2963" />
  <sodipodi:namedview
     id="namedview2961"
     pagecolor="#ffffff"
     bordercolor="#666666"
     borderopacity="1.0"
     inkscape:pageshadow="2"
     inkscape:pageopacity="0.0"
     inkscape:pagecheckerboard="0"
     inkscape:document-units="pt"
     showgrid="false"
     inkscape:zoom="1.4050481"
     inkscape:cx="416"
     inkscape:cy="234.15569"
     inkscape:window-width="1920"
     inkscape:window-height="1055"
     inkscape:window-x="0"
     inkscape:window-y="0"
     inkscape:window-maximized="1"
     inkscape:current-layer="svg2959" />
  <metadata
     id="metadata2907">
Created by potrace 1.15, written by Peter Selinger 2001-2017
</metadata>
  <g
     transform="translate(0.000000,351.000000) scale(0.100000,-0.100000)"
     fill="#000000"
     stroke="none"
     id="g2957"
     style="fill:#bec3cb;fill-opacity:1">
    <path
       d="M0 2445 c1 -895 3 -1065 15 -1065 18 0 24 21 13 43 -6 12 -5 17 6 17 10 0 13 -6 10 -15 -11 -29 12 -15 29 17 10 20 15 46 12 66 -3 23 0 32 10 32 8 0 15 -8 15 -17 1 -16 2 -16 11 1 9 14 8 20 -2 27 -11 7 -10 9 4 9 14 0 17 -9 17 -46 0 -28 -4 -43 -10 -39 -6 3 -13 -2 -17 -12 -4 -10 -14 -23 -22 -30 -14 -11 -14 -12 4 -13 18 -1 18 -2 -3 -10 -12 -5 -22 -12 -22 -15 0 -4 5 -3 10 0 6 3 10 2 10 -2 0 -5 12 -14 28 -20 22 -8 16 -9 -33 -5 -33 2 -57 1 -53 -3 5 -5 -1 -14 -12 -22 -17 -12 -20 -26 -20 -89 l0 -74 80 0 c87 0 95 -6 55 -46 -14 -14 -25 -30 -25 -37 -1 -7 -8 1 -16 16 -9 18 -19 25 -27 20 -7 -4 -23 -8 -37 -8 l-25 0 -3 -293 c-2 -234 0 -292 10 -286 9 5 8 2 -1 -10 -13 -15 -13 -19 0 -27 10 -6 10 -9 2 -9 -20 0 -15 -38 5 -43 16 -4 16 -5 0 -6 -16 -1 -18 -11 -16 -85 2 -73 4 -83 18 -76 25 13 65 60 51 60 -7 0 -9 5 -6 10 3 6 11 10 16 10 6 0 7 -4 4 -10 -3 -5 -1 -10 4 -10 6 0 11 5 11 10 0 6 5 10 12 10 6 0 1 -11 -12 -25 -13 -14 -19 -25 -14 -25 5 0 2 -4 -6 -10 -8 -5 -11 -12 -7 -16 4 -4 27 12 51 35 25 25 49 40 56 36 14 -9 -6 -35 -28 -35 -8 0 -12 -3 -8 -7 3 -4 -10 -24 -31 -45 -51 -52 -29 -48 24 4 28 28 46 39 53 32 6 -6 -18 -37 -72 -89 -44 -44 -69 -64 -55 -45 38 52 21 72 -27 30 -31 -28 -36 -38 -36 -78 0 -44 0 -45 20 -27 11 10 20 14 20 8 0 -5 -9 -18 -20 -28 -12 -11 -20 -31 -20 -52 l0 -33 3120 0 3120 0 0 760 c0 753 0 760 -20 760 -26 0 -25 17 3 41 12 10 17 18 10 19 -6 0 -23 -14 -37 -31 -25 -29 -27 -30 -110 -28 -63 1 -83 5 -79 14 6 18 -16 30 -30 16 -9 -9 -8 -14 3 -21 12 -8 10 -10 -10 -10 -14 -1 -86 -3 -160 -6 -74 -2 -200 -6 -280 -8 -80 -2 -211 -7 -291 -11 -137 -8 -149 -7 -175 12 -43 29 -54 32 -114 22 -40 -6 -56 -5 -62 4 -6 9 -8 9 -8 0 0 -7 -7 -13 -15 -13 -8 0 -14 6 -12 13 3 18 -212 12 -249 -8 -16 -8 -35 -15 -41 -15 -7 0 -13 -9 -13 -20 0 -18 -7 -20 -66 -20 -55 0 -65 2 -60 15 8 22 -20 30 -47 13 -12 -8 -49 -17 -82 -20 -33 -4 -52 -4 -42 -1 30 8 18 21 -27 27 l-45 7 -3 52 -3 52 -55 -1 c-30 -1 -90 -2 -132 -3 l-78 -2 0 -50 c0 -46 -2 -49 -26 -49 -47 0 -54 19 -54 137 l0 108 -322 -3 -323 -4 4 89 c3 48 6 77 9 64 3 -21 7 -23 49 -16 87 13 214 62 235 90 4 6 8 6 8 1 0 -5 8 -2 17 6 21 17 83 40 83 30 0 -3 7 4 16 16 8 12 24 22 34 22 10 0 22 5 25 11 4 6 13 8 20 5 8 -3 19 1 25 9 7 8 42 28 78 46 96 45 165 80 182 94 8 6 26 12 40 13 14 1 26 6 28 12 2 5 10 10 17 10 13 0 45 37 45 51 0 4 -8 9 -17 12 -16 3 -16 5 2 11 39 15 50 23 53 45 3 21 22 30 22 11 0 -5 7 -10 16 -10 8 0 13 4 10 9 -3 4 2 8 12 8 37 0 42 4 42 33 0 18 5 30 13 30 30 0 67 26 67 46 0 12 7 27 15 34 13 11 18 10 30 -6 14 -18 14 -18 15 3 0 16 8 24 28 28 15 4 38 12 52 20 14 7 42 16 63 20 30 6 38 11 34 25 -3 13 1 16 18 12 13 -2 26 1 29 7 4 6 18 11 32 11 23 0 115 46 122 61 1 3 13 4 26 2 13 -3 27 0 30 6 4 6 2 11 -3 11 -6 0 -11 5 -11 11 0 8 5 8 15 -1 12 -10 23 -9 58 8 23 12 50 23 60 27 11 3 21 14 24 25 4 15 17 21 54 26 28 4 69 19 95 35 25 16 50 27 55 24 5 -4 15 -3 22 2 6 4 21 9 32 10 10 2 22 8 25 13 3 5 15 11 25 13 11 1 25 6 32 10 6 4 19 4 29 0 14 -5 16 -3 11 11 -5 13 3 21 36 35 24 10 57 22 75 26 17 3 34 11 37 16 4 5 14 9 25 9 10 0 20 7 24 15 3 8 14 15 25 15 11 0 26 9 34 20 8 11 16 17 20 14 10 -11 67 7 67 22 0 10 10 12 43 8 32 -5 46 -2 56 10 12 14 9 16 -25 16 -35 0 -37 1 -22 16 12 12 20 14 36 5 11 -6 38 -11 59 -10 21 0 32 3 25 6 -21 8 -14 18 23 32 19 7 35 19 35 26 0 9 6 12 15 9 8 -4 22 -1 30 6 8 7 22 10 30 6 8 -3 15 0 15 7 0 7 16 19 35 26 26 9 34 17 31 29 -3 9 -1 24 4 32 8 13 10 12 10 -2 0 -10 5 -18 10 -18 6 0 10 -7 10 -15 0 -8 5 -15 11 -15 6 0 9 6 6 14 -3 8 5 19 18 26 13 7 21 18 18 26 -6 17 9 18 24 3 8 -8 18 -6 37 6 24 16 26 23 26 81 l0 64 -3120 0 -3120 0 0 -1065z m1250 35 c0 -13 -1 -13 -10 0 -5 8 -10 22 -10 30 0 13 1 13 10 0 5 -8 10 -22 10 -30z m-190 -115 l0 -115 -105 0 -105 0 -2 98 -2 97 -6 -100 -6 -100 -2 111 c-1 61 1 114 5 117 3 4 55 7 115 7 l108 0 0 -115z m1238 -75 c78 0 132 -4 132 -10 0 -6 -70 -10 -180 -10 -160 0 -193 4 -175 21 2 3 24 4 47 2 24 -1 103 -3 176 -3z m-1188 -10 c0 -5 -7 -10 -15 -10 -8 0 -15 5 -15 10 0 6 7 10 15 10 8 0 15 -4 15 -10z m30 -14 c0 -7 10 -12 23 -12 17 1 21 -4 20 -21 -2 -17 1 -21 15 -16 13 5 14 3 5 -7 -13 -14 -33 -5 -33 16 0 8 -5 14 -11 14 -6 0 -8 -8 -4 -19 5 -16 1 -19 -15 -18 -14 1 -18 6 -15 18 4 12 -3 20 -22 28 -27 10 -27 10 -3 8 19 -1 24 2 22 17 -2 11 1 15 7 11 6 -3 11 -12 11 -19z m1440 14 c0 -5 -15 -10 -32 -9 -28 0 -30 2 -13 9 28 12 45 12 45 0z m-1160 -42 c0 -5 -20 -8 -45 -8 -32 0 -45 -4 -45 -14 0 -11 -14 -15 -57 -15 -50 0 -55 2 -40 13 24 18 22 24 -10 28 -16 2 23 4 85 4 61 0 112 -4 112 -8z m-318 -30 c-7 -7 -12 -8 -12 -2 0 14 12 26 19 19 2 -3 -1 -11 -7 -17z m1108 -15 c0 -6 -9 -11 -20 -10 -11 1 -20 7 -20 14 0 6 9 11 20 10 11 -1 20 -7 20 -14z m40 -4 c0 -5 -7 -9 -15 -9 -15 0 -20 12 -9 23 8 8 24 -1 24 -14z m165 11 c3 -5 1 -10 -4 -10 -6 0 -11 5 -11 10 0 6 2 10 4 10 3 0 8 -4 11 -10z m55 -1 c0 -5 5 -7 12 -3 7 4 8 3 4 -4 -10 -16 -31 -15 -46 3 -10 13 -9 15 9 15 11 0 21 -5 21 -11z m90 -4 c10 -12 10 -15 -4 -15 -9 0 -16 5 -16 12 0 9 -3 9 -12 0 -17 -17 -29 -15 -22 3 4 8 14 15 24 15 10 0 23 -7 30 -15z m40 5 c0 -5 -2 -10 -4 -10 -3 0 -8 5 -11 10 -3 6 -1 10 4 10 6 0 11 -4 11 -10z m-1042 -37 c-16 -2 -28 -8 -28 -12 0 -4 57 -7 128 -7 167 -1 275 -6 287 -15 20 -13 75 -21 75 -10 0 6 5 11 10 11 6 0 10 -9 10 -19 0 -18 -13 -19 -290 -20 l-290 -2 0 26 c0 20 5 25 25 25 34 0 32 18 -2 23 -16 2 1 4 37 4 36 0 53 -2 38 -4z m977 -3 c3 -5 1 -10 -4 -10 -6 0 -11 5 -11 10 0 6 2 10 4 10 3 0 8 -4 11 -10z m32 -32 c-3 -8 -6 -5 -6 6 -1 11 2 17 5 13 3 -3 4 -12 1 -19z m-269 -120 l3 -108 -68 0 -68 0 -2 58 c-1 31 0 81 3 110 l6 53 61 -3 62 -3 3 -107z m-992 33 c-4 -30 -8 -56 -9 -57 -1 0 -27 -4 -57 -6 -30 -3 -47 -3 -37 -1 9 2 15 9 11 14 -3 5 -10 6 -16 3 -6 -4 -8 -3 -5 2 3 6 2 16 -4 24 -6 10 -9 -8 -9 -53 l0 -69 -41 34 c-23 18 -54 43 -70 56 -16 13 -29 19 -29 14 0 -6 32 -33 70 -62 39 -29 70 -56 70 -61 0 -5 -52 -9 -115 -9 l-115 0 0 98 c0 54 -4 102 -10 108 -6 6 38 8 120 6 116 -3 128 -5 123 -20 -5 -16 -5 -16 8 0 8 10 32 21 54 26 69 14 68 15 61 -47z m-478 -68 l3 -103 -51 0 -50 0 0 83 c0 121 4 129 54 125 l41 -3 3 -102z m601 37 c4 0 8 -7 8 -15 0 -18 -23 -20 -33 -3 -4 7 -3 8 4 4 7 -4 12 -2 12 3 0 6 -4 11 -10 11 -5 0 -6 8 -2 18 6 16 7 16 10 0 2 -10 7 -18 11 -18z m-59 -14 c0 -3 -4 -8 -10 -11 -5 -3 -10 -1 -10 4 0 6 5 11 10 11 6 0 10 -2 10 -4z m47 -128 c-3 -8 -6 -5 -6 6 -1 11 2 17 5 13 3 -3 4 -12 1 -19z m663 2 c0 -19 -7 -20 -141 -20 -92 0 -138 -3 -134 -10 4 -6 10 -8 15 -5 5 3 5 -9 0 -27 -6 -17 -9 -32 -7 -33 1 0 18 -9 38 -20 l37 -18 33 31 c18 17 37 28 42 25 5 -3 4 -10 -2 -16 -13 -13 -14 -54 -2 -62 5 -3 12 3 14 12 2 10 4 4 3 -12 l-1 -31 -92 -2 -93 -1 0 104 0 105 145 0 c138 0 145 -1 145 -20z m441 -1 c7 -15 6 -19 -6 -19 -8 0 -15 4 -15 10 0 6 -9 6 -22 1 -13 -4 -34 -4 -48 0 -23 6 -23 7 8 8 18 1 31 5 28 10 -3 5 6 9 19 9 15 0 30 -9 36 -19z m129 10 c0 -5 -5 -7 -11 -3 -6 3 -15 0 -20 -7 -4 -7 -11 -10 -14 -7 -11 11 5 28 26 28 10 0 19 -5 19 -11z m391 -40 c15 -8 24 -7 35 2 12 10 13 9 8 -5 -4 -11 -14 -16 -25 -13 -11 3 -17 1 -13 -4 3 -5 12 -9 20 -9 8 0 14 -7 14 -15 0 -8 -5 -15 -11 -15 -5 0 -7 -4 -4 -10 3 -5 0 -10 -8 -10 -10 0 -14 7 -11 23 l5 22 -10 -22 c-9 -20 -17 -22 -83 -21 l-73 1 3 38 c3 28 8 36 18 32 8 -3 13 -10 11 -17 -7 -21 16 -34 45 -24 16 6 28 14 28 19 0 9 21 38 28 39 2 0 12 -5 23 -11z m-993 -15 c15 -15 16 -15 23 2 4 11 8 -34 8 -98 1 -69 -3 -118 -9 -118 -5 0 -7 13 -5 30 3 27 0 30 -31 36 -19 3 -34 11 -35 18 -1 15 -6 44 -14 75 -5 21 -4 24 6 14 21 -21 29 -15 29 22 0 39 4 42 28 19z m142 6 c0 -5 -2 -10 -4 -10 -3 0 -8 5 -11 10 -3 6 -1 10 4 10 6 0 11 -4 11 -10z m207 -65 l1 -35 -49 0 c-43 0 -49 3 -49 21 0 19 1 19 17 4 14 -15 18 -15 27 -3 6 8 18 17 26 21 12 4 11 6 -2 6 -27 1 -22 21 5 21 19 0 23 -5 24 -35z m115 5 c3 -17 2 -32 0 -35 -3 -3 -26 -5 -52 -5 -46 0 -46 0 -46 35 l0 35 47 0 c44 0 47 -2 51 -30z m118 -5 l0 -35 -50 0 -50 0 0 35 0 35 50 0 50 0 0 -35z m120 0 l0 -35 -50 0 -50 0 0 35 0 35 50 0 50 0 0 -35z m118 -2 c-3 -38 -3 -38 -50 -41 l-48 -3 0 40 0 41 51 0 50 0 -3 -37z m-1410 8 c10 -6 3 -10 -22 -15 -26 -5 -43 -2 -58 9 -22 14 -21 15 22 15 25 0 51 -4 58 -9z m772 -1 c0 -5 -2 -10 -4 -10 -3 0 -8 5 -11 10 -3 6 -1 10 4 10 6 0 11 -4 11 -10z m45 -18 c-3 -3 -11 0 -18 7 -9 10 -8 11 6 5 10 -3 15 -9 12 -12z m-65 0 c0 -4 14 -9 32 -10 50 -4 46 -12 -5 -12 -35 0 -47 4 -47 15 0 8 5 15 10 15 6 0 10 -4 10 -8z m-1410 -27 c11 -13 10 -14 -4 -9 -9 3 -16 10 -16 15 0 13 6 11 20 -6z m2107 9 c-3 -3 -12 -4 -19 -1 -8 3 -5 6 6 6 11 1 17 -2 13 -5z m-2157 -39 c0 -8 -4 -15 -10 -15 -5 0 -7 7 -4 15 4 8 8 15 10 15 2 0 4 -7 4 -15z m2434 7 c8 -14 -10 -32 -40 -42 -18 -5 59 -7 206 -4 129 2 250 5 268 5 31 0 62 -15 62 -30 0 -3 -148 -6 -330 -6 -358 0 -339 -3 -323 53 4 17 11 22 24 19 11 -3 19 -1 19 4 0 11 107 12 114 1z m296 1 c-108 -17 -243 -33 -246 -30 -3 2 -2 12 2 21 5 14 24 16 138 15 72 -1 120 -3 106 -6z m-2515 -13 c-3 -5 -11 -10 -16 -10 -6 0 -7 5 -4 10 3 6 11 10 16 10 6 0 7 -4 4 -10z m44 -1 c-21 -8 -25 -15 -21 -34 3 -18 0 -25 -12 -25 -9 0 -16 8 -16 19 0 22 36 51 60 50 8 0 3 -5 -11 -10z m65 -1 c-3 -4 -12 -8 -20 -8 -8 0 -13 4 -10 8 3 5 12 9 20 9 8 0 13 -4 10 -9z m-364 -8 c0 -5 -5 -10 -11 -10 -5 0 -7 5 -4 10 3 6 8 10 11 10 2 0 4 -4 4 -10z m1130 -37 c0 -5 -11 -8 -25 -8 -14 0 -25 3 -25 8 0 4 11 7 25 7 14 0 25 -3 25 -7z m98 0 c-10 -2 -28 -2 -40 0 -13 2 -5 4 17 4 22 1 32 -1 23 -4z m69 -25 c-3 -7 -5 -2 -5 12 0 14 2 19 5 13 2 -7 2 -19 0 -25z m-31 13 c-4 -5 0 -12 6 -14 8 -3 6 -6 -4 -6 -18 -1 -24 10 -11 22 9 10 15 8 9 -2z m74 -11 c0 -5 -2 -10 -4 -10 -3 0 -8 5 -11 10 -3 6 -1 10 4 10 6 0 11 -4 11 -10z m-1630 -74 c0 -15 -3 -17 -9 -7 -6 10 -10 10 -16 1 -4 -6 0 -17 8 -23 8 -7 17 -30 20 -52 3 -22 9 -55 12 -72 6 -26 4 -33 -8 -33 -10 0 -17 11 -19 33 -2 18 -8 31 -15 30 -7 -2 -10 3 -7 11 6 15 -23 42 -33 32 -4 -4 -3 -15 3 -24 16 -27 6 -52 -22 -52 -17 0 -24 6 -24 20 0 14 -5 18 -17 14 -14 -5 -15 -4 -4 4 15 11 12 23 -16 61 -17 24 -17 24 6 12 26 -15 45 -4 19 10 -29 16 -3 46 41 47 20 1 40 8 46 16 12 20 35 2 35 -28z m3293 37 c-7 -2 -21 -2 -30 0 -10 3 -4 5 12 5 17 0 24 -2 18 -5z m-2314 -19 c42 -2 75 -44 34 -44 -14 0 -15 2 -5 9 10 6 8 10 -10 14 -12 4 -33 7 -45 7 -15 0 -23 6 -23 18 0 9 4 13 8 7 4 -5 22 -11 41 -11z m2348 -16 c-3 -8 -6 -5 -6 6 -1 11 2 17 5 13 3 -3 4 -12 1 -19z m-3667 8 c0 -3 -4 -8 -10 -11 -5 -3 -10 -1 -10 4 0 6 5 11 10 11 6 0 10 -2 10 -4z m200 0 c0 -9 -30 -14 -35 -6 -4 6 3 10 14 10 12 0 21 -2 21 -4z m2750 -2 c0 -3 -5 -14 -10 -25 -8 -15 -7 -19 4 -19 8 0 17 4 20 9 7 11 44 3 52 -11 3 -5 -2 -8 -12 -6 -13 2 -20 -4 -22 -19 -2 -13 -10 -23 -18 -23 -16 0 -16 -2 -8 -24 3 -9 10 -13 15 -10 5 3 9 -2 9 -11 0 -9 -4 -14 -9 -10 -5 3 -13 -24 -16 -60 -8 -73 -24 -97 -26 -38 0 21 -2 79 -4 128 -3 95 0 125 16 125 5 0 9 -3 9 -6z m-2850 -36 c0 -5 -4 -8 -10 -8 -5 0 -10 10 -10 23 0 18 2 19 10 7 5 -8 10 -18 10 -22z m1420 12 c0 -5 -2 -10 -4 -10 -3 0 -8 5 -11 10 -3 6 -1 10 4 10 6 0 11 -4 11 -10z m555 0 c3 -5 1 -10 -4 -10 -6 0 -11 5 -11 10 0 6 2 10 4 10 3 0 8 -4 11 -10z m1408 -17 c-7 -3 -9 -11 -6 -19 3 -8 -1 -14 -11 -14 -9 0 -16 -6 -16 -12 0 -8 -7 -5 -15 6 -8 11 -15 25 -15 30 0 6 5 3 11 -7 12 -21 29 -13 29 13 0 14 5 18 17 13 10 -4 12 -8 6 -10z m67 1 c0 -8 -5 -12 -10 -9 -6 4 -8 11 -5 16 9 14 15 11 15 -7z m120 5 c0 -6 7 -9 15 -6 8 4 17 2 20 -3 4 -6 1 -10 -4 -10 -18 0 -12 -25 12 -54 21 -24 23 -25 24 -6 1 11 -2 18 -7 15 -4 -3 -11 2 -14 11 -3 8 -2 12 4 9 6 -3 10 -1 10 4 0 6 4 11 9 11 15 0 13 -116 -3 -129 -11 -9 -15 -7 -20 11 -7 22 -8 22 -15 4 -7 -19 -8 -19 -16 0 -4 10 -9 24 -10 29 0 6 -5 18 -9 28 -5 10 -6 21 -2 24 3 4 6 0 6 -8 0 -8 9 -20 20 -27 23 -14 27 0 5 18 -8 7 -15 19 -15 27 0 11 -7 13 -25 9 -14 -4 -25 -2 -25 4 0 5 7 10 16 10 11 0 15 6 11 20 -3 11 -1 20 4 20 5 0 9 -5 9 -11z m-333 -21 c-3 -8 -6 -5 -6 6 -1 11 2 17 5 13 3 -3 4 -12 1 -19z m287 -2 c-10 -8 -21 -12 -23 -10 -3 2 4 11 15 18 10 8 21 12 23 10 3 -2 -4 -11 -15 -18z m1337 -4 c-28 -4 -40 6 -21 18 9 6 20 4 29 -3 12 -10 11 -13 -8 -15z m-2691 8 c0 -5 -2 -10 -4 -10 -3 0 -8 5 -11 10 -3 6 -1 10 4 10 6 0 11 -4 11 -10z m2610 -1 c0 -14 -29 -17 -40 -4 -8 10 -5 13 15 11 14 0 25 -4 25 -7z m35 1 c3 -5 -1 -10 -10 -10 -9 0 -13 5 -10 10 3 6 8 10 10 10 2 0 7 -4 10 -10z m-1510 -10 c-3 -5 -14 -10 -23 -10 -15 0 -15 2 -2 10 20 13 33 13 25 0z m-1020 -10 c3 -5 1 -10 -4 -10 -6 0 -11 5 -11 10 0 6 2 10 4 10 3 0 8 -4 11 -10z m82 -12 c-3 -8 -6 -5 -6 6 -1 11 2 17 5 13 3 -3 4 -12 1 -19z m1858 12 c3 -5 -1 -10 -9 -10 -9 0 -16 5 -16 10 0 6 4 10 9 10 6 0 13 -4 16 -10z m-2051 -42 c-5 -8 -10 -5 -14 8 -10 25 0 41 12 20 5 -9 6 -21 2 -28z m1236 12 c0 -24 -6 -25 -25 -6 -15 15 -10 26 12 26 7 0 13 -9 13 -20z m-1514 -12 c4 -13 2 -24 -5 -26 -6 -2 -11 -10 -11 -17 0 -8 -5 -26 -12 -42 -11 -28 -13 -42 -21 -136 -4 -53 -16 -66 -52 -59 -20 3 -24 0 -28 -29 -2 -19 -5 42 -5 134 l-2 169 54 -4 c30 -1 54 -1 54 2 -3 35 17 41 28 8z m1560 -5 c-10 -10 -19 5 -10 18 6 11 8 11 12 0 2 -7 1 -15 -2 -18z m-3431 -11 c-8 -8 -25 10 -19 20 4 6 9 5 15 -3 4 -7 6 -15 4 -17z m2898 22 c9 -9 -4 -35 -14 -28 -5 3 -9 12 -9 20 0 14 12 19 23 8z m437 -25 c0 -6 -4 -7 -10 -4 -5 3 -10 11 -10 16 0 6 5 7 10 4 6 -3 10 -11 10 -16z m-2160 -74 c0 -50 -4 -85 -10 -85 -5 0 -10 7 -10 15 0 8 -8 16 -17 16 -17 1 -17 2 0 6 11 3 18 15 19 36 1 18 3 41 4 52 1 11 2 26 3 33 1 6 3 12 6 12 3 0 5 -38 5 -85z m2216 -31 c-10 -37 -28 -18 -20 19 3 18 9 37 13 42 9 14 14 -32 7 -61z m-2388 25 c-7 -4 -6 -13 1 -27 8 -16 7 -21 -4 -26 -12 -4 -15 4 -15 40 0 38 2 43 14 32 8 -8 10 -15 4 -19z m-973 10 c6 -2 -30 -5 -80 -8 -90 -6 -116 -4 -97 8 9 5 153 5 177 0z m55 7 c0 -2 -9 -6 -20 -9 -11 -3 -18 -1 -14 4 5 9 34 13 34 5z m78 -3 c-10 -2 -28 -2 -40 0 -13 2 -5 4 17 4 22 1 32 -1 23 -4z m1302 -128 c3 -66 3 -128 1 -137 -5 -25 -31 -22 -66 7 l-30 24 25 2 c14 1 28 1 33 0 4 0 7 3 7 7 0 17 -13 21 -38 11 -23 -9 -24 -8 -11 7 13 16 12 16 -6 7 -23 -11 -50 -5 -84 19 -21 15 -24 25 -24 88 0 45 4 74 11 79 7 4 49 7 95 7 l82 0 5 -121z m-396 100 c-4 -8 -8 -15 -10 -15 -2 0 -4 7 -4 15 0 8 4 15 10 15 5 0 7 -7 4 -15z m-924 -44 c0 -11 -49 -21 -55 -10 -3 4 7 10 22 12 16 2 29 5 31 6 1 0 2 -3 2 -8z m70 5 c0 -2 -11 -6 -25 -8 -14 -3 -25 -1 -25 3 0 5 11 9 25 9 14 0 25 -2 25 -4z m-145 -16 c-3 -5 -23 -9 -43 -9 l-37 1 30 8 c44 11 57 11 50 0z m2248 -25 c9 -17 37 -20 37 -4 0 5 -4 7 -10 4 -5 -3 -10 -1 -10 5 0 7 7 9 16 6 9 -3 29 -6 45 -6 28 0 29 -2 29 -49 l0 -49 -91 -1 c-136 -1 -139 0 -139 66 l0 56 57 -7 c34 -4 61 -13 66 -21z m-1230 8 c-7 -2 -19 -2 -25 0 -7 3 -2 5 12 5 14 0 19 -2 13 -5z m2287 -14 c0 -6 -4 -7 -10 -4 -5 3 -10 11 -10 16 0 6 5 7 10 4 6 -3 10 -11 10 -16z m-3000 1 c0 -5 -4 -10 -10 -10 -5 0 -10 5 -10 10 0 6 5 10 10 10 6 0 10 -4 10 -10z m-101 -31 c-6 -12 -12 -33 -14 -47 -2 -21 -24 -44 -45 -47 -25 -4 -50 -20 -67 -44 -12 -16 -35 -31 -53 -34 -17 -4 -29 -11 -25 -17 6 -9 2 -12 -27 -14 -7 -1 -15 -4 -18 -7 -3 -4 -15 -10 -28 -13 l-23 -8 3 104 3 103 120 21 c66 12 135 22 153 23 30 1 32 -1 21 -20z m809 -4 c-3 -3 -9 2 -12 12 -6 14 -5 15 5 6 7 -7 10 -15 7 -18z m-688 -5 c-6 -11 -15 -18 -20 -15 -13 8 0 35 16 35 12 0 12 -4 4 -20z m5607 -5 c1 -5 -13 -11 -31 -12 -27 -1 -34 2 -29 13 6 17 54 16 60 -1z m-5337 -25 c0 -5 -4 -10 -10 -10 -5 0 -10 5 -10 10 0 6 5 10 10 10 6 0 10 -4 10 -10z m2740 -12 c0 -19 -2 -20 -10 -8 -13 19 -13 30 0 30 6 0 10 -10 10 -22z m250 18 c0 -2 -7 -6 -15 -10 -8 -3 -15 -1 -15 4 0 6 7 10 15 10 8 0 15 -2 15 -4z m150 -6 c0 -5 -23 -10 -51 -10 -32 0 -56 -6 -66 -15 -19 -20 -27 -13 -18 14 6 18 14 21 71 21 36 0 64 -4 64 -10z m303 -17 c20 -3 37 -9 37 -14 0 -5 8 -9 18 -9 15 0 15 2 2 10 -10 7 5 9 50 5 36 -2 104 -7 153 -11 66 -4 87 -9 87 -20 0 -12 -15 -13 -82 -9 -46 3 -103 9 -128 12 -25 4 -49 6 -53 5 -4 -1 -54 2 -110 8 -203 20 -209 21 -202 10 3 -5 1 -10 -4 -10 -6 0 -11 5 -11 10 0 6 -9 10 -20 10 -11 0 -20 5 -20 11 0 12 196 6 283 -8z m-2307 -52 c-12 -19 -24 -12 -19 10 4 13 9 17 15 11 6 -6 7 -15 4 -21z m2004 21 c0 -5 -13 -7 -30 -4 -16 2 -30 6 -30 8 0 2 14 4 30 4 17 0 30 -4 30 -8z m-2172 -27 c-2 -22 -7 -25 -41 -25 -21 0 -36 4 -33 9 3 5 16 7 29 4 18 -4 19 -3 7 6 -13 9 -13 11 3 11 9 0 17 5 17 10 0 6 4 10 10 10 5 0 9 -11 8 -25z m-534 -151 c3 -55 12 -129 20 -165 8 -35 17 -90 21 -121 l6 -58 -95 0 -96 0 -1 38 c-1 37 -1 37 -9 8 -5 -16 -7 -33 -4 -38 3 -4 -4 -8 -15 -8 -14 0 -21 6 -21 20 0 11 -5 20 -11 20 -6 0 -9 -7 -5 -15 4 -11 -2 -15 -22 -16 -22 -1 -20 -3 12 -10 22 -5 42 -12 45 -16 3 -3 -4 -3 -16 0 -21 5 -23 1 -23 -30 0 -26 -4 -34 -14 -30 -9 4 -17 -1 -19 -11 -3 -9 -6 -1 -7 18 l-2 35 -9 -30 c-5 -16 -12 -43 -15 -60 -3 -16 -9 -32 -15 -33 -5 -2 -7 -7 -5 -11 3 -4 -2 -8 -10 -8 -10 0 -13 6 -8 16 11 29 41 180 34 176 -4 -2 -17 -38 -29 -80 -22 -72 -38 -102 -29 -50 3 15 1 22 -5 18 -6 -4 -8 3 -3 18 34 114 22 111 -17 -4 -24 -73 -28 -72 -12 3 3 15 -2 10 -14 -15 -26 -53 -26 -34 -1 34 12 29 19 55 17 58 -3 2 -17 -28 -33 -68 -15 -39 -30 -66 -32 -60 -2 6 -9 8 -15 4 -6 -4 -8 -1 -5 8 3 8 15 38 27 67 24 61 20 68 -8 15 -11 -21 -20 -34 -21 -29 0 5 -7 3 -15 -4 -13 -11 -14 -10 -9 6 4 10 12 25 17 32 5 7 7 15 4 19 -4 3 -18 -18 -33 -48 -47 -97 -72 -142 -86 -150 -7 -5 -31 -8 -53 -8 -33 0 -36 2 -18 9 12 5 29 22 38 37 15 26 14 16 -2 -23 -5 -14 -3 -15 16 -5 12 7 19 16 17 20 -3 4 5 19 16 31 12 13 22 31 23 39 0 9 11 36 24 61 21 40 21 43 4 28 -29 -26 -46 -24 -33 5 11 22 11 22 -5 2 -9 -11 -21 -28 -26 -37 -8 -16 -7 -17 15 -8 20 7 24 6 19 -5 -5 -15 -54 -21 -66 -9 -13 13 43 99 57 89 3 -3 4 -2 1 2 -8 10 -45 11 -39 1 3 -4 0 -8 -5 -8 -6 0 -11 8 -11 17 0 12 -3 14 -11 6 -8 -8 -8 -17 0 -32 13 -23 -5 -66 -53 -129 -22 -31 -26 -69 -5 -56 12 7 11 -7 -1 -26 -7 -12 -10 -12 -10 -1 0 8 -6 11 -16 7 -13 -5 -14 -3 -6 7 8 10 6 13 -9 14 -16 1 -19 -2 -14 -15 3 -9 3 -13 -1 -9 -4 4 -16 0 -26 -10 -29 -26 -21 -2 18 50 19 26 39 45 44 42 5 -3 7 0 4 8 -3 8 8 28 25 45 16 18 25 34 21 37 -5 3 -23 -15 -40 -39 -18 -25 -37 -43 -44 -42 -6 2 -8 1 -4 -1 5 -3 3 -13 -3 -24 -5 -11 -14 -17 -19 -14 -5 3 -12 0 -16 -6 -5 -8 -3 -9 6 -4 8 5 11 3 8 -6 -3 -8 -10 -13 -16 -12 -6 2 -20 -9 -32 -24 -11 -14 -23 -24 -26 -21 -3 3 17 34 44 69 75 99 77 92 -24 88 -49 -2 -97 -8 -106 -14 -12 -6 -21 -6 -30 3 -7 7 -42 13 -83 14 -41 1 -54 3 -32 5 20 2 35 8 33 12 -3 4 1 8 9 8 8 0 12 -4 9 -9 -3 -4 59 -8 138 -8 101 0 148 -4 158 -12 8 -7 12 -9 8 -4 -8 10 11 51 19 42 4 -3 15 1 25 11 10 9 18 11 18 5 0 -6 7 -9 15 -6 11 5 12 10 3 24 -17 27 -3 51 29 48 19 -2 28 2 31 15 6 29 -36 14 -73 -26 -19 -20 -39 -37 -44 -37 -18 0 -12 29 9 50 11 11 20 24 20 28 0 13 36 43 42 36 3 -3 9 1 14 8 4 7 4 10 -1 6 -9 -8 -45 9 -45 21 0 5 9 11 20 14 11 3 20 11 20 19 0 11 -2 11 -9 -1 -6 -10 -10 -10 -16 -1 -5 8 -19 10 -41 5 -19 -3 -34 -2 -34 4 0 5 -10 7 -22 5 l-23 -5 23 10 c12 6 22 19 22 30 0 10 7 22 16 25 14 5 15 4 4 -9 -11 -13 -10 -14 4 -9 9 3 16 10 16 15 0 5 4 9 10 9 6 0 6 -9 1 -22 -5 -13 -15 -23 -24 -23 -9 0 -19 -4 -23 -8 -4 -4 2 -7 12 -7 11 0 25 5 32 12 9 9 12 9 12 0 0 -8 20 -12 60 -12 60 0 72 -8 47 -28 -10 -9 -19 -8 -34 3 -17 12 -20 12 -20 -2 0 -9 8 -18 18 -20 15 -4 17 -9 8 -27 -10 -21 -10 -21 9 1 11 12 22 19 26 16 3 -4 6 3 6 13 0 22 18 44 34 44 6 0 3 -7 -7 -14 -10 -8 -14 -17 -9 -20 5 -3 21 12 35 33 17 25 22 41 15 43 -7 3 -3 16 12 36 l24 32 105 1 c58 1 120 3 137 4 l31 3 -7 -44 c-4 -24 -3 -41 2 -38 4 3 8 13 9 22 0 11 3 12 6 5 8 -21 23 -15 24 10 l2 22 4 -22 c5 -24 22 -32 24 -10 0 9 2 9 6 -1 4 -10 8 -9 19 5 13 17 13 17 14 -2 1 -19 1 -19 11 -1 9 14 13 15 19 6 5 -8 10 -2 15 19 4 19 2 37 -4 45 -6 7 -9 15 -7 17 3 2 1 36 -4 74 -9 74 -1 113 12 55 4 -19 10 -80 12 -136z m2213 144 c-3 -8 -6 -5 -6 6 -1 11 2 17 5 13 3 -3 4 -12 1 -19z m-1652 3 c-3 -5 9 -12 27 -14 33 -4 33 -4 -4 -5 -36 -2 -47 6 -31 21 9 10 15 8 8 -2z m2523 2 c-10 -2 -28 -2 -40 0 -13 2 -5 4 17 4 22 1 32 -1 23 -4z m-2638 -15 c0 -5 -13 -8 -30 -8 -16 0 -30 3 -30 8 0 4 14 7 30 7 17 0 30 -3 30 -7z m339 -4 c2 -2 -10 -4 -27 -4 -18 0 -32 5 -32 10 0 9 47 4 59 -6z m281 6 c0 -5 -2 -10 -4 -10 -3 0 -8 5 -11 10 -3 6 -1 10 4 10 6 0 11 -4 11 -10z m2157 4 c-3 -3 -12 -4 -19 -1 -8 3 -5 6 6 6 11 1 17 -2 13 -5z m-2570 -10 c-3 -3 -12 -4 -19 -1 -8 3 -5 6 6 6 11 1 17 -2 13 -5z m1829 -5 c4 -8 9 -7 15 2 6 10 9 9 9 -7 0 -16 -6 -21 -22 -20 -22 1 -38 13 -38 29 0 11 28 8 36 -4z m-1216 -36 c-1 -27 -1 -27 -15 -9 -19 25 -19 36 0 36 10 0 15 -10 15 -27z m-1617 10 c-7 -2 -21 -2 -30 0 -10 3 -4 5 12 5 17 0 24 -2 18 -5z m953 -46 c1 -37 -1 -45 -6 -27 -5 14 -9 21 -9 15 -1 -5 -6 -2 -12 8 -12 21 -49 23 -49 2 0 -18 -12 -19 -28 -3 -7 7 -12 8 -12 2 0 -5 5 -15 12 -22 7 -7 8 -12 3 -12 -16 0 -60 44 -60 59 0 8 -7 16 -15 18 -13 4 -13 3 0 -6 29 -20 1 -22 -31 -2 l-34 21 120 0 120 0 1 -53z m184 33 c0 -19 -2 -20 -35 -6 -31 13 -35 13 -35 0 0 -7 -4 -14 -10 -14 -5 0 -10 7 -10 16 0 16 -2 16 -46 -3 -6 -2 -14 3 -17 11 -5 14 5 16 73 16 74 0 80 -2 80 -20z m935 -11 c4 -6 -2 -13 -14 -16 -20 -5 -26 -29 -24 -90 1 -7 -3 -13 -8 -13 -5 0 -9 11 -9 25 0 18 -5 25 -20 25 -11 0 -20 7 -20 15 0 8 7 15 16 15 9 0 14 8 13 18 -1 9 -1 20 0 25 2 11 59 8 66 -4z m2415 7 c0 -11 -19 -15 -25 -6 -3 5 1 10 9 10 9 0 16 -2 16 -4z m-4756 -15 c18 -1 18 -2 1 -21 -16 -18 -31 -20 -137 -20 -122 0 -139 7 -77 33 25 10 130 14 213 8z m4383 -33 c-3 -8 -6 -5 -6 6 -1 11 2 17 5 13 3 -3 4 -12 1 -19z m143 -3 c0 -8 -4 -15 -10 -15 -5 0 -7 7 -4 15 4 8 8 15 10 15 2 0 4 -7 4 -15z m-4473 -34 c-10 -12 -9 -14 6 -8 9 3 17 3 17 -2 0 -11 -35 -20 -46 -12 -17 12 -14 30 3 24 10 -4 14 -2 10 4 -3 5 0 10 8 10 12 0 12 -3 2 -16z m124 6 c-11 -11 -64 -25 -78 -20 -7 3 -13 10 -13 16 0 8 18 12 49 12 28 0 46 -3 42 -8z m-197 -5 c3 -5 -1 -9 -9 -9 -8 0 -12 4 -9 9 3 4 7 8 9 8 2 0 6 -4 9 -8z m1881 -2 c3 -5 -1 -10 -9 -10 -9 0 -16 5 -16 10 0 6 4 10 9 10 6 0 13 -4 16 -10z m-2165 -6 c0 -8 -19 -13 -24 -6 -3 5 1 9 9 9 8 0 15 -2 15 -3z m4547 0 c-3 -3 -12 -4 -19 -1 -8 3 -5 6 6 6 11 1 17 -2 13 -5z m175 -13 c11 -1 15 -6 12 -16 -5 -12 2 -15 30 -15 26 0 36 4 36 16 0 13 6 15 27 9 36 -9 39 -13 27 -33 -9 -14 -24 -16 -85 -14 -41 2 -95 3 -121 2 -44 0 -48 2 -48 24 0 29 12 34 65 30 22 -2 48 -3 57 -3z m798 -1 c0 -5 -7 -10 -15 -10 -8 0 -15 -5 -15 -12 0 -6 -3 -9 -6 -5 -11 10 4 37 21 37 8 0 15 -4 15 -10z m-5840 -20 c-24 -15 -36 -11 -14 4 10 8 21 12 24 10 2 -3 -2 -9 -10 -14z m371 -11 c-9 -4 -22 -1 -30 5 -11 8 -13 8 -7 -1 10 -18 -38 -17 -52 0 -9 10 -3 14 31 16 23 1 43 4 45 6 2 2 10 -2 17 -8 10 -10 10 -13 -4 -18z m3154 17 c18 -8 38 -23 44 -34 17 -32 14 -82 -6 -89 -15 -6 -15 -7 3 -14 14 -6 11 -8 -15 -8 -33 -1 -34 -2 -15 -16 19 -14 18 -15 -4 -21 -14 -4 -21 -12 -18 -20 3 -8 1 -14 -4 -14 -6 0 -10 5 -10 11 0 5 -4 8 -9 4 -5 -3 -13 0 -17 6 -4 8 -3 9 4 5 14 -8 15 -4 6 18 -3 9 -9 14 -13 11 -8 -4 -11 142 -4 162 6 17 16 16 58 -1z m2555 5 c18 -4 26 -13 27 -33 l2 -28 -72 0 c-50 0 -67 3 -57 10 8 5 23 10 32 10 32 0 29 20 -4 35 l-33 14 40 -1 c22 0 51 -3 65 -7z m-5615 -12 c4 -5 11 -9 16 -9 6 0 7 5 4 10 -3 6 1 10 10 10 22 0 8 -19 -22 -31 -17 -6 -30 -6 -39 2 -7 6 -19 7 -26 3 -10 -6 -11 -5 -1 7 14 17 50 22 58 8z m2365 -14 c0 -8 -4 -15 -10 -15 -5 0 -7 7 -4 15 4 8 8 15 10 15 2 0 4 -7 4 -15z m63 -8 c3 -8 -1 -14 -9 -14 -8 0 -14 6 -14 14 0 7 4 13 9 13 5 0 11 -6 14 -13z m-2271 -20 c-21 -22 -30 -43 -14 -34 4 3 37 8 73 11 53 5 66 4 66 -8 0 -11 -16 -14 -73 -12 -40 0 -76 4 -80 9 -7 6 32 57 44 57 3 0 -4 -10 -16 -23z m1408 -37 l0 -60 -35 17 c-47 23 -54 43 -12 42 18 -1 24 -3 15 -6 -16 -4 -16 -6 -4 -19 23 -22 26 -17 26 36 0 28 2 50 5 50 3 0 5 -27 5 -60z m905 50 c3 -6 -1 -7 -9 -4 -18 7 -21 14 -7 14 6 0 13 -4 16 -10z m-2274 -23 c-10 -9 -11 -8 -5 6 3 10 9 15 12 12 3 -3 0 -11 -7 -18z m1339 8 c0 -8 -4 -15 -10 -15 -5 0 -7 7 -4 15 4 8 8 15 10 15 2 0 4 -7 4 -15z m-1826 -3 c3 -5 -1 -9 -9 -9 -8 0 -12 4 -9 9 3 4 7 8 9 8 2 0 6 -4 9 -8z m331 -2 c3 -5 1 -10 -4 -10 -6 0 -11 5 -11 10 0 6 2 10 4 10 3 0 8 -4 11 -10z m1572 -12 c-3 -8 -6 -5 -6 6 -1 11 2 17 5 13 3 -3 4 -12 1 -19z m711 -6 c-12 -14 -10 -14 10 -3 13 7 26 10 30 7 3 -3 0 -6 -6 -6 -7 0 -12 -7 -12 -15 0 -12 -17 -15 -97 -14 -54 1 -89 4 -78 6 11 3 29 12 40 19 11 8 39 14 62 14 24 0 43 5 43 11 0 5 5 7 10 4 8 -5 7 -12 -2 -23z m-2578 8 c0 -5 -4 -10 -10 -10 -5 0 -10 5 -10 10 0 6 5 10 10 10 6 0 10 -4 10 -10z m2860 6 c0 -3 -4 -8 -10 -11 -5 -3 -10 -1 -10 4 0 6 5 11 10 11 6 0 10 -2 10 -4z m2015 -6 c-3 -5 -10 -10 -16 -10 -5 0 -9 5 -9 10 0 6 7 10 16 10 8 0 12 -4 9 -10z m90 0 c3 -5 1 -10 -4 -10 -6 0 -11 5 -11 10 0 6 2 10 4 10 3 0 8 -4 11 -10z m-4836 -16 c-6 -7 -19 -12 -29 -11 -14 1 -16 5 -9 13 6 7 19 12 29 11 14 -1 16 -5 9 -13z m141 3 c0 -2 -8 -11 -18 -20 -15 -14 -19 -15 -19 -2 0 8 4 12 8 9 4 -2 10 0 14 6 6 10 15 14 15 7z m1984 -12 c3 -8 1 -15 -4 -15 -6 0 -10 7 -10 15 0 8 2 15 4 15 2 0 6 -7 10 -15z m-2036 -20 c-3 -3 -9 2 -12 12 -6 14 -5 15 5 6 7 -7 10 -15 7 -18z m2127 15 c3 -5 1 -10 -4 -10 -6 0 -11 5 -11 10 0 6 2 10 4 10 3 0 8 -4 11 -10z m-2328 -6 c-3 -3 -12 -4 -19 -1 -8 3 -5 6 6 6 11 1 17 -2 13 -5z m47 -25 c-19 -21 -13 -24 17 -9 10 6 19 7 19 2 0 -14 -54 -35 -58 -23 -3 8 -10 8 -24 0 -16 -8 -19 -8 -13 1 5 9 1 10 -16 5 -13 -3 -2 7 26 24 52 31 78 32 49 0z m5216 22 c0 -12 -39 -25 -48 -16 -7 7 17 25 36 25 6 0 12 -4 12 -9z m88 -12 c-2 -6 -8 -10 -13 -10 -5 0 -11 4 -13 10 -2 6 4 11 13 11 9 0 15 -5 13 -11z m-4094 -24 c15 -23 15 -25 -2 -34 -16 -8 -18 -5 -20 25 -3 41 0 42 22 9z m1398 -29 c-8 -27 -7 -39 6 -57 15 -21 15 -22 -9 -15 -13 5 -39 10 -56 13 -34 5 -43 24 -20 42 6 6 28 24 47 40 39 33 46 28 32 -23z m-2789 29 c1 -6 -10 -11 -26 -11 l-27 -1 27 4 c21 4 23 7 12 15 -10 7 -10 9 -1 6 8 -2 14 -8 15 -13z m61 0 c-10 -8 -26 -14 -34 -14 -9 0 -4 6 10 14 33 19 49 19 24 0z m264 2 c7 -5 10 -13 7 -18 -4 -5 -1 -9 5 -9 6 0 8 -5 5 -10 -4 -6 -10 -8 -15 -5 -4 3 -22 -6 -38 -20 -23 -19 -30 -32 -27 -53 2 -15 2 -21 -2 -14 -4 10 -11 8 -29 -9 -14 -13 -24 -17 -24 -10 0 7 -5 9 -10 6 -6 -4 -8 -10 -6 -14 3 -4 -7 -8 -22 -9 l-27 -1 30 24 c17 14 27 25 22 25 -4 0 11 16 33 36 48 44 45 58 -4 20 -41 -31 -56 -34 -31 -6 10 11 14 20 8 20 -5 0 -18 -9 -28 -20 -10 -11 -15 -20 -10 -20 4 0 2 -6 -4 -13 -6 -8 -9 -16 -6 -19 3 -3 -5 -13 -17 -24 -18 -15 -20 -16 -9 -1 7 9 10 17 6 17 -5 0 0 9 10 20 30 33 9 23 -55 -27 -33 -25 -63 -44 -66 -41 -3 3 6 14 21 25 14 10 45 33 68 51 23 18 49 39 57 45 9 7 23 18 32 25 20 16 58 24 58 11 0 -5 7 -9 15 -9 22 0 18 15 -7 28 -21 9 -20 10 12 8 19 -1 41 -5 48 -9z m2231 -57 l0 -60 -32 0 -32 0 3 60 c4 58 5 60 32 60 28 0 28 -1 29 -60z m18 23 c-3 -10 -5 -4 -5 12 0 17 2 24 5 18 2 -7 2 -21 0 -30z m101 -60 c-1 -54 -3 -77 -5 -50 -2 26 -5 47 -6 47 -1 0 -17 -4 -35 -9 -31 -9 -32 -8 -32 19 0 32 15 41 48 29 20 -8 22 -6 22 26 0 19 2 35 5 35 3 0 4 -44 3 -97z m387 60 c-12 -66 -24 -73 -25 -15 0 41 3 52 16 52 13 0 15 -7 9 -37z m32 -30 c-2 -16 -4 -5 -4 22 0 28 2 40 4 28 2 -13 2 -35 0 -50z m53 55 c-1 -7 -7 -26 -15 -43 l-13 -30 -1 43 c-1 31 3 42 14 42 8 0 15 -6 15 -12z m-2740 -8 c-12 -8 -12 -10 -1 -10 11 0 11 -3 1 -15 -15 -18 -36 -19 -46 -3 -8 13 22 38 45 38 14 0 14 -1 1 -10z m56 -4 c7 -18 -80 -111 -96 -101 -15 9 -40 -13 -34 -29 4 -10 -9 -13 -51 -13 -46 0 -53 2 -44 13 6 8 15 12 19 9 5 -3 11 -1 15 5 3 5 11 10 17 10 6 0 5 -7 -3 -17 -13 -15 -11 -15 19 1 30 16 37 41 8 30 -7 -3 -19 3 -27 12 -11 14 -11 16 0 10 9 -6 20 0 35 18 20 26 23 27 49 13 26 -14 30 -13 55 12 22 21 24 27 12 33 -12 5 -12 7 3 7 10 1 20 -5 23 -13z m5384 -27 c0 -5 -7 -9 -15 -9 -8 0 -15 7 -15 15 0 9 6 12 15 9 8 -4 15 -10 15 -15z m-5340 2 c0 -6 -4 -13 -10 -16 -5 -3 -10 1 -10 9 0 9 5 16 10 16 6 0 10 -4 10 -9z m5470 -1 c0 -5 -7 -10 -15 -10 -8 0 -15 5 -15 10 0 6 7 10 15 10 8 0 15 -4 15 -10z m-3790 -30 c8 13 10 12 10 -2 0 -9 10 -24 22 -32 19 -14 23 -14 34 2 9 11 13 13 14 4 0 -7 4 -11 9 -7 5 3 12 1 16 -5 3 -5 -1 -10 -11 -10 -12 0 -14 -3 -6 -13 8 -10 6 -13 -8 -13 -10 0 -16 4 -14 8 5 7 -18 12 -38 9 -5 0 -8 6 -8 14 0 9 -9 15 -25 15 -22 0 -25 4 -24 33 0 31 1 31 10 7 8 -20 12 -22 19 -10z m-1721 -11 c-16 -10 -23 -4 -14 10 3 6 11 8 17 5 6 -4 5 -9 -3 -15z m-13 -26 c-2 -3 -7 -4 -11 -3 -4 1 -20 -11 -36 -26 -40 -39 -45 -26 -6 17 23 27 35 34 45 26 7 -5 10 -12 8 -14z m985 10 c13 -16 12 -17 -3 -4 -17 13 -22 21 -14 21 2 0 10 -8 17 -17z m959 -18 c0 -8 -4 -17 -10 -20 -6 -4 -10 5 -10 20 0 15 4 24 10 20 6 -3 10 -12 10 -20z m27 3 c-3 -8 -6 -5 -6 6 -1 11 2 17 5 13 3 -3 4 -12 1 -19z m-2057 -22 c0 -3 -4 -8 -10 -11 -5 -3 -10 -1 -10 4 0 6 5 11 10 11 6 0 10 -2 10 -4z m1110 -31 c0 -5 -5 -3 -10 5 -5 8 -10 20 -10 25 0 6 5 3 10 -5 5 -8 10 -19 10 -25z m717 13 c-3 -8 -6 -5 -6 6 -1 11 2 17 5 13 3 -3 4 -12 1 -19z m363 16 c0 -18 -24 -44 -40 -44 -15 0 -20 7 -20 25 0 21 5 25 30 25 17 0 30 -3 30 -6z m315 -4 c8 -13 -5 -13 -25 0 -13 8 -13 10 2 10 9 0 20 -4 23 -10z m-2930 -30 c3 -5 -1 -10 -10 -10 -9 0 -13 5 -10 10 3 6 8 10 10 10 2 0 7 -4 10 -10z m1105 -7 c0 -11 124 -10 131 1 7 9 29 0 29 -13 0 -5 -48 -8 -107 -8 -60 0 -100 2 -90 4 9 3 17 9 17 14 0 5 5 9 10 9 6 0 10 -3 10 -7z m-1150 -18 c-10 -12 -10 -15 4 -15 22 0 20 -17 -2 -22 -13 -4 -18 0 -17 11 1 18 13 41 22 41 3 0 0 -7 -7 -15z m377 9 c-3 -3 -12 -4 -19 -1 -8 3 -5 6 6 6 11 1 17 -2 13 -5z m1098 -4 c3 -5 1 -10 -4 -10 -6 0 -11 5 -11 10 0 6 2 10 4 10 3 0 8 -4 11 -10z m-1062 -17 c-7 -2 -19 -2 -25 0 -7 3 -2 5 12 5 14 0 19 -2 13 -5z m44 1 c-3 -3 -12 -4 -19 -1 -8 3 -5 6 6 6 11 1 17 -2 13 -5z m319 -71 c-8 -15 -15 -22 -16 -15 0 26 -17 2 -30 -42 -7 -25 -18 -47 -26 -50 -19 -7 -18 -5 13 59 18 37 32 54 41 50 10 -4 12 0 8 10 -3 9 -2 13 4 10 6 -3 10 -1 10 6 0 7 3 10 6 7 3 -4 -1 -19 -10 -35z m-551 17 c3 -6 -4 -10 -17 -10 -18 0 -20 2 -8 10 19 12 18 12 25 0z m78 -7 c-7 -2 -19 -2 -25 0 -7 3 -2 5 12 5 14 0 19 -2 13 -5z m319 -15 c-4 -15 -2 -19 7 -13 8 4 7 -4 -3 -24 -9 -17 -19 -31 -22 -31 -2 0 0 9 6 19 13 26 13 34 -2 24 -31 -19 -37 -9 -11 17 15 16 29 30 30 30 0 0 -1 -10 -5 -22z m268 -40 c-19 -68 -20 -71 -25 -66 -3 2 3 30 12 61 9 32 18 56 20 53 2 -2 -1 -24 -7 -48z m140 30 c-1 -22 -1 -22 -14 -5 -11 14 -15 15 -19 5 -4 -8 -6 -7 -6 5 -1 11 6 17 19 17 14 0 20 -7 20 -22z m-717 5 c-18 -2 -48 -2 -65 0 -18 2 -4 4 32 4 36 0 50 -2 33 -4z m64 1 c-3 -3 -12 -4 -19 -1 -8 3 -5 6 6 6 11 1 17 -2 13 -5z m413 -28 c0 -1 -5 -17 -11 -35 -15 -43 -30 -40 -16 4 6 19 14 35 19 35 4 0 8 -2 8 -4z m3335 -6 c-3 -5 -12 -7 -20 -3 -21 7 -19 13 6 13 11 0 18 -4 14 -10z m-3135 -35 c0 -14 -4 -25 -9 -25 -4 0 -6 11 -3 25 2 14 6 25 8 25 2 0 4 -11 4 -25z m-723 -1 c-3 -3 -12 -4 -19 -1 -8 3 -5 6 6 6 11 1 17 -2 13 -5z m667 -6 c-5 -9 -2 -9 9 1 15 12 17 11 17 -7 0 -15 -5 -19 -20 -15 -21 5 -28 33 -9 33 5 0 7 -6 3 -12z m2535 3 c10 -7 12 -19 6 -47 -6 -28 -10 -33 -13 -19 -4 16 -7 14 -18 -15 l-12 -35 -1 56 c-1 68 7 80 38 60z m-3096 -28 c-7 -2 -19 -2 -25 0 -7 3 -2 5 12 5 14 0 19 -2 13 -5z m3653 -13 c13 -5 24 -13 24 -18 0 -5 -115 -8 -255 -8 -250 0 -255 0 -255 21 0 20 4 20 231 17 127 -2 241 -7 255 -12z m-3773 4 c8 -9 -114 -144 -130 -144 -7 0 -12 -5 -11 -12 2 -7 -2 -12 -9 -13 -6 0 -15 -4 -20 -9 -5 -6 -2 -6 7 -1 8 5 13 6 10 2 -3 -3 -8 -5 -12 -4 -3 1 -18 -9 -32 -22 -14 -14 -29 -22 -32 -18 -5 5 204 224 217 226 3 1 8 -2 12 -5z m41 -6 c-5 -8 -2 -9 11 -4 18 7 18 6 1 -13 -10 -11 -24 -17 -32 -14 -8 3 -17 -2 -20 -11 -3 -9 -11 -16 -17 -16 -6 0 4 16 23 35 35 36 47 44 34 23z m759 -70 c-6 -75 -6 -76 -29 -66 -19 9 -21 14 -11 29 6 10 15 15 19 13 4 -3 9 10 9 28 1 18 2 38 4 43 1 6 3 16 3 24 1 8 4 12 6 10 3 -2 2 -39 -1 -81z m67 67 c0 -8 -4 -15 -9 -15 -5 0 -14 7 -21 15 -10 13 -9 15 9 15 12 0 21 -6 21 -15z m50 7 c0 -5 -7 -9 -15 -9 -8 0 -15 4 -15 9 0 4 7 8 15 8 8 0 15 -4 15 -8z m-800 -23 c0 -5 -3 -9 -8 -9 -4 0 -38 -36 -75 -80 -42 -49 -76 -80 -88 -80 -10 0 -19 -7 -19 -15 0 -8 -3 -14 -7 -12 -5 1 -10 -2 -12 -8 -5 -13 -35 -35 -40 -29 -8 8 63 74 80 74 17 0 33 25 25 39 -3 4 8 15 25 25 17 10 27 22 23 29 -4 7 -4 9 1 5 9 -9 76 63 69 74 -3 4 2 5 10 2 9 -3 16 -10 16 -15z m-383 -7 c-10 -2 -14 -9 -11 -15 4 -7 2 -7 -7 1 -12 11 -12 14 1 22 8 5 19 6 25 2 6 -4 3 -8 -8 -10z m728 -2 c4 -6 -6 -10 -22 -9 -25 0 -26 1 -8 9 11 5 21 9 22 9 1 1 5 -3 8 -9z m184 -6 c2 -2 -12 -4 -33 -4 -22 0 -35 4 -31 10 5 9 52 4 64 -6z m31 6 c0 -5 -2 -10 -4 -10 -3 0 -8 5 -11 10 -3 6 -1 10 4 10 6 0 11 -4 11 -10z m63 3 c-7 -2 -21 -2 -30 0 -10 3 -4 5 12 5 17 0 24 -2 18 -5z m-210 -10 c-7 -2 -19 -2 -25 0 -7 3 -2 5 12 5 14 0 19 -2 13 -5z m325 -90 c0 -49 -1 -83 -3 -78 -7 18 -10 165 -4 165 4 0 7 -39 7 -87z m46 10 c-18 -29 -31 -24 -15 5 7 13 7 22 1 24 -5 2 -7 13 -3 26 l6 23 13 -27 c13 -24 12 -30 -2 -51z m595 22 c0 -5 -6 -1 -14 9 -8 11 -15 24 -15 30 0 5 7 1 15 -10 8 -10 14 -23 14 -29z m-1569 -28 c-24 -23 -37 -33 -30 -22 20 29 64 72 70 68 2 -2 -16 -23 -40 -46z m415 33 c3 -5 1 -10 -4 -10 -6 0 -11 5 -11 10 0 6 2 10 4 10 3 0 8 -4 11 -10z m260 0 c3 -5 1 -10 -4 -10 -6 0 -11 5 -11 10 0 6 2 10 4 10 3 0 8 -4 11 -10z m45 0 c0 -5 -2 -10 -4 -10 -3 0 -8 5 -11 10 -3 6 -1 10 4 10 6 0 11 -4 11 -10z m87 4 c-3 -3 -12 -4 -19 -1 -8 3 -5 6 6 6 11 1 17 -2 13 -5z m-494 -11 c-7 -2 -19 -2 -25 0 -7 3 -2 5 12 5 14 0 19 -2 13 -5z m220 0 c-7 -2 -21 -2 -30 0 -10 3 -4 5 12 5 17 0 24 -2 18 -5z m54 1 c-3 -3 -12 -4 -19 -1 -8 3 -5 6 6 6 11 1 17 -2 13 -5z m2680 -34 c-3 -10 -1 -20 3 -22 4 -2 10 -47 13 -101 5 -85 3 -98 -10 -93 -8 3 -17 6 -19 6 -2 0 -4 52 -4 115 0 78 4 115 11 115 6 0 9 -9 6 -20z m37 4 c9 -24 7 -27 -9 -10 -17 17 -19 26 -6 26 5 0 12 -7 15 -16z m-2506 -1 c-10 -2 -28 -2 -40 0 -13 2 -5 4 17 4 22 1 32 -1 23 -4z m-438 -27 c0 -9 -40 -13 -46 -5 -3 5 6 9 20 9 14 0 26 -2 26 -4z m97 -2 c-3 -3 -12 -4 -19 -1 -8 3 -5 6 6 6 11 1 17 -2 13 -5z m46 -1 c-7 -2 -19 -2 -25 0 -7 3 -2 5 12 5 14 0 19 -2 13 -5z m471 -9 c3 -8 2 -12 -4 -9 -6 3 -10 10 -10 16 0 14 7 11 14 -7z m3006 -4 c0 -5 -4 -10 -10 -10 -5 0 -10 5 -10 10 0 6 5 10 10 10 6 0 10 -4 10 -10z m-4030 -3 c0 -2 -10 -12 -22 -23 l-23 -19 19 23 c18 21 26 27 26 19z m10 -32 c-7 -9 -15 -13 -19 -10 -3 3 1 10 9 15 21 14 24 12 10 -5z m1651 -2 c13 -16 12 -17 -3 -4 -17 13 -22 21 -14 21 2 0 10 -8 17 -17z m-794 -25 c-3 -8 -6 -5 -6 6 -1 11 2 17 5 13 3 -3 4 -12 1 -19z m-32 -8 c-3 -6 -40 -9 -83 -8 l-77 2 80 6 c44 3 81 7 83 8 2 1 0 -2 -3 -8z m-955 -24 c0 -2 -8 -10 -17 -17 -16 -13 -17 -12 -4 4 13 16 21 21 21 13z m115 -23 c-2 -10 -4 -21 -4 -25 -2 -11 -41 -5 -41 7 0 15 21 35 36 35 7 0 11 -8 9 -17z"
       id="path2909"
       style="fill:#bec3cb;fill-opacity:1" />
    <path
       d="M385 1500 c3 -5 11 -10 16 -10 6 0 7 5 4 10 -3 6 -11 10 -16 10 -6 0 -7 -4 -4 -10z"
       id="path2911"
       style="fill:#bec3cb;fill-opacity:1" />
    <path
       d="M852 820 c-7 -11 -9 -20 -4 -20 10 0 32 22 32 32 0 15 -15 8 -28 -12z"
       id="path2913"
       style="fill:#bec3cb;fill-opacity:1" />
    <path
       d="M875 803 c-29 -57 -29 -61 -1 -20 30 42 40 47 31 15 -5 -19 -4 -20 5 -8 30 42 32 50 7 50 -17 0 -28 -10 -42 -37z"
       id="path2915"
       style="fill:#bec3cb;fill-opacity:1" />
    <path
       d="M950 831 c0 -5 -3 -18 -6 -28 -6 -16 -5 -16 9 2 19 23 21 35 7 35 -5 0 -10 -4 -10 -9z"
       id="path2917"
       style="fill:#bec3cb;fill-opacity:1" />
    <path
       d="M977 818 c-9 -31 -2 -33 11 -3 6 14 8 25 3 25 -5 0 -11 -10 -14 -22z"
       id="path2919"
       style="fill:#bec3cb;fill-opacity:1" />
    <path
       d="M1010 823 c0 -14 2 -15 9 -4 5 7 13 11 19 7 6 -3 13 -2 17 4 4 6 -5 10 -19 10 -18 0 -26 -5 -26 -17z"
       id="path2921"
       style="fill:#bec3cb;fill-opacity:1" />
    <path
       d="M810 755 c-7 -9 -8 -15 -2 -15 5 0 12 7 16 15 3 8 4 15 2 15 -2 0 -9 -7 -16 -15z"
       id="path2923"
       style="fill:#bec3cb;fill-opacity:1" />
    <path
       d="M778 663 c6 -2 18 -2 25 0 6 3 1 5 -13 5 -14 0 -19 -2 -12 -5z"
       id="path2925"
       style="fill:#bec3cb;fill-opacity:1" />
    <path
       d="M1105 660 c-3 -5 -1 -10 4 -10 6 0 11 5 11 10 0 6 -2 10 -4 10 -3 0 -8 -4 -11 -10z"
       id="path2927"
       style="fill:#bec3cb;fill-opacity:1" />
    <path
       d="M1232 640 c0 -19 2 -27 5 -17 2 9 2 25 0 35 -3 9 -5 1 -5 -18z"
       id="path2929"
       style="fill:#bec3cb;fill-opacity:1" />
    <path
       d="M1270 640 c0 -16 4 -30 8 -30 5 0 7 14 4 30 -2 17 -6 30 -8 30 -2 0 -4 -13 -4 -30z"
       id="path2931"
       style="fill:#bec3cb;fill-opacity:1" />
    <path
       d="M765 636 c17 -7 33 -11 37 -9 4 2 27 8 50 12 38 8 34 9 -37 9 -74 1 -78 0 -50 -12z"
       id="path2933"
       style="fill:#bec3cb;fill-opacity:1" />
    <path
       d="M933 643 c9 -2 25 -2 35 0 9 3 1 5 -18 5 -19 0 -27 -2 -17 -5z"
       id="path2935"
       style="fill:#bec3cb;fill-opacity:1" />
    <path
       d="M935 610 c3 -5 8 -10 11 -10 2 0 4 5 4 10 0 6 -5 10 -11 10 -5 0 -7 -4 -4 -10z"
       id="path2937"
       style="fill:#bec3cb;fill-opacity:1" />
    <path
       d="M294 774 c-18 -14 -18 -15 4 -4 12 6 22 13 22 15 0 8 -5 6 -26 -11z"
       id="path2939"
       style="fill:#bec3cb;fill-opacity:1" />
    <path
       d="M453 756 c0 -8 6 -12 14 -9 7 3 10 9 7 14 -8 14 -21 11 -21 -5z"
       id="path2941"
       style="fill:#bec3cb;fill-opacity:1" />
    <path
       d="M365 730 c-3 -5 -2 -10 4 -10 5 0 13 5 16 10 3 6 2 10 -4 10 -5 0 -13 -4 -16 -10z"
       id="path2943"
       style="fill:#bec3cb;fill-opacity:1" />
    <path
       d="M379 650 c-13 -10 -19 -19 -13 -20 6 0 19 9 29 20 23 26 14 26 -16 0z"
       id="path2945"
       style="fill:#bec3cb;fill-opacity:1" />
    <path
       d="M492 673 c-2 -20 1 -23 11 -14 8 6 16 9 19 6 3 -3 11 1 18 10 10 12 10 15 -1 16 -8 0 -21 2 -29 4 -11 2 -17 -6 -18 -22z"
       id="path2947"
       style="fill:#bec3cb;fill-opacity:1" />
    <path
       d="M4980 2800 c0 -5 6 -10 14 -10 8 0 18 5 21 10 3 6 -3 10 -14 10 -12 0 -21 -4 -21 -10z"
       id="path2949"
       style="fill:#bec3cb;fill-opacity:1" />
    <path
       d="M130 265 c-24 -25 -40 -45 -34 -45 5 0 30 20 54 45 24 25 40 45 34 45 -5 0 -30 -20 -54 -45z"
       id="path2951"
       style="fill:#bec3cb;fill-opacity:1" />
    <path
       d="M42 283 c-7 -10 -10 -11 -6 -3 4 9 -1 7 -13 -5 -23 -23 -27 -52 -8 -52 8 0 13 5 12 11 -1 6 8 12 21 14 23 4 83 52 65 52 -6 0 -16 -7 -23 -15 -11 -14 -14 -14 -24 0 -10 14 -12 13 -24 -2z"
       id="path2953"
       style="fill:#bec3cb;fill-opacity:1" />
    <path
       d="M0 199 c0 -5 5 -7 10 -4 5 3 10 8 10 11 0 2 -4 4 -10 4 -5 0 -10 -5 -10 -11z"
       id="path2955"
       style="fill:#bec3cb;fill-opacity:1" />
  </g>
</svg>
